<?xml version="1.0" standalone="no"?>
<!DOCTYPE svg PUBLIC "-//W3C//DTD SVG 1.1//EN" "http://www.w3.org/Graphics/SVG/1.1/DTD/svg11.dtd" >
<svg xmlns="http://www.w3.org/2000/svg">
<metadata></metadata>
<defs>
<font id="gunarregular" horiz-adv-x="1208" >
<font-face units-per-em="2048" ascent="1536" descent="-512" />
<missing-glyph horiz-adv-x="614" />
<glyph unicode="&#xfb01;" horiz-adv-x="1202" d="M77 1013v93h156v83q0 131 29 206.5t99 110.5q76 38 217 38q19 0 63 -2l-4 -89q-129 3 -190 -27q-50 -26 -69.5 -81t-19.5 -156v-83h670v-1106h-125v1013h-545v-1013h-125v1013h-156z" />
<glyph unicode="&#xfb02;" horiz-adv-x="1177" d="M77 1013v93h156v74q0 131 29 206t99 110q79 40 233 40h431v-1536h-125v1443h-263q-129 3 -190 -27q-50 -26 -69.5 -80.5t-19.5 -155.5v-74h277v-93h-277v-1013h-125v1013h-156z" />
<glyph horiz-adv-x="2048" />
<glyph horiz-adv-x="2048" />
<glyph unicode="&#xd;" horiz-adv-x="2048" />
<glyph unicode=" "  horiz-adv-x="614" />
<glyph unicode="&#x09;" horiz-adv-x="614" />
<glyph unicode="&#xa0;" horiz-adv-x="614" />
<glyph unicode="!" horiz-adv-x="327" d="M92 1434h143l-12 -1016h-119zM96 0v201h135v-201h-135z" />
<glyph unicode="&#x22;" horiz-adv-x="610" d="M92 1434h122l-12 -542h-98zM397 1434h121l-11 -542h-99z" />
<glyph unicode="#" horiz-adv-x="1351" d="M92 443l17 94h231l69 390h-232l17 94h231l66 373h114l-66 -373h357l66 373h113l-65 -373h248l-16 -94h-249l-69 -390h249l-16 -94h-249l-79 -445h-113l78 445h-357l-78 -445h-114l78 445h-231zM454 537h357l68 390h-357z" />
<glyph unicode="$" horiz-adv-x="1290" d="M113 324l126 5q0 -123 88.5 -180t308.5 -57q149 0 240 28t126.5 75t35.5 118v107q0 43 -8 75.5t-22 57.5t-40 43.5t-55.5 31t-76 22t-93 16t-114.5 12.5q-90 8 -153.5 17.5t-121.5 25t-95.5 36.5t-66 51.5t-41.5 72t-15 96.5v145q0 61 11 107.5t39.5 88t77 68.5t125.5 44 t182 20v183h121v-182q105 -4 181.5 -20.5t125.5 -43t77.5 -67t39.5 -87t11 -108.5l-130 -7q0 59 -14.5 98t-53.5 70t-113 45.5t-187 14.5q-89 0 -153.5 -10.5t-104.5 -28.5t-63 -47.5t-31.5 -62.5t-8.5 -79v-111q4 -105 82.5 -144t305.5 -60q90 -8 152 -17.5t124.5 -26.5 t102.5 -42t72.5 -62.5t47 -91t14.5 -123.5v-138q0 -151 -112 -230t-365 -86v-185h-121v185q-244 6 -351 87.5t-107 250.5z" />
<glyph unicode="%" horiz-adv-x="1593" d="M92 947v247q0 132 54.5 196t169.5 64h93q114 0 168.5 -64.5t54.5 -195.5v-247q0 -129 -55 -187.5t-168 -58.5h-93q-113 0 -168.5 58.5t-55.5 187.5zM184 950q0 -99 31.5 -136.5t106.5 -37.5h82q75 0 106 37t31 137v244q0 102 -31.5 143.5t-105.5 41.5h-82 q-74 0 -106 -41.5t-32 -143.5v-244zM220 -35l1036 1508h111l-1035 -1508h-112zM962 225v248q0 131 54.5 195t169.5 64h93q114 0 168 -64t54 -195v-248q0 -129 -54.5 -187.5t-167.5 -58.5h-93q-113 0 -168.5 58.5t-55.5 187.5zM1054 228q0 -99 31.5 -136t106.5 -37h82 q75 0 106 37t31 136v245q0 101 -31.5 142.5t-105.5 41.5h-82q-74 0 -106 -41t-32 -143v-245z" />
<glyph unicode="&#x26;" horiz-adv-x="1454" d="M92 318v179q0 153 90.5 245t274.5 103l-51 56q-47 56 -47 148v143q0 119 76.5 190t228.5 71h83q152 0 227.5 -70.5t75.5 -190.5v-131h-112v123q0 171 -190 171h-71q-192 0 -192 -171v-134q0 -71 37 -111l571 -624q13 43 13 100v240h118v-306q0 -95 -30 -158l168 -191 h-146l-99 108q-94 -128 -334 -128h-273q-206 0 -312 88.5t-106 249.5zM223 332q0 -249 303 -249h239q211 0 274 118l-508 555h-18q-290 -6 -290 -262v-162z" />
<glyph unicode="'" horiz-adv-x="305" d="M92 1434h122l-12 -542h-98z" />
<glyph unicode="(" horiz-adv-x="454" d="M92 219v728q0 188 101 345l118 190l81 -45l-105 -206q-69 -135 -69 -283v-730q0 -149 69 -284l105 -206l-81 -43l-117 188q-102 162 -102 346z" />
<glyph unicode=")" horiz-adv-x="454" d="M61 -272l106 206q69 135 69 284v730q0 148 -69 283l-105 206l81 45l117 -190q102 -159 102 -345v-728q0 -184 -102 -346l-117 -188z" />
<glyph unicode="*" horiz-adv-x="870" d="M92 1155l27 81l282 -101l-9 300h85l-8 -300l282 101l26 -81l-287 -84l183 -238l-69 -50l-169 248l-169 -248l-69 50l183 238z" />
<glyph unicode="+" horiz-adv-x="1171" d="M92 512v94h440v429h108v-429h440v-94h-440v-429h-108v429h-440z" />
<glyph unicode="," horiz-adv-x="382" d="M56 -242l100 242v201h135v-195l-121 -248h-114z" />
<glyph unicode="-" horiz-adv-x="768" d="M92 539v94h584v-94h-584z" />
<glyph unicode="." horiz-adv-x="319" d="M92 0v201h135v-201h-135z" />
<glyph unicode="/" horiz-adv-x="684" d="M56 -41l464 1516h108l-464 -1516h-108z" />
<glyph unicode="0" horiz-adv-x="1282" d="M139 441v483q0 252 98.5 370.5t313.5 118.5h182q213 0 311.5 -118.5t98.5 -370.5v-483q0 -247 -99 -354t-311 -107h-182q-212 0 -312 107t-100 354zM268 447q0 -201 68.5 -280.5t225.5 -79.5h161q156 0 224 79t68 281v477q0 206 -68.5 293.5t-223.5 87.5h-161 q-156 0 -225 -87.5t-69 -293.5v-477z" />
<glyph unicode="1" horiz-adv-x="671" d="M85 1244l318 149h94v-1392h-131v1264l-245 -115z" />
<glyph unicode="2" horiz-adv-x="1222" d="M105 0v347q0 50 10 91t25.5 71.5t44.5 57t57 45t73 37.5t81.5 32.5t94.5 32.5q60 20 91 31q35 12 88 30.5t76.5 26.5t60.5 22t51.5 22.5t37 22t30.5 25.5t18.5 29t13.5 36.5t4 44.5v65q0 61 -13.5 101t-50 72.5t-105.5 47.5t-175 15q-108 0 -178 -14.5t-107 -47 t-50.5 -73t-13.5 -102.5h-124q0 54 7.5 96t26.5 83t53.5 70t86 52t127 34t174.5 11q141 0 237 -24t146 -70.5t70 -103t20 -134.5v-108q-1 -30 -6.5 -55t-12 -45t-22 -38t-28.5 -31.5t-40 -28t-47 -24t-59.5 -24t-67.5 -24.5t-80.5 -28t-90.5 -31q-30 -11 -77 -27l-70.5 -24 t-59.5 -21.5t-53.5 -22t-43 -23t-37 -27t-26.5 -30t-21 -37t-10.5 -43.5t-4.5 -53v-228h856v-109h-987z" />
<glyph unicode="3" horiz-adv-x="1243" d="M105 301h121q0 -218 299 -218h152q297 0 297 218v148q0 230 -297 230h-214v101h205q264 0 264 188v143q0 199 -264 199h-136q-265 0 -265 -204h-119q-2 147 87.5 227t289.5 80h155q190 0 286.5 -78t96.5 -211v-157q0 -178 -180 -234q221 -58 221 -276v-171 q0 -146 -105 -226t-311 -80h-171q-412 0 -412 321z" />
<glyph unicode="4" horiz-adv-x="1269" d="M69 366v128l705 899h195v-919h213v-108h-213v-366h-131v366h-769zM198 474h640v773h-33z" />
<glyph unicode="5" horiz-adv-x="1239" d="M108 327h122q0 -240 299 -240h154q298 0 298 240v168q0 122 -73 188.5t-225 66.5h-175q-98 0 -240 -71l-124 9l58 706h851v-104h-733l-44 -502q144 64 245 63h174q204 0 310 -94.5t106 -253.5v-191q0 -158 -105 -245t-311 -87h-175q-210 0 -311 90t-101 257z" />
<glyph unicode="6" horiz-adv-x="1271" d="M139 441v483q0 252 98.5 370.5t313.5 118.5h150q170 0 274.5 -76.5t109.5 -227.5h-118q0 100 -75 151t-198 51h-133q-154 0 -222.5 -88t-68.5 -289v-210l42 21q158 78 270 78h154q218 0 316.5 -98t98.5 -284q0 -248 -98.5 -354.5t-310.5 -106.5h-191q-212 0 -312 107 t-100 354zM270 440q0 -199 68 -278t223 -79h172q154 0 221 79t67 278q0 143 -68 212.5t-225 69.5h-154q-99 0 -250 -78l-54 -27v-177z" />
<glyph unicode="7" horiz-adv-x="1105" d="M69 1287v109h981v-109l-685 -1286h-145l684 1286h-835z" />
<glyph unicode="8" horiz-adv-x="1296" d="M139 286v169q0 106 56.5 177.5t172.5 101.5q-188 55 -188 234v156q0 133 97 211t288 78h168q190 0 286.5 -78t96.5 -211v-156q0 -179 -186 -234q228 -60 228 -279v-169q0 -146 -105 -226t-311 -80h-185q-206 0 -312 80t-106 226zM270 300q0 -217 298 -217h163 q296 0 296 217v154q0 230 -296 230h-163q-298 0 -298 -230v-154zM311 973q0 -188 265 -188h146q263 0 263 188v138q0 199 -263 199h-146q-265 0 -265 -199v-138z" />
<glyph unicode="9" horiz-adv-x="1271" d="M121 951q0 248 98 355t310 107h192q212 0 312 -107.5t100 -354.5v-483q0 -252 -98.5 -370t-313.5 -118h-151q-170 0 -274.5 76t-109.5 227h119q0 -100 75 -150.5t198 -50.5h132q155 0 223.5 87.5t68.5 288.5v211l-42 -21q-158 -78 -271 -78h-154q-218 0 -316 97.5 t-98 283.5zM250 953q0 -143 68 -212.5t226 -69.5h154q99 0 250 78l54 27v177q0 199 -68 278t-223 79h-173q-154 0 -221 -79t-67 -278z" />
<glyph unicode=":" horiz-adv-x="319" d="M92 0v201h135v-201h-135zM92 923v201h135v-201h-135z" />
<glyph unicode=";" horiz-adv-x="382" d="M56 -242l100 242v201h135v-195l-121 -248h-114zM156 923v201h135v-201h-135z" />
<glyph unicode="&#x3c;" horiz-adv-x="1124" d="M92 623v115l939 448v-113l-827 -393l827 -392v-113z" />
<glyph unicode="=" horiz-adv-x="1171" d="M92 352v94h988v-94h-988zM92 744v94h988v-94h-988z" />
<glyph unicode="&#x3e;" horiz-adv-x="1124" d="M92 175v113l827 392l-827 393v113l939 -448v-115z" />
<glyph unicode="?" horiz-adv-x="1130" d="M90 1109q0 65 10.5 114t41 94.5t82.5 74t137.5 45.5t203.5 17q114 0 198 -16.5t136 -44t83.5 -71t43 -90.5t11.5 -109v-80q0 -49 -14.5 -87t-39 -64t-64 -48t-82 -38.5t-99.5 -36.5q-27 -9 -41 -14q-31 -11 -46 -16.5t-44.5 -19.5t-46 -25.5t-38.5 -31.5t-33.5 -42 t-20.5 -52.5t-9 -65.5v-84h-131v86q0 47 12.5 87.5t28 69t44.5 55t49 41t56 31.5t51 22.5t47 16.5q21 8 59.5 21t55 19t45.5 17t40.5 18.5t31 19.5t27 23t16.5 27t12 34t3 40v70q0 48 -8 83t-30 66t-60 50t-99.5 29.5t-146.5 10.5q-88 0 -150.5 -10.5t-101.5 -29.5 t-61 -50.5t-30 -67.5t-8 -88h-121zM326 1v201h135v-201h-135z" />
<glyph unicode="@" horiz-adv-x="1421" d="M92 341v520q-2 308 118 450t384 142l237 1q259 0 378.5 -142t119.5 -450v-274q0 -170 -101 -247t-316 -85v67q-144 -80 -235 -80h-72q-121 0 -173 58t-54 189v279q2 130 57.5 189t177.5 59h85q61 0 132.5 -28t173.5 -87v-563q121 20 176 78t55 171v274q0 275 -94.5 392.5 t-309.5 117.5h-237q-220 0 -314.5 -117t-92.5 -393v-520q0 -138 23 -229.5t74.5 -146.5t125.5 -78t184 -23h237q64 0 109 8l16 -82q-51 -8 -125 -8h-237q-173 0 -281 53t-164.5 177t-56.5 328zM472 501q2 -101 39 -142.5t129 -41.5h62q77 0 208 75v477q-131 75 -208 75h-62 q-92 0 -129 -41.5t-39 -142.5v-259z" />
<glyph unicode="A" horiz-adv-x="1382" d="M87 0l429 1434h350l429 -1434h-144l-118 403h-684l-118 -403h-144zM377 511h628l-240 814h-148z" />
<glyph unicode="B" horiz-adv-x="1355" d="M195 0v1434h553q213 0 313.5 -73.5t100.5 -233.5v-92q0 -110 -46.5 -176.5t-143.5 -96.5q124 -25 182 -102.5t58 -217.5v-105q0 -175 -99 -255t-314 -82h-604zM326 110h464q155 0 223 59t68 192v93q0 134 -67.5 193t-223.5 59h-464v-596zM326 796h410q158 0 226 52.5 t68 170.5v82q0 119 -68 171.5t-226 52.5h-410v-529z" />
<glyph unicode="C" horiz-adv-x="1388" d="M159 488v457q0 262 112 385t353 123h174q211 0 322 -94.5t134 -293.5l-131 -8q-19 152 -99.5 220t-236.5 68h-152q-182 0 -263.5 -93.5t-81.5 -307.5v-456q0 -214 81.5 -307.5t263.5 -93.5h152q156 0 236.5 68t99.5 220l131 -8q-23 -199 -134 -293t-322 -94h-174 q-241 0 -353 123t-112 385z" />
<glyph unicode="D" horiz-adv-x="1398" d="M195 0v1434h583q240 0 351.5 -123.5t111.5 -385.5v-445q0 -258 -112 -369t-351 -111h-583zM326 107h441q183 0 263 84t80 293v441q0 213 -81 307t-262 94h-441v-1219z" />
<glyph unicode="E" d="M195 0v1434h889v-109h-758v-531h719v-109h-719v-576h770v-109h-901z" />
<glyph unicode="F" horiz-adv-x="1173" d="M195 0v1434h866v-109h-735v-546h684v-109h-684v-670h-131z" />
<glyph unicode="G" horiz-adv-x="1449" d="M159 461v484q0 262 112 385t353 123h184q214 0 325 -97.5t132 -303.5l-131 -8q-17 159 -97.5 230t-239.5 71h-162q-182 0 -263.5 -93.5t-81.5 -307.5v-480q0 -209 81 -292.5t264 -83.5h174q183 0 263 83.5t80 292.5v156h-390v90l513 8v-257q0 -258 -112 -369.5 t-351 -111.5h-188q-239 0 -352 111.5t-113 369.5z" />
<glyph unicode="H" horiz-adv-x="1464" d="M195 0v1434h131v-663h812v663h131v-1434h-131v662h-812v-662h-131z" />
<glyph unicode="I" horiz-adv-x="458" d="M164 0v1434h131v-1434h-131z" />
<glyph unicode="J" horiz-adv-x="675" d="M-8 -63h75q151 0 217 81t66 285v1131h131v-1110q0 -258 -97.5 -370t-307.5 -112h-80z" />
<glyph unicode="K" horiz-adv-x="1292" d="M195 0v1434h131v-668h229l465 668h155l-499 -708l528 -726h-153l-482 656h-243v-656h-131z" />
<glyph unicode="L" horiz-adv-x="1124" d="M195 0v1434h131v-1325h711v-109h-842z" />
<glyph unicode="M" horiz-adv-x="1779" d="M185 0v1434h304l396 -1261l397 1261h304v-1434h-131v1325h-92l-414 -1325h-128l-413 1325h-92v-1325h-131z" />
<glyph unicode="N" horiz-adv-x="1421" d="M185 0v1434h267l591 -1325h62v1325h131v-1434h-268l-592 1325h-60v-1325h-131z" />
<glyph unicode="O" horiz-adv-x="1456" d="M159 461v484q0 262 112 385t353 123h209q240 0 351.5 -123t111.5 -385v-484q0 -258 -112 -369.5t-351 -111.5h-209q-239 0 -352 111.5t-113 369.5zM290 464q0 -209 81 -292.5t264 -83.5h187q183 0 263 83.5t80 292.5v480q0 213 -81 307t-262 94h-187q-182 0 -263.5 -93.5 t-81.5 -307.5v-480z" />
<glyph unicode="P" horiz-adv-x="1335" d="M195 0v1434h595q213 0 313.5 -86t100.5 -264v-128q0 -177 -100.5 -262.5t-313.5 -85.5h-464v-608h-131zM326 717h453q157 0 225.5 59t68.5 194v100q0 135 -68.5 195t-225.5 60h-453v-608z" />
<glyph unicode="Q" horiz-adv-x="1456" d="M159 461v484q0 262 112 385t353 123h209q240 0 351.5 -123t111.5 -385v-484q0 -167 -45.5 -269t-139.5 -151l134 -221l-99 -55l-152 237q-61 -22 -161 -22h-209q-239 0 -352 111.5t-113 369.5zM290 464q0 -209 81 -292.5t264 -83.5h187q183 0 263 83.5t80 292.5v480 q0 214 -81 308t-262 94h-187q-182 0 -263.5 -94t-81.5 -308v-480z" />
<glyph unicode="R" horiz-adv-x="1376" d="M195 0v1434h595q212 0 313 -82.5t101 -252.5v-129q0 -151 -79 -229t-250 -91l351 -650h-145l-334 637h-421v-637h-131zM326 746h453q158 0 226 56t68 183v99q0 128 -68 184.5t-226 56.5h-453v-579z" />
<glyph unicode="S" horiz-adv-x="1290" d="M113 324l126 5q0 -123 88.5 -180t308.5 -57q149 0 240 28t126.5 75t35.5 118v107q0 60 -15.5 101t-43.5 68t-81.5 44.5t-113 26.5t-155.5 18q-90 8 -153.5 17.5t-121.5 25t-95.5 36.5t-66 51.5t-41.5 72t-15 96.5v145q0 65 12.5 113.5t45 91t87 69.5t141.5 42.5t206 15.5 q121 0 209 -14.5t144 -41t88.5 -68.5t45 -90.5t12.5 -114.5l-130 -7q0 59 -14.5 98t-53.5 70t-113 45.5t-187 14.5q-89 0 -153.5 -10.5t-104.5 -28.5t-63 -47.5t-31.5 -62.5t-8.5 -79v-111q4 -105 82.5 -144t305.5 -60q90 -8 152 -17.5t124.5 -26.5t102.5 -42t72.5 -62.5 t47 -91t14.5 -123.5v-138q0 -160 -125 -239t-409 -79q-281 0 -401.5 79t-120.5 261z" />
<glyph unicode="T" horiz-adv-x="1234" d="M90 1325v109h1055v-109h-462v-1325h-131v1325h-462z" />
<glyph unicode="U" horiz-adv-x="1378" d="M164 460v974h131v-974q0 -207 74 -289.5t241 -82.5h171q167 0 240 82.5t73 289.5v974h131v-974q0 -258 -104.5 -369t-328.5 -111h-193q-224 0 -329.5 111.5t-105.5 368.5z" />
<glyph unicode="V" horiz-adv-x="1376" d="M87 1434h139l397 -1316h130l397 1316h139l-431 -1434h-339z" />
<glyph unicode="W" horiz-adv-x="1949" d="M90 1434h138l291 -1325h108l262 1325h171l261 -1325h108l292 1325h138l-312 -1434h-327l-242 1207h-7l-242 -1207h-327z" />
<glyph unicode="X" horiz-adv-x="1363" d="M87 0l496 735l-464 699h160l404 -607l401 607h160l-464 -704l496 -730h-155l-441 649l-438 -649h-155z" />
<glyph unicode="Y" horiz-adv-x="1343" d="M87 1434h147l437 -751l438 750h147l-519 -895v-538h-131v538z" />
<glyph unicode="Z" horiz-adv-x="1267" d="M113 0v109l858 1216h-827v109h995v-109l-858 -1216h872v-109h-1040z" />
<glyph unicode="[" horiz-adv-x="591" d="M92 -276v1755h439v-94h-310v-1567h310v-94h-439z" />
<glyph unicode="\" horiz-adv-x="684" d="M56 1475h108l464 -1516h-108z" />
<glyph unicode="]" horiz-adv-x="591" d="M61 -182h311v1567h-311v94h439v-1755h-439v94z" />
<glyph unicode="^" horiz-adv-x="1050" d="M92 783l359 651h148l359 -651h-141l-292 527l-292 -527h-141z" />
<glyph unicode="_" horiz-adv-x="1224" d="M92 -217h1041v-88h-1041v88z" />
<glyph unicode="`" horiz-adv-x="423" d="M92 1483h123l117 -284h-95z" />
<glyph unicode="a" horiz-adv-x="1204" d="M126 321q4 199 80 285t259 86h214q179 0 246 -48v126q0 157 -56 211.5t-205 54.5h-100q-139 0 -195.5 -45t-64.5 -169l-115 6q7 165 93 231.5t276 66.5h116q206 0 290.5 -78t84.5 -278v-770h-122v106q-224 -126 -369 -126h-126q-144 0 -225 79t-81 262zM251 330 q0 -140 61 -199.5t172 -59.5h119q119 0 322 115v380q-47 47 -202 47h-212q-142 0 -199.5 -64.5t-60.5 -218.5z" />
<glyph unicode="b" horiz-adv-x="1214" d="M172 0v1536h125v-532q219 122 356 122h110q178 0 253 -84.5t79 -279.5v-418q-4 -195 -79 -280t-253 -85h-109q-137 0 -361 126v-105h-121zM297 193q202 -115 320 -115h93q141 0 199.5 64t60.5 217v390q-2 153 -60.5 217.5t-199.5 64.5h-93q-118 0 -320 -115v-723z" />
<glyph unicode="c" horiz-adv-x="1155" d="M121 375v356q0 203 95 299t300 96h146q178 0 271 -75t111 -232l-112 -8q-15 118 -81 171t-196 53h-127q-150 0 -216.5 -71t-66.5 -233v-356q0 -162 66.5 -233t216.5 -71h127q130 0 196 53t81 171l112 -8q-18 -157 -111 -232t-271 -75h-146q-205 0 -300 96t-95 299z" />
<glyph unicode="d" horiz-adv-x="1214" d="M121 344v418q4 195 79 279.5t253 84.5h109q137 0 356 -122v532h125v-1536h-122v105q-220 -125 -360 -125h-108q-178 0 -253 84.5t-79 279.5zM246 359q2 -153 60 -217t199 -64h93q118 0 320 115v723q-202 115 -320 115h-93q-141 0 -199 -64.5t-60 -217.5v-390z" />
<glyph unicode="e" horiz-adv-x="1167" d="M121 371v377q0 200 95.5 289t300.5 89h147q205 0 299 -89t94 -289v-234h-812v-143q0 -162 66.5 -232t216.5 -70h132q128 0 194 51.5t82 165.5l114 -8q-20 -154 -114.5 -226t-271.5 -72h-146q-203 0 -300 94.5t-97 296.5zM245 589h696v162q0 159 -65.5 223t-215.5 64h-132 q-150 0 -216.5 -64.5t-66.5 -222.5v-162z" />
<glyph unicode="f" horiz-adv-x="716" d="M77 1013v93h156v83q0 131 29 206.5t99 110.5q76 38 217 38q19 0 63 -2l-4 -89h-23q-112 0 -167 -27q-50 -26 -69.5 -81t-19.5 -156v-83h277v-93h-277v-1013h-125v1013h-156z" />
<glyph unicode="g" horiz-adv-x="1226" d="M131 365v397q4 195 79 279.5t253 84.5h109q137 0 358 -122v117h121v-1146q0 -200 -84.5 -277t-290.5 -77h-116q-190 0 -276 66.5t-93 230.5l115 6q8 -124 65 -169.5t195 -45.5h100q149 0 205 55t56 211v148q-216 -123 -356 -123h-108q-178 0 -253 85t-79 280zM256 380 q2 -153 60.5 -217.5t199.5 -64.5h92q120 0 318 114v705q-198 114 -318 114h-92q-141 0 -199.5 -64.5t-60.5 -217.5v-369z" />
<glyph unicode="h" horiz-adv-x="1255" d="M182 0v1536h125v-533q220 123 361 123h100q180 0 255.5 -84.5t79.5 -279.5v-762h-125v748q-3 153 -60.5 217t-198.5 64h-93q-119 0 -319 -114v-915h-125z" />
<glyph unicode="i" horiz-adv-x="485" d="M182 1269v165h131v-165h-131zM185 0v1106h125v-1106h-125z" />
<glyph unicode="j" horiz-adv-x="507" d="M-33 -383l4 78q143 3 190 63q46 57 46 226v1122h125v-1122q0 -112 -18 -182.5t-61 -112.5q-73 -72 -257 -72h-29zM204 1269v164h131v-164h-131z" />
<glyph unicode="k" horiz-adv-x="1126" d="M182 0v1536h125v-886h234l347 456h143l-382 -499l426 -607h-137l-392 558h-239v-558h-125z" />
<glyph unicode="l" horiz-adv-x="460" d="M182 0v1536h125v-1536h-125z" />
<glyph unicode="m" horiz-adv-x="1857" d="M172 0v1106h122v-100q191 120 318 120h89q193 0 256 -127q219 127 358 127h90q161 0 228.5 -84.5t70.5 -279.5v-762h-125v748q-2 153 -52.5 217t-173.5 64h-81q-111 0 -295 -105q22 -65 24 -168v-756h-125v748q-2 153 -52.5 217t-173.5 64h-82q-103 0 -271 -109v-920 h-125z" />
<glyph unicode="n" horiz-adv-x="1245" d="M172 0v1106h122v-104q220 124 363 124h101q180 0 255 -84.5t79 -279.5v-762h-125v748q-3 153 -60.5 217t-198.5 64h-92q-119 0 -319 -114v-915h-125z" />
<glyph unicode="o" d="M121 354v376q0 203 95 299t301 96h176q205 0 300 -96t95 -299v-376q0 -200 -96 -287t-299 -87h-176q-204 0 -300 87t-96 287zM245 357q0 -158 66 -221.5t217 -63.5h154q150 0 216 63.5t66 221.5v373q0 162 -66.5 233t-215.5 71h-154q-150 0 -216.5 -71t-66.5 -233v-373z " />
<glyph unicode="p" horiz-adv-x="1224" d="M182 -369v1475h122v-105q220 125 360 125h109q178 0 253 -84.5t79 -279.5v-418q-4 -195 -79 -280t-253 -85h-110q-135 0 -356 123v-471h-125zM307 190q202 -115 320 -115h93q141 0 199.5 64.5t60.5 217.5v389q-2 153 -60.5 217.5t-199.5 64.5h-93q-118 0 -320 -115v-723z " />
<glyph unicode="q" horiz-adv-x="1214" d="M121 344v418q4 195 79 279.5t253 84.5h108q139 0 361 -125v105h121v-1475h-125v471q-219 -122 -356 -122h-109q-178 0 -253 84.5t-79 279.5zM246 357q2 -153 60 -217.5t199 -64.5h93q118 0 320 115v723q-202 115 -320 115h-93q-141 0 -199 -64.5t-60 -217.5v-389z" />
<glyph unicode="r" horiz-adv-x="770" d="M172 0v1106h122v-131q225 151 368 151h57v-105h-57q-135 0 -365 -145v-876h-125z" />
<glyph unicode="s" horiz-adv-x="1079" d="M87 248l125 5q0 -95 72 -138.5t250 -43.5q177 0 251 43t74 127v80q0 46 -12.5 77.5t-34.5 52.5t-64.5 34.5t-89.5 20.5t-122 14q-94 8 -156 17.5t-117 26t-85.5 40.5t-48.5 61t-20 88v114q0 63 17.5 107.5t62 80t128 53t208.5 17.5q128 0 212 -16.5t129.5 -51.5t63 -79 t17.5 -109l-116 -5q0 45 -12 75t-43.5 54t-92 35t-153.5 11q-91 0 -151 -11.5t-91.5 -35.5t-43 -54t-11.5 -74v-84q3 -80 67.5 -110t249.5 -45q76 -7 128.5 -14.5t106 -20.5t87 -33t61 -49.5t39.5 -71t12 -96.5v-109q0 -125 -106.5 -187t-347.5 -62q-238 0 -340.5 62 t-102.5 204z" />
<glyph unicode="t" horiz-adv-x="759" d="M72 1013v93h141v232h125v-232h313v-93h-313v-676q0 -83 11.5 -132.5t44 -79.5t82 -41t132.5 -12h43v-92q-21 -1 -42 -1q-216 0 -299 59q-53 37 -75 104t-22 175v696h-141z" />
<glyph unicode="u" horiz-adv-x="1247" d="M154 344v762h125v-748q3 -153 62.5 -217t204.5 -64h95q123 0 328 114v915h125v-1106h-122v105q-227 -125 -373 -125h-103q-184 0 -261 84.5t-81 279.5z" />
<glyph unicode="v" horiz-adv-x="1124" d="M51 1106h130l350 -1014h63l350 1014h130l-384 -1106h-255z" />
<glyph unicode="w" horiz-adv-x="1593" d="M54 1106h129l250 -1014h58l243 1014h126l243 -1014h57l251 1014h129l-275 -1106h-239l-229 895l-230 -895h-239z" />
<glyph unicode="x" horiz-adv-x="1069" d="M51 0l395 572l-366 534h141l316 -459l312 459h141l-367 -540l394 -566h-143l-342 489l-338 -489h-143z" />
<glyph unicode="y" horiz-adv-x="1124" d="M51 1106h130l350 -1014h63l350 1014h130l-511 -1475h-117l124 369h-135z" />
<glyph unicode="z" horiz-adv-x="1026" d="M72 0v92l721 922h-692v92h840v-92l-717 -922h730v-92h-882z" />
<glyph unicode="{" horiz-adv-x="591" d="M92 550v72l137 50q49 18 44 69l-32 364q-2 22 -2 32q0 115 79 206l145 169l67 -55l-115 -153q-55 -77 -55 -167q0 -9 2 -31l32 -361q3 -37 -19 -69t-65 -48l-111 -41l111 -41q42 -16 64.5 -48.5t19.5 -69.5l-32 -360q-2 -22 -2 -32q0 -91 55 -167l115 -154l-67 -55 l-145 168q-79 91 -79 207q0 11 2 33l32 363q5 51 -44 69z" />
<glyph unicode="|" horiz-adv-x="307" d="M92 -266v1802h124v-1802h-124z" />
<glyph unicode="}" horiz-adv-x="591" d="M61 1457l67 55l146 -169q79 -91 79 -206q0 -10 -2 -32l-32 -364q-5 -51 43 -69l137 -50v-72l-137 -50q-48 -18 -43 -68l32 -364q2 -22 2 -33q0 -116 -79 -207l-146 -168l-66 55l115 154q54 74 54 167q0 20 -1 31l-32 361q-3 37 19 69t65 48l111 41l-111 41q-43 16 -65 48 t-19 69l32 361q1 11 1 31q0 91 -54 167z" />
<glyph unicode="~" horiz-adv-x="1161" d="M92 511q127 231 291 231q95 0 246 -93q120 -75 179 -75q45 0 85 32t99 114l77 -43q-120 -197 -254 -197q-92 0 -231 88q-62 39 -107 59.5t-86 20.5q-55 0 -105.5 -41t-112.5 -139z" />
<glyph unicode="&#xa1;" horiz-adv-x="327" d="M96 905v201h135v-201h-135zM97 -328l12 1016h109l12 -1016h-133z" />
<glyph unicode="&#xa2;" horiz-adv-x="1155" d="M121 375v356q0 194 85 288.5t270 103.5h49v159h116v-158h55q161 -7 246 -81.5t102 -223.5l-112 -8q-15 118 -81 171t-196 53h-127q-150 0 -216.5 -71t-66.5 -233v-356q0 -162 66.5 -233t216.5 -71h127q130 0 196 53t81 171l112 -8q-17 -149 -102 -223t-246 -82h-55v-158 h-116v158h-49q-185 9 -270 104t-85 289z" />
<glyph unicode="&#xa3;" horiz-adv-x="1337" d="M123 0v109h166v578h-166v94h166v164q0 262 102.5 385.5t324.5 123.5h103q178 0 279.5 -82t130.5 -250l-121 -21q-23 128 -93.5 186t-198.5 58h-91q-161 0 -233 -92t-72 -302v-170h542v-94h-542v-578h796v-109h-1093z" />
<glyph unicode="&#xa4;" horiz-adv-x="1464" />
<glyph unicode="&#xa5;" horiz-adv-x="1343" d="M87 1434h147l437 -751l438 750h147l-349 -599h255v-93h-306l-103 -174l-9 -108h418v-93h-425v-366h-131v366h-424v93h418l-9 107l-103 175h-306v93h254z" />
<glyph unicode="&#xa6;" horiz-adv-x="309" d="M92 -266v737h124v-737h-124zM92 798v738h124v-738h-124z" />
<glyph unicode="&#xa7;" horiz-adv-x="1120" d="M90 -57l113 4q0 -109 78.5 -160t273.5 -51q196 0 277 50t81 148v95q0 53 -14 90t-38.5 61t-72.5 39.5t-100.5 23.5t-138.5 16q-96 9 -160 19.5t-119.5 29.5t-87 47t-49.5 69.5t-20 99.5v128q0 144 80 207q-76 53 -80 172v128q0 73 18.5 123.5t65 91t134 60t218.5 19.5 q107 0 185 -13t127.5 -36t78.5 -60.5t40 -80.5t11 -101l-116 -6q0 52 -12.5 86.5t-47 62t-100 40t-165.5 12.5q-98 0 -162.5 -13t-98 -40.5t-46 -62t-12.5 -85.5v-99q2 -39 13.5 -65.5t34 -46t65 -32t95 -20.5t135.5 -16q68 -6 117 -13t99.5 -18.5t85 -27t65.5 -39.5 t49.5 -55t29 -73.5t10.5 -96.5v-122q0 -115 -72 -180q72 -68 72 -205v-123q0 -142 -112 -213t-364 -71q-249 0 -356.5 71t-107.5 232zM231 549q4 -94 72.5 -129t262.5 -53q212 -20 285 -66q64 47 64 137v94q0 45 -8.5 78t-28.5 57.5t-45.5 40.5t-68.5 27.5t-88 18t-112 12.5 q-188 18 -257 48q-76 -44 -76 -165v-100z" />
<glyph unicode="&#xa8;" horiz-adv-x="645" d="M92 1282v117h117v-117h-117zM434 1282v117h117v-117h-117z" />
<glyph unicode="&#xa9;" horiz-adv-x="1658" d="M92 717q0 150 58.5 286.5t157 235t235 157t286.5 58.5t286.5 -58.5t235 -157t157 -235t58.5 -286.5t-58.5 -286.5t-157 -235t-235 -157t-286.5 -58.5t-286.5 58.5t-235 157t-157 235t-58.5 286.5zM178 717q0 -134 52 -256t139 -210t207.5 -140t252.5 -52t252.5 52 t208 140t139.5 210t52 256t-52 256t-139.5 210t-208 140t-252.5 52t-252.5 -52t-207.5 -140t-139 -210t-52 -256zM506 590v254q0 148 64 218t201 70h96q121 0 185.5 -56t75.5 -172l-85 -6q-10 88 -52 126t-129 38h-86q-99 0 -142 -50t-43 -168v-254q0 -118 43 -168.5 t142 -50.5h86q87 0 129 38t52 126l85 -6q-11 -116 -75.5 -172t-185.5 -56h-96q-137 0 -201 70.5t-64 218.5z" />
<glyph unicode="&#xaa;" horiz-adv-x="806" d="M92 916q2 132 54 190.5t175 58.5h143q113 0 161 -30v80q0 103 -36 138.5t-135 35.5h-67q-92 0 -128.5 -29.5t-41.5 -112.5l-83 4q4 112 63 157.5t187 45.5h77q138 0 195.5 -52.5t57.5 -186.5v-516h-87v69q-148 -83 -243 -83h-84q-208 0 -208 231zM182 921 q0 -92 39.5 -131t112.5 -39h79q77 0 212 76v251q-29 29 -131 29h-142q-93 0 -130.5 -42t-39.5 -144z" />
<glyph unicode="&#xab;" horiz-adv-x="997" d="M92 576l381 441l58 -58l-307 -383l307 -383l-58 -57zM467 576l381 441l58 -58l-307 -383l307 -383l-58 -57z" />
<glyph unicode="&#xac;" horiz-adv-x="1464" />
<glyph unicode="&#xad;" horiz-adv-x="768" d="M92 539v94h584v-94h-584z" />
<glyph unicode="&#xae;" horiz-adv-x="1658" d="M92 717q0 150 58.5 286.5t157 235t235 157t286.5 58.5t286.5 -58.5t235 -157t157 -235t58.5 -286.5t-58.5 -286.5t-157 -235t-235 -157t-286.5 -58.5t-286.5 58.5t-235 157t-157 235t-58.5 286.5zM178 717q0 -134 52 -256t139 -210t207.5 -140t252.5 -52t252.5 52 t208 140t139.5 210t52 256t-52 256t-139.5 210t-208 140t-252.5 52t-252.5 -52t-207.5 -140t-139 -210t-52 -256zM555 323v791h329q231 0 231 -187v-69q0 -82 -43.5 -125.5t-135.5 -51.5l194 -358h-88l-185 349h-222v-349h-80zM635 738h244q85 0 120.5 29t35.5 98v55 q0 69 -35.5 98.5t-120.5 29.5h-244v-310z" />
<glyph unicode="&#xaf;" horiz-adv-x="761" d="M92 1287v92h578v-92h-578z" />
<glyph unicode="&#xb0;" horiz-adv-x="808" d="M92 1184v108q0 232 232 230h151q116 0 179 -57.5t63 -172.5v-108q0 -115 -63 -171.5t-179 -56.5h-151q-232 0 -232 228zM170 1190q0 -88 39.5 -128.5t122.5 -40.5h136q171 0 171 169v97q0 170 -171 170h-136q-83 1 -122.5 -39.5t-39.5 -130.5v-97z" />
<glyph unicode="&#xb1;" horiz-adv-x="1171" d="M92 0v94h988v-94h-988zM92 703v94h440v404h108v-404h440v-94h-440v-403h-108v403h-440z" />
<glyph unicode="&#xb2;" horiz-adv-x="702" d="M92 728v183q0 26 5.5 47.5t12.5 37t24 30.5t28.5 23.5t38 19.5t40.5 16.5t48 16.5t50 17q123 44 140 53q37 20 41 55q1 6 1 13v34q0 57 -32 82t-128 25q-100 0 -131.5 -25.5t-30.5 -88.5h-87q0 43 9.5 74t35 58t77 41t128.5 14q141 0 195 -46t54 -129v-55 q-1 -23 -5 -40.5t-16.5 -32t-21.5 -23t-35 -20t-40.5 -17t-55 -19t-62.5 -21.5q-13 -5 -38 -13.5t-35 -12t-28.5 -10.5t-26 -11.5t-19.5 -12t-16.5 -14.5t-11 -17t-8.5 -21.5t-3 -25.5l-4 -111h426v-74h-519z" />
<glyph unicode="&#xb3;" horiz-adv-x="708" d="M92 893h86q-2 -53 30 -78.5t106 -25.5h77q72 0 104 24t32 75v74q0 106 -136 106h-120v70h115q63 0 91.5 20.5t28.5 63.5v71q0 90 -120 90h-68q-66 0 -94 -23.5t-26 -72.5h-84q-2 77 46.5 122t154.5 45h77q99 0 151.5 -42.5t52.5 -111.5v-79q0 -81 -75 -116 q96 -37 96 -139v-85q0 -76 -57 -119.5t-164 -43.5h-85q-111 0 -166 46t-53 129z" />
<glyph unicode="&#xb4;" horiz-adv-x="423" d="M92 1199l117 284h123l-145 -284h-95z" />
<glyph unicode="&#xb6;" horiz-adv-x="1196" d="M92 977v107q0 178 100.5 264t313.5 86h598v-94h-75v-1606h-124v1606h-167v-1606h-123v895h-128q-395 0 -395 348z" />
<glyph unicode="&#xb7;" horiz-adv-x="319" d="M92 518v201h135v-201h-135z" />
<glyph unicode="&#xb8;" horiz-adv-x="585" d="M92 -356h179q78 0 104 17.5t26 86.5t-25.5 85.5t-104.5 16.5h-86l48 164h68l-28 -96h14q52 -1 83.5 -6t63 -21.5t46 -51.5t14.5 -91q0 -47 -12 -80t-29 -50.5t-48.5 -27.5t-58.5 -12t-70 -2h-184v68z" />
<glyph unicode="&#xb9;" horiz-adv-x="417" d="M92 1354l171 80h63v-715h-91v624l-117 -55z" />
<glyph unicode="&#xba;" horiz-adv-x="835" d="M92 937v251q0 136 65 201t203 65h117q137 0 201.5 -65t64.5 -201v-251q0 -134 -65 -192.5t-201 -58.5h-117q-137 0 -202.5 58.5t-65.5 192.5zM181 939q0 -105 43.5 -146t142.5 -41h103q99 0 141.5 41t42.5 146v249q0 107 -43 153.5t-141 46.5h-103q-99 0 -142.5 -46.5 t-43.5 -153.5v-249z" />
<glyph unicode="&#xbb;" horiz-adv-x="997" d="M92 193l307 383l-307 383l58 58l381 -441l-381 -440zM467 193l308 383l-308 383l58 58l381 -441l-381 -440z" />
<glyph unicode="&#xbc;" horiz-adv-x="1406" d="M103 -35l1031 1503h111l-1031 -1503h-111zM151 1354l170 80h63v-715h-90v624l-117 -55zM733 183v76l358 457h117v-459h107v-74h-107v-183h-88v183h-387zM832 257h288v362h-8z" />
<glyph unicode="&#xbd;" horiz-adv-x="1441" d="M103 -35l1031 1503h111l-1031 -1503h-111zM150 1354l171 80h63v-715h-91v624l-117 -55zM832 0v183q0 26 5.5 47.5t12.5 37t24 30.5t28 23.5t37.5 19.5t40.5 16t48.5 17t49.5 17q123 44 140 53q37 20 41 55q1 6 1 13v35q0 57 -31.5 81.5t-127.5 24.5q-100 0 -132 -25.5 t-31 -88.5h-87q0 43 9.5 74t35 58t77 41t128.5 14q141 0 195 -46t54 -129v-54q-1 -20 -5.5 -36.5t-9.5 -28.5t-19 -23t-23.5 -18t-34 -17t-39 -15t-49 -17t-55.5 -19q-13 -5 -38 -13.5t-35 -12t-28.5 -10.5t-26 -11.5t-19.5 -12t-16.5 -14.5t-11 -17t-8.5 -21.5t-3 -25.5 l-4 -111h425v-74h-518z" />
<glyph unicode="&#xbe;" horiz-adv-x="1554" d="M92 891h86q-2 -53 30 -78.5t106 -25.5h77q72 0 104 24t32 75v74q0 106 -136 106h-120v70h115q63 0 91.5 20.5t28.5 63.5v71q0 90 -120 90h-68q-66 0 -94 -23.5t-26 -72.5h-84q-2 77 46.5 122t154.5 45h77q99 0 151.5 -42.5t52.5 -111.5v-79q0 -81 -75 -116 q96 -37 96 -139v-85q0 -76 -57 -119.5t-164 -43.5h-85q-111 0 -166 46t-53 129zM249 -35l1031 1503h111l-1030 -1503h-112zM880 183v76l358 457h117v-459h106v-74h-106v-183h-88v183h-387zM978 257h289v362h-8z" />
<glyph unicode="&#xbf;" horiz-adv-x="1130" d="M92 -16v80q0 61 17.5 102.5t69.5 74.5t85.5 47.5t124.5 46.5q9 4 14.5 6t14 4.5t15.5 5.5q43 15 65 24t60.5 31.5t58.5 46t36.5 63t16.5 88.5v85h131v-89q-1 -46 -13 -86.5t-27.5 -68.5t-44.5 -54.5t-49 -40.5t-56 -31t-50.5 -22t-46.5 -17q-20 -7 -59.5 -20.5 t-55.5 -19.5t-45.5 -17.5t-41 -18.5t-31 -19.5t-26.5 -23.5t-16.5 -27t-12.5 -34t-3 -40v-70q0 -61 13.5 -102t50 -73.5t106 -47.5t175.5 -15q88 0 150.5 10.5t101.5 29t61 50t30 67.5t8 87h121q0 -65 -10.5 -113.5t-41 -94t-82.5 -74t-137.5 -45.5t-203.5 -17 q-114 0 -198 16t-136.5 44t-84 71.5t-43 91t-11.5 109.5zM668 905v201h135v-201h-135z" />
<glyph unicode="&#xc0;" horiz-adv-x="1382" d="M87 0l429 1434h350l429 -1434h-144l-118 403h-684l-118 -403h-144zM377 511h628l-240 814h-148zM571 1811h122l117 -285h-95z" />
<glyph unicode="&#xc1;" horiz-adv-x="1382" d="M87 0l429 1434h350l429 -1434h-144l-118 403h-684l-118 -403h-144zM377 511h628l-240 814h-148zM571 1526l117 285h122l-144 -285h-95z" />
<glyph unicode="&#xc2;" horiz-adv-x="1382" d="M87 0l429 1434h350l429 -1434h-144l-118 403h-684l-118 -403h-144zM377 511h628l-240 814h-148zM450 1526l170 285h141l170 -285h-95l-145 223l-146 -223h-95z" />
<glyph unicode="&#xc3;" horiz-adv-x="1382" d="M87 0l429 1434h350l429 -1434h-144l-118 403h-684l-118 -403h-144zM376 1639q80 151 188 151q63 0 155 -58q71 -45 107 -45q29 0 52.5 19.5t61.5 71.5l65 -37q-79 -136 -174 -136q-63 0 -149 56q-72 47 -112 47q-32 0 -59.5 -22.5t-66.5 -84.5zM377 511h628l-240 814 h-148z" />
<glyph unicode="&#xc4;" horiz-adv-x="1382" d="M87 0l429 1434h350l429 -1434h-144l-118 403h-684l-118 -403h-144zM377 511h628l-240 814h-148zM461 1610v116h117v-116h-117zM803 1610v116h117v-116h-117z" />
<glyph unicode="&#xc5;" horiz-adv-x="1382" d="M87 0l429 1434h350l429 -1434h-144l-118 403h-684l-118 -403h-144zM377 511h628l-240 814h-148zM467 1729v69q0 79 42 119.5t122 39.5l112 -1q80 0 125.5 -40t45.5 -118v-69q0 -77 -45.5 -117t-125.5 -40h-112q-80 0 -122 40t-42 117zM548 1734q0 -51 21.5 -73.5 t68.5 -22.5h98q97 0 97 96v59q0 97 -97 97h-98q-47 0 -68.5 -22.5t-21.5 -74.5v-59z" />
<glyph unicode="&#xc6;" horiz-adv-x="1701" d="M87 0l429 1434h1060v-109h-758v-531h719v-109h-719v-576h770v-109h-901v403h-338l-118 -403h-144zM377 511h310v814h-70z" />
<glyph unicode="&#xc7;" horiz-adv-x="1388" d="M159 488v457q0 262 112 385t353 123h174q211 0 322 -94.5t134 -293.5l-131 -8q-19 152 -99.5 220t-236.5 68h-152q-182 0 -263.5 -93.5t-81.5 -307.5v-456q0 -214 81.5 -307.5t263.5 -93.5h152q156 0 236.5 68t99.5 220l131 -8q-23 -199 -134 -293t-322 -94h-110l-17 -62 h14q52 -1 83.5 -6t63 -21.5t46 -51.5t14.5 -91q0 -47 -12 -80t-29.5 -50.5t-49 -27.5t-58 -12t-69.5 -2h-184v68h178q78 0 104 17.5t26 86.5t-25.5 85.5t-104.5 16.5h-86l39 130q-240 1 -351 124t-111 384z" />
<glyph unicode="&#xc8;" d="M195 0v1434h889v-109h-758v-531h719v-109h-719v-576h770v-109h-901zM490 1811h123l117 -285h-95z" />
<glyph unicode="&#xc9;" d="M195 0v1434h889v-109h-758v-531h719v-109h-719v-576h770v-109h-901zM490 1526l117 285h123l-145 -285h-95z" />
<glyph unicode="&#xca;" d="M195 0v1434h889v-109h-758v-531h719v-109h-719v-576h770v-109h-901zM370 1526l169 285h142l169 -285h-94l-146 223l-145 -223h-95z" />
<glyph unicode="&#xcb;" d="M195 0v1434h889v-109h-758v-531h719v-109h-719v-576h770v-109h-901zM381 1610v116h116v-116h-116zM723 1610v116h116v-116h-116z" />
<glyph unicode="&#xcc;" horiz-adv-x="458" d="M110 1811h122l117 -285h-95zM164 0v1434h131v-1434h-131z" />
<glyph unicode="&#xcd;" horiz-adv-x="458" d="M110 1526l117 285h122l-144 -285h-95zM164 0v1434h131v-1434h-131z" />
<glyph unicode="&#xce;" horiz-adv-x="458" d="M-10 1526l169 285h141l170 -285h-95l-145 223l-146 -223h-94zM164 0v1434h131v-1434h-131z" />
<glyph unicode="&#xcf;" horiz-adv-x="458" d="M1 1610v116h116v-116h-116zM164 0v1434h131v-1434h-131zM342 1610v116h117v-116h-117z" />
<glyph unicode="&#xd0;" horiz-adv-x="1423" d="M90 670v94h130v670h582q240 0 351.5 -123.5t111.5 -385.5v-445q0 -258 -112 -369t-351 -111h-582v670h-130zM351 107h440q183 0 263 84t80 293v441q0 213 -81 307t-262 94h-440v-562h322v-94h-322v-563z" />
<glyph unicode="&#xd1;" horiz-adv-x="1421" d="M185 0v1434h267l591 -1325h62v1325h131v-1434h-268l-592 1325h-60v-1325h-131zM392 1639q80 151 188 151q63 0 155 -58q71 -45 107 -45q29 0 53.5 19.5t61.5 71.5l64 -37q-79 -136 -174 -136q-63 0 -149 56q-72 47 -112 47q-32 0 -59.5 -22.5t-66.5 -84.5z" />
<glyph unicode="&#xd2;" horiz-adv-x="1456" d="M159 461v484q0 262 112 385t353 123h209q240 0 351.5 -123t111.5 -385v-484q0 -258 -112 -369.5t-351 -111.5h-209q-239 0 -352 111.5t-113 369.5zM290 464q0 -209 81 -292.5t264 -83.5h187q183 0 263 83.5t80 292.5v480q0 213 -81 307t-262 94h-187q-182 0 -263.5 -93.5 t-81.5 -307.5v-480zM608 1811h123l116 -285h-94z" />
<glyph unicode="&#xd3;" horiz-adv-x="1456" d="M159 461v484q0 262 112 385t353 123h209q240 0 351.5 -123t111.5 -385v-484q0 -258 -112 -369.5t-351 -111.5h-209q-239 0 -352 111.5t-113 369.5zM290 464q0 -209 81 -292.5t264 -83.5h187q183 0 263 83.5t80 292.5v480q0 213 -81 307t-262 94h-187q-182 0 -263.5 -93.5 t-81.5 -307.5v-480zM608 1526l117 285h122l-144 -285h-95z" />
<glyph unicode="&#xd4;" horiz-adv-x="1456" d="M159 461v484q0 262 112 385t353 123h209q240 0 351.5 -123t111.5 -385v-484q0 -258 -112 -369.5t-351 -111.5h-209q-239 0 -352 111.5t-113 369.5zM290 464q0 -209 81 -292.5t264 -83.5h187q183 0 263 83.5t80 292.5v480q0 213 -81 307t-262 94h-187q-182 0 -263.5 -93.5 t-81.5 -307.5v-480zM488 1526l169 285h141l170 -285h-95l-145 223l-146 -223h-94z" />
<glyph unicode="&#xd5;" horiz-adv-x="1456" d="M159 461v484q0 262 112 385t353 123h209q240 0 351.5 -123t111.5 -385v-484q0 -258 -112 -370t-351 -112h-209q-239 0 -352 112t-113 370zM290 464q0 -209 81 -292.5t264 -83.5h187q183 0 263 83.5t80 292.5v480q0 213 -81 307t-262 94h-187q-182 0 -263.5 -93.5 t-81.5 -307.5v-480zM413 1639q80 151 188 151q63 0 155 -58q71 -45 107 -45q29 0 53.5 19.5t61.5 71.5l64 -37q-79 -136 -174 -136q-63 0 -149 56q-72 47 -112 47q-32 0 -59.5 -22.5t-66.5 -84.5z" />
<glyph unicode="&#xd6;" horiz-adv-x="1456" d="M159 461v484q0 262 112 385t353 123h209q240 0 351.5 -123t111.5 -385v-484q0 -258 -112 -369.5t-351 -111.5h-209q-239 0 -352 111.5t-113 369.5zM290 464q0 -209 81 -292.5t264 -83.5h187q183 0 263 83.5t80 292.5v480q0 213 -81 307t-262 94h-187q-182 0 -263.5 -93.5 t-81.5 -307.5v-480zM498 1610v116h117v-116h-117zM840 1610v116h117v-116h-117z" />
<glyph unicode="&#xd7;" horiz-adv-x="948" d="M92 243l311 311l-303 303l76 77l304 -303l310 310l67 -66l-311 -311l303 -303l-76 -77l-304 303l-310 -310z" />
<glyph unicode="&#xd8;" horiz-adv-x="1456" d="M159 461v484q0 262 112 385t353 123h209q44 0 65 -2l27 85h107l-31 -101q151 -38 223 -158.5t72 -331.5v-484q0 -258 -112 -369.5t-351 -111.5h-209q-46 0 -68 2l-25 -84h-108l30 99q-150 34 -222 145.5t-72 318.5zM290 464q0 -160 47 -245t149 -114l380 1239l-44 1h-187 q-182 0 -263.5 -93.5t-81.5 -307.5v-480zM589 89l46 -1h187q183 0 263 83.5t80 292.5v480q0 166 -47.5 258t-149.5 124z" />
<glyph unicode="&#xd9;" horiz-adv-x="1378" d="M164 460v974h131v-974q0 -207 74 -289.5t241 -82.5h171q167 0 240 82.5t73 289.5v974h131v-974q0 -258 -104.5 -369t-328.5 -111h-193q-224 0 -329.5 111.5t-105.5 368.5zM570 1811h122l117 -285h-95z" />
<glyph unicode="&#xda;" horiz-adv-x="1378" d="M164 460v974h131v-974q0 -207 74 -289.5t241 -82.5h171q167 0 240 82.5t73 289.5v974h131v-974q0 -258 -104.5 -369t-328.5 -111h-193q-224 0 -329.5 111.5t-105.5 368.5zM570 1526l117 285h122l-144 -285h-95z" />
<glyph unicode="&#xdb;" horiz-adv-x="1378" d="M164 460v974h131v-974q0 -207 74 -289.5t241 -82.5h171q167 0 240 82.5t73 289.5v974h131v-974q0 -258 -104.5 -369t-328.5 -111h-193q-224 0 -329.5 111.5t-105.5 368.5zM450 1526l169 285h141l170 -285h-95l-145 223l-146 -223h-94z" />
<glyph unicode="&#xdc;" horiz-adv-x="1378" d="M164 460v974h131v-974q0 -207 74 -289.5t241 -82.5h171q167 0 240 82.5t73 289.5v974h131v-974q0 -258 -104.5 -369t-328.5 -111h-193q-224 0 -329.5 111.5t-105.5 368.5zM460 1610v116h117v-116h-117zM802 1610v116h117v-116h-117z" />
<glyph unicode="&#xdd;" horiz-adv-x="1343" d="M87 1434h147l437 -751l438 750h147l-519 -895v-538h-131v538zM551 1526l117 285h123l-145 -285h-95z" />
<glyph unicode="&#xde;" horiz-adv-x="1335" d="M195 0v1434h131v-227h464q213 0 313.5 -86t100.5 -264v-127q0 -177 -100.5 -262.5t-313.5 -85.5h-464v-382h-131zM326 490h453q157 0 225.5 59.5t68.5 194.5v100q0 135 -68.5 194.5t-225.5 59.5h-453v-608z" />
<glyph unicode="&#xdf;" horiz-adv-x="1300" d="M195 1v1185q0 139 89.5 221t269.5 82h163q178 0 267.5 -82t89.5 -221v-165q0 -175 -151 -236q118 -28 176 -106t58 -195v-181q0 -153 -97.5 -237t-290.5 -84h-150q-125 0 -206 37l24 111q65 -37 172 -37h143q274 0 274 232v164q0 244 -274 244h-120v90h73q238 0 238 196 v154q0 207 -238 207h-140q-239 0 -239 -207v-1172h-131z" />
<glyph unicode="&#xe0;" horiz-adv-x="1204" d="M126 321q4 199 80 285t259 86h214q179 0 246 -48v126q0 157 -56 211.5t-205 54.5h-100q-139 0 -195.5 -45t-64.5 -169l-115 6q7 165 93 231.5t276 66.5h116q206 0 290.5 -78t84.5 -278v-770h-122v106q-224 -126 -369 -126h-126q-144 0 -225 79t-81 262zM251 330 q0 -140 61 -199.5t172 -59.5h119q119 0 322 115v380q-47 47 -202 47h-212q-142 0 -199.5 -64.5t-60.5 -218.5zM501 1483h122l117 -284h-94z" />
<glyph unicode="&#xe1;" horiz-adv-x="1204" d="M126 321q4 199 80 285t259 86h214q179 0 246 -48v126q0 157 -56 211.5t-205 54.5h-100q-139 0 -195.5 -45t-64.5 -169l-115 6q7 165 93 231.5t276 66.5h116q206 0 290.5 -78t84.5 -278v-770h-122v106q-224 -126 -369 -126h-126q-144 0 -225 79t-81 262zM251 330 q0 -140 61 -199.5t172 -59.5h119q119 0 322 115v380q-47 47 -202 47h-212q-142 0 -199.5 -64.5t-60.5 -218.5zM501 1199l117 284h122l-144 -284h-95z" />
<glyph unicode="&#xe2;" horiz-adv-x="1204" d="M126 321q4 199 80 285t259 86h214q179 0 246 -48v126q0 157 -56 211.5t-205 54.5h-100q-139 0 -195.5 -45t-64.5 -169l-115 6q7 165 93 231.5t276 66.5h116q206 0 290.5 -78t84.5 -278v-770h-122v106q-224 -126 -369 -126h-126q-144 0 -225 79t-81 262zM251 330 q0 -140 61 -199.5t172 -59.5h119q119 0 322 115v380q-47 47 -202 47h-212q-142 0 -199.5 -64.5t-60.5 -218.5zM381 1199l169 284h141l170 -284h-95l-145 223l-146 -223h-94z" />
<glyph unicode="&#xe3;" horiz-adv-x="1204" d="M126 321q4 199 80 285t259 86h214q179 0 246 -48v126q0 157 -56 211.5t-205 54.5h-100q-139 0 -195.5 -45t-64.5 -169l-115 6q7 165 93 231.5t276 66.5h116q206 0 290.5 -78t84.5 -278v-770h-122v106q-226 -127 -369 -127h-126q-306 0 -306 342zM251 330 q0 -140 61 -199.5t172 -59.5h119q119 0 322 115v380q-47 47 -202 47h-212q-142 0 -199.5 -64.5t-60.5 -218.5zM306 1311q80 151 188 151q63 0 155 -58q69 -44 107 -44q29 0 53.5 19.5t61.5 70.5l64 -37q-79 -136 -174 -136q-63 0 -149 56q-72 47 -112 47q-32 0 -59.5 -22.5 t-66.5 -84.5z" />
<glyph unicode="&#xe4;" horiz-adv-x="1204" d="M126 321q4 199 80 285t259 86h214q179 0 246 -48v126q0 157 -56 211.5t-205 54.5h-100q-139 0 -195.5 -45t-64.5 -169l-115 6q7 165 93 231.5t276 66.5h116q206 0 290.5 -78t84.5 -278v-770h-122v106q-224 -126 -369 -126h-126q-144 0 -225 79t-81 262zM251 330 q0 -140 61 -199.5t172 -59.5h119q119 0 322 115v380q-47 47 -202 47h-212q-142 0 -199.5 -64.5t-60.5 -218.5zM391 1282v117h117v-117h-117zM733 1282v117h117v-117h-117z" />
<glyph unicode="&#xe5;" horiz-adv-x="1204" d="M126 321q4 199 80 285t259 86h214q179 0 246 -48v126q0 157 -56 211.5t-205 54.5h-100q-139 0 -195.5 -45t-64.5 -169l-115 6q7 165 93 231.5t276 66.5h116q206 0 290.5 -78t84.5 -278v-770h-122v106q-224 -126 -369 -126h-126q-144 0 -225 79t-81 262zM251 330 q0 -140 61 -199.5t172 -59.5h119q119 0 322 115v380q-47 47 -202 47h-212q-142 0 -199.5 -64.5t-60.5 -218.5zM398 1402v68q0 79 41.5 119.5t121.5 39.5h112q80 0 125.5 -40.5t45.5 -118.5v-68q0 -77 -45.5 -117.5t-125.5 -40.5h-112q-80 0 -121.5 40.5t-41.5 117.5z M478 1407q0 -51 22 -73.5t69 -22.5h97q97 0 97 96v58q0 97 -97 97h-98q-47 0 -68.5 -22.5t-21.5 -74.5v-58z" />
<glyph unicode="&#xe6;" horiz-adv-x="2027" d="M126 321q4 199 80 285t259 86h214q179 0 246 -48v127q0 156 -55.5 210.5t-205.5 54.5h-100q-139 0 -195.5 -45t-64.5 -169l-115 6q7 165 93 231.5t276 66.5h116q154 0 235 -42t111 -147q37 100 124 144.5t233 44.5h147q205 0 298.5 -89t93.5 -289v-234h-812v-143 q0 -162 66.5 -232t216.5 -70h132q128 0 194 51.5t82 165.5l115 -8q-20 -154 -114.5 -226t-271.5 -72h-147q-250 0 -328 161v-141h-122v106q-224 -126 -369 -126h-126q-144 0 -225 79t-81 262zM251 330q0 -140 61 -199.5t172 -59.5h119q118 0 321 115v380q-47 47 -201 47 h-212q-142 0 -199.5 -64.5t-60.5 -218.5zM1104 589h697v162q0 159 -66 223t-216 64h-132q-150 0 -216.5 -64.5t-66.5 -222.5v-162z" />
<glyph unicode="&#xe7;" horiz-adv-x="1155" d="M121 375v356q0 203 95 299t300 96h146q178 0 271 -75t111 -232l-112 -8q-15 118 -81 171t-196 53h-127q-150 0 -216.5 -71t-66.5 -233v-356q0 -162 66.5 -233t216.5 -71h127q130 0 196 53t81 171l112 -8q-18 -157 -111 -232t-271 -75h-92l-18 -62h14q52 -1 83.5 -6 t63 -21.5t46 -51.5t14.5 -91q0 -47 -12 -80t-29 -50.5t-48.5 -27.5t-58.5 -12t-70 -2h-184v68h179q78 0 104 17.5t26 86.5t-25.5 86t-104.5 17h-86l38 129q-198 3 -289.5 99t-91.5 296z" />
<glyph unicode="&#xe8;" horiz-adv-x="1167" d="M121 371v377q0 200 95.5 289t300.5 89h147q205 0 299 -89t94 -289v-234h-812v-143q0 -162 66.5 -232t216.5 -70h132q128 0 194 51.5t82 165.5l114 -8q-20 -154 -114.5 -226t-271.5 -72h-147q-203 0 -299.5 94.5t-96.5 296.5zM245 589h696v162q0 159 -65.5 223t-215.5 64 h-132q-150 0 -216.5 -64.5t-66.5 -222.5v-162zM468 1483h122l117 -284h-95z" />
<glyph unicode="&#xe9;" horiz-adv-x="1167" d="M121 371v377q0 200 95.5 289t300.5 89h147q205 0 299 -89t94 -289v-234h-812v-143q0 -162 66.5 -232t216.5 -70h132q128 0 194 51.5t82 165.5l114 -8q-20 -154 -114.5 -226t-271.5 -72h-147q-203 0 -299.5 94.5t-96.5 296.5zM245 589h696v162q0 159 -65.5 223t-215.5 64 h-132q-150 0 -216.5 -64.5t-66.5 -222.5v-162zM468 1199l116 284h123l-145 -284h-94z" />
<glyph unicode="&#xea;" horiz-adv-x="1167" d="M121 371v377q0 200 95.5 289t300.5 89h147q205 0 299 -89t94 -289v-234h-812v-143q0 -162 66.5 -232t216.5 -70h132q128 0 194 51.5t82 165.5l114 -8q-20 -154 -114.5 -226t-271.5 -72h-147q-203 0 -299.5 94.5t-96.5 296.5zM245 589h696v162q0 159 -65.5 223t-215.5 64 h-132q-150 0 -216.5 -64.5t-66.5 -222.5v-162zM347 1199l170 284h141l169 -284h-94l-146 223l-145 -223h-95z" />
<glyph unicode="&#xeb;" horiz-adv-x="1167" d="M121 371v377q0 200 96 289t301 89h146q205 0 299 -89t94 -289v-234h-812v-143q0 -162 66.5 -232t216.5 -70h132q128 0 194 51.5t82 165.5l114 -8q-20 -154 -114.5 -226t-271.5 -72h-146q-203 0 -300 94.5t-97 296.5zM245 589h696v162q0 159 -65.5 223t-215.5 64h-132 q-150 0 -216.5 -64t-66.5 -223v-162zM358 1282v117h117v-117h-117zM700 1282v117h117v-117h-117z" />
<glyph unicode="&#xec;" horiz-adv-x="479" d="M124 1483h123l117 -284h-95zM182 0v1106h125v-1106h-125z" />
<glyph unicode="&#xed;" horiz-adv-x="479" d="M124 1199l117 284h123l-145 -284h-95zM182 0v1106h125v-1106h-125z" />
<glyph unicode="&#xee;" horiz-adv-x="479" d="M4 1199l169 284h142l169 -284h-95l-145 223l-145 -223h-95zM182 0v1106h125v-1106h-125z" />
<glyph unicode="&#xef;" horiz-adv-x="479" d="M15 1282v117h116v-117h-116zM182 0v1106h125v-1106h-125zM357 1282v117h116v-117h-116z" />
<glyph unicode="&#xf0;" horiz-adv-x="1243" d="M105 560q0 231 95 347.5t310 117.5h159q111 0 274 -105l45 -29v38q0 128 -74 233l-65 92l-182 -106l-34 74l168 98q-125 152 -321 152h-239v94h239q125 0 234.5 -49t187.5 -137l182 107l34 -74l-166 -98l67 -97q100 -142 100 -296v-477q0 -247 -100 -354t-312 -107h-192 q-215 0 -312.5 132.5t-97.5 443.5zM234 557q0 -181 32 -287t94.5 -149.5t165.5 -43.5h169q156 0 224.5 83t68.5 290v341l-57 38q-154 103 -249 102h-151q-158 0 -227.5 -93t-69.5 -281z" />
<glyph unicode="&#xf1;" horiz-adv-x="1245" d="M172 0v1106h122v-105q222 125 363 125h101q180 0 255 -84.5t79 -279.5v-762h-125v748q-3 153 -60.5 217t-198.5 64h-92q-119 0 -319 -114v-915h-125zM317 1311q80 151 188 151q63 0 155 -58q69 -44 107 -44q29 0 53.5 19.5t61.5 70.5l64 -37q-79 -136 -174 -136 q-63 0 -149 56q-72 47 -112 47q-32 0 -59.5 -22.5t-66.5 -84.5z" />
<glyph unicode="&#xf2;" d="M121 354v376q0 203 95 299t301 96l176 1q204 0 299.5 -96.5t95.5 -299.5v-376q0 -200 -96 -287t-299 -87h-176q-204 0 -300 87t-96 287zM245 357q0 -158 66 -221.5t217 -63.5h154q150 0 216 63.5t66 221.5v373q0 162 -66.5 233t-215.5 71h-154q-150 0 -216.5 -71 t-66.5 -233v-373zM486 1483h122l117 -284h-95z" />
<glyph unicode="&#xf3;" d="M121 354v376q0 203 95 299t301 96l176 1q204 0 299.5 -96.5t95.5 -299.5v-376q0 -200 -96 -287t-299 -87h-176q-204 0 -300 87t-96 287zM245 357q0 -158 66 -221.5t217 -63.5h154q150 0 216 63.5t66 221.5v373q0 162 -66.5 233t-215.5 71h-154q-150 0 -216.5 -71 t-66.5 -233v-373zM486 1199l116 284h123l-145 -284h-94z" />
<glyph unicode="&#xf4;" d="M121 354v376q0 203 95 299t301 96l176 1q204 0 299.5 -96.5t95.5 -299.5v-376q0 -200 -96 -287t-299 -87h-176q-204 0 -300 87t-96 287zM245 357q0 -158 66 -221.5t217 -63.5h154q150 0 216 63.5t66 221.5v373q0 162 -66.5 233t-215.5 71h-154q-150 0 -216.5 -71 t-66.5 -233v-373zM365 1199l170 284h141l169 -284h-94l-146 223l-145 -223h-95z" />
<glyph unicode="&#xf5;" d="M121 354v376q0 203 95 299t301 96h176q205 0 300 -96t95 -299v-376q0 -200 -96 -287t-299 -87h-176q-204 0 -300 87t-96 287zM245 357q0 -158 66 -221.5t217 -63.5h154q150 0 216 63.5t66 221.5v373q0 162 -66.5 233t-215.5 71h-154q-150 0 -216.5 -71t-66.5 -233v-373z M291 1311q80 151 188 151q63 0 155 -58q69 -44 107 -44q29 0 53 19t61 71l65 -37q-79 -136 -174 -136q-63 0 -149 56q-72 47 -112 47q-32 0 -59.5 -22.5t-66.5 -84.5z" />
<glyph unicode="&#xf6;" d="M121 354v376q0 203 95 299.5t301 96.5l176 -1q205 0 300 -96t95 -299v-376q0 -200 -96 -287t-299 -87h-176q-204 0 -300 87t-96 287zM245 357q0 -158 66 -221.5t217 -63.5h154q150 0 216 63.5t66 221.5v373q0 162 -66.5 233t-215.5 71h-154q-150 0 -216.5 -71t-66.5 -233 v-373zM376 1282v117h116v-117h-116zM718 1282v117h116v-117h-116z" />
<glyph unicode="&#xf7;" horiz-adv-x="1171" d="M92 528v94h988v-94h-988zM519 0v201h134v-201h-134zM519 948v201h134v-201h-134z" />
<glyph unicode="&#xf8;" d="M121 354v376q0 203 95 299t301 96h176h40l25 83h93l-29 -94q136 -28 201 -122.5t65 -261.5v-376q0 -200 -96 -287t-299 -87h-176h-42l-25 -82h-92l28 92q-135 25 -200 112.5t-65 251.5zM245 357q0 -125 40.5 -189.5t128.5 -84.5l291 950l-23 1h-154q-150 0 -216.5 -71 t-66.5 -233v-373zM504 73l24 -1h154q150 0 216 63.5t66 221.5v373q0 128 -40.5 198t-129.5 93z" />
<glyph unicode="&#xf9;" horiz-adv-x="1247" d="M154 344v762h125v-748q3 -153 62.5 -217t204.5 -64h95q123 0 328 114v915h125v-1106h-122v105q-227 -125 -373 -125h-103q-184 0 -261 84.5t-81 279.5zM505 1483h123l117 -284h-95z" />
<glyph unicode="&#xfa;" horiz-adv-x="1247" d="M154 344v762h125v-748q3 -153 62.5 -217t204.5 -64h95q123 0 328 114v915h125v-1106h-122v105q-227 -125 -373 -125h-103q-184 0 -261 84.5t-81 279.5zM505 1199l117 284h123l-145 -284h-95z" />
<glyph unicode="&#xfb;" horiz-adv-x="1247" d="M154 344v762h125v-748q3 -153 62.5 -217t204.5 -64h95q123 0 328 114v915h125v-1106h-122v105q-227 -125 -373 -125h-103q-184 0 -261 84.5t-81 279.5zM385 1199l169 284h142l169 -284h-95l-145 223l-145 -223h-95z" />
<glyph unicode="&#xfc;" horiz-adv-x="1247" d="M154 344v762h125v-748q3 -153 62.5 -217t204.5 -64h95q123 0 328 114v915h125v-1106h-122v105q-227 -125 -373 -125h-103q-184 0 -261 84.5t-81 279.5zM396 1282v117h116v-117h-116zM738 1282v117h116v-117h-116z" />
<glyph unicode="&#xfd;" horiz-adv-x="1124" d="M51 1106h130l350 -1014h63l350 1014h130l-511 -1475h-117l124 369h-135zM455 1199l117 284h122l-144 -284h-95z" />
<glyph unicode="&#xfe;" horiz-adv-x="1224" d="M182 -369v1803h125v-432q220 124 357 124h109q178 0 253 -84.5t79 -279.5v-418q-4 -195 -79 -279.5t-253 -84.5h-110q-137 0 -356 122v-471h-125zM307 190q202 -115 320 -115h93q141 0 199.5 64.5t60.5 217.5v389q-2 153 -60.5 217.5t-199.5 64.5h-93q-118 0 -320 -115 v-723z" />
<glyph unicode="&#xff;" horiz-adv-x="1124" d="M51 1106h130l350 -1014h63l350 1014h130l-511 -1475h-117l124 369h-135zM345 1282v117h117v-117h-117zM687 1282v117h117v-117h-117z" />
<glyph unicode="&#x152;" horiz-adv-x="2213" d="M159 461v484q0 262 112 385t353 123h209q144 0 233.5 -49.5t132.5 -155.5v186h889v-109h-758v-531h719v-109h-719v-576h770v-109h-901v169q-42 -100 -131.5 -144.5t-234.5 -44.5h-209q-239 0 -352 111.5t-113 369.5zM290 464q0 -209 81 -292.5t264 -83.5h187 q183 0 263 83.5t80 292.5v480q0 213 -81 307t-262 94h-187q-182 0 -263.5 -93.5t-81.5 -307.5v-480z" />
<glyph unicode="&#x153;" horiz-adv-x="2011" d="M121 354v376q0 203 95 299t301 96h176q134 0 215 -45.5t116 -143.5q33 102 115 146t223 44h147q205 0 298.5 -89t93.5 -289v-234h-812v-143q0 -162 66.5 -232t216.5 -70h132q128 0 194 51.5t82 165.5l115 -8q-20 -154 -114.5 -226t-271.5 -72h-147q-135 0 -216.5 46 t-117.5 144q-33 -101 -114.5 -145.5t-220.5 -44.5h-176q-204 0 -300 87t-96 287zM245 357q0 -158 66 -221.5t217 -63.5h154q150 0 216 63.5t66 221.5v373q0 162 -66.5 233t-215.5 71h-154q-150 0 -216.5 -71t-66.5 -233v-373zM1089 589h697v162q0 159 -66 223t-216 64h-132 q-150 0 -216.5 -64.5t-66.5 -222.5v-162z" />
<glyph unicode="&#x178;" horiz-adv-x="1343" d="M87 1434h147l437 -751l438 750h147l-519 -895v-538h-131v538zM442 1610v116h116v-116h-116zM784 1610v116h116v-116h-116z" />
<glyph unicode="&#x2c6;" horiz-adv-x="663" d="M92 1199l170 284h141l169 -284h-94l-146 223l-145 -223h-95z" />
<glyph unicode="&#x2dc;" horiz-adv-x="813" d="M92 1311q80 151 188 151q63 0 155 -58q69 -44 107 -44q29 0 53.5 19.5t61.5 70.5l64 -37q-79 -136 -174 -136q-63 0 -149 56q-72 47 -112 47q-32 0 -59.5 -22.5t-66.5 -84.5z" />
<glyph unicode="&#x2000;" horiz-adv-x="978" />
<glyph unicode="&#x2001;" horiz-adv-x="1957" />
<glyph unicode="&#x2002;" horiz-adv-x="978" />
<glyph unicode="&#x2003;" horiz-adv-x="1957" />
<glyph unicode="&#x2004;" horiz-adv-x="652" />
<glyph unicode="&#x2005;" horiz-adv-x="489" />
<glyph unicode="&#x2006;" horiz-adv-x="326" />
<glyph unicode="&#x2007;" horiz-adv-x="326" />
<glyph unicode="&#x2008;" horiz-adv-x="244" />
<glyph unicode="&#x2009;" horiz-adv-x="391" />
<glyph unicode="&#x200a;" horiz-adv-x="108" />
<glyph unicode="&#x2010;" horiz-adv-x="768" d="M92 539v94h584v-94h-584z" />
<glyph unicode="&#x2011;" horiz-adv-x="768" d="M92 539v94h584v-94h-584z" />
<glyph unicode="&#x2012;" horiz-adv-x="768" d="M92 539v94h584v-94h-584z" />
<glyph unicode="&#x2013;" horiz-adv-x="1060" d="M92 495v94h877v-94h-877z" />
<glyph unicode="&#x2014;" horiz-adv-x="1419" d="M92 495v94h1236v-94h-1236z" />
<glyph unicode="&#x2018;" horiz-adv-x="382" d="M92 1118v195l120 248h114l-99 -242v-201h-135z" />
<glyph unicode="&#x2019;" horiz-adv-x="382" d="M56 1118l100 242v201h135v-195l-121 -248h-114z" />
<glyph unicode="&#x201a;" horiz-adv-x="382" d="M56 -242l100 242v201h135v-195l-121 -248h-114z" />
<glyph unicode="&#x201c;" horiz-adv-x="667" d="M92 1118v195l121 248h113l-99 -242v-201h-135zM377 1118v195l120 248h114l-99 -242v-201h-135z" />
<glyph unicode="&#x201d;" horiz-adv-x="667" d="M56 1118l100 242v201h135v-195l-121 -248h-114zM341 1118l100 242v201h134v-195l-120 -248h-114z" />
<glyph unicode="&#x201e;" horiz-adv-x="667" d="M56 -242l100 242v201h135v-195l-121 -248h-114zM341 -242l100 242v201h134v-195l-120 -248h-114z" />
<glyph unicode="&#x2022;" horiz-adv-x="602" d="M92 544v82q0 72 48 120t120 48h82q72 0 120 -48t48 -120v-82q0 -72 -48 -119.5t-120 -47.5h-82q-72 0 -120 47.5t-48 119.5z" />
<glyph unicode="&#x2026;" horiz-adv-x="1103" d="M92 0v201h135v-201h-135zM484 0v201h135v-201h-135zM876 0v201h135v-201h-135z" />
<glyph unicode="&#x202f;" horiz-adv-x="391" />
<glyph unicode="&#x2039;" horiz-adv-x="622" d="M92 576l381 441l58 -58l-307 -383l307 -383l-58 -57z" />
<glyph unicode="&#x203a;" horiz-adv-x="622" d="M92 193l307 383l-307 383l58 58l381 -441l-381 -440z" />
<glyph unicode="&#x205f;" horiz-adv-x="489" />
<glyph unicode="&#x20ac;" horiz-adv-x="1474" d="M123 520v71h133v251h-133v71h134v46q3 256 114.5 375t350.5 119h173q211 0 322.5 -94.5t134.5 -293.5l-132 -8q-19 152 -99.5 220t-236.5 68h-151q-180 0 -261.5 -89.5t-83.5 -296.5v-46h689v-71h-689v-251h594v-71h-593v-47q3 -205 84.5 -295.5t259.5 -90.5h151 q156 0 236.5 68t99.5 220l132 -8q-23 -199 -134.5 -293t-322.5 -94h-173q-236 0 -348 119.5t-117 373.5v47h-134z" />
<glyph unicode="&#x2122;" horiz-adv-x="1536" d="M56 1365v69h545v-69h-231v-662h-83v662h-231zM726 703v731h173l186 -609l187 609h172v-731h-83v662h-34l-203 -662h-78l-203 662h-34v-662h-83z" />
<glyph unicode="&#x25fc;" horiz-adv-x="1105" d="M0 0v1106h1106v-1106h-1106z" />
<glyph unicode="&#xfb03;" horiz-adv-x="1918" d="M77 1013v93h156v83q0 131 29 206.5t99 110.5q76 38 217 38q19 0 63 -2l-4 -89q-129 3 -190 -27q-50 -26 -69.5 -81t-19.5 -156v-83h592v83q0 131 29 206.5t99 110.5q76 38 217 38q19 0 63 -2l-4 -89q-128 3 -189 -27q-50 -26 -70 -81t-20 -156v-83h670v-1106h-125v1013 h-545v-1013h-125v1013h-592v-1013h-125v1013h-156z" />
<glyph unicode="&#xfb04;" horiz-adv-x="1896" d="M77 1013v93h156v74q0 131 29 206t99 110q76 38 217 38q41 0 63 -1l-4 -90q-129 3 -190 -27q-50 -26 -69.5 -80.5t-19.5 -155.5v-74h592v74q0 131 29 206t99 110q79 40 234 40h430v-1536h-125v1443h-263q-128 3 -189 -27q-50 -26 -70 -80.5t-20 -155.5v-74h278v-93h-278 v-1013h-125v1013h-592v-1013h-125v1013h-156z" />
</font>
</defs>
</svg>
