<?xml version="1.0" standalone="no"?>
<!DOCTYPE svg PUBLIC "-//W3C//DTD SVG 1.1//EN" "http://www.w3.org/Graphics/SVG/1.1/DTD/svg11.dtd" >
<svg xmlns="http://www.w3.org/2000/svg">
<metadata></metadata>
<defs>
<font id="gunarthin" horiz-adv-x="1204" >
<font-face units-per-em="2048" ascent="1536" descent="-512" />
<missing-glyph horiz-adv-x="614" />
<glyph unicode="&#xfb01;" horiz-adv-x="1103" d="M82 1081v25h164v96q0 133 25 205t87 105q68 36 211 36v-24q-139 0 -200 -35q-54 -31 -75.5 -97.5t-21.5 -189.5v-96h624v-1106h-27v1081h-597v-1081h-26v1081h-164z" />
<glyph unicode="&#xfb02;" horiz-adv-x="1077" d="M82 1081v25h164v84q0 133 25 205t87 105q68 36 211 36h324v-1536h-27v1511h-297q-141 0 -200 -34q-54 -31 -75.5 -97.5t-21.5 -189.5v-84h297v-25h-297v-1081h-26v1081h-164z" />
<glyph horiz-adv-x="2048" />
<glyph horiz-adv-x="2048" />
<glyph unicode="&#xd;" horiz-adv-x="2048" />
<glyph unicode=" "  horiz-adv-x="614" />
<glyph unicode="&#x09;" horiz-adv-x="614" />
<glyph unicode="&#xa0;" horiz-adv-x="614" />
<glyph unicode="!" horiz-adv-x="239" d="M102 373v1061h35v-1061h-35zM103 0v139h33v-139h-33z" />
<glyph unicode="&#x22;" horiz-adv-x="479" d="M102 937v497h29v-497h-29zM348 937v497h28v-497h-28z" />
<glyph unicode="#" horiz-adv-x="1300" d="M102 497l5 26h255l78 443h-255l5 27h255l70 400h29l-71 -400h418l70 400h29l-70 -400h278l-4 -27h-279l-78 -443h279l-5 -26h-279l-87 -497h-29l87 497h-417l-88 -497h-29l88 497h-255zM390 523h418l78 443h-418z" />
<glyph unicode="$" horiz-adv-x="1273" d="M133 302h29q0 -100 43 -162t147.5 -94.5t279.5 -32.5q106 0 186.5 12.5t134 34.5t87 56t48 74.5t14.5 92.5v127q0 52 -9 92.5t-25.5 71.5t-46.5 54t-64 38.5t-86.5 27.5t-106.5 19.5t-130 14.5q-109 10 -180 21.5t-131 31t-93 49t-51.5 71.5t-20.5 103v137q0 61 11 106.5 t41 86t81 65.5t132.5 40t194.5 15v164h28v-165q109 -1 188.5 -16t129 -40t78.5 -65t40 -85t11 -106h-28q0 59 -10.5 101t-39 79t-77.5 59t-127.5 34.5t-188.5 12.5q-108 0 -185.5 -13t-126 -35.5t-76.5 -59.5t-38 -78.5t-10 -99.5v-136q5 -130 98.5 -178t352.5 -72 q109 -10 180.5 -22.5t136 -36.5t100.5 -60t56.5 -92t20.5 -134v-127q0 -68 -25.5 -120t-81.5 -92t-151 -62t-227 -23v-170h-28v170q-258 1 -371.5 80t-113.5 236z" />
<glyph unicode="%" horiz-adv-x="1486" d="M102 956v253q0 127 47.5 186t149.5 59h95q101 0 148.5 -59t47.5 -186v-253q0 -125 -47.5 -178t-148.5 -53h-95q-102 0 -149.5 53t-47.5 178zM131 956q0 -116 39 -160.5t129 -44.5h95q90 0 128.5 44.5t38.5 160.5v253q0 118 -39 168.5t-128 50.5h-95q-90 0 -129 -50 t-39 -169v-253zM194 -35l1057 1510h35l-1057 -1510h-35zM897 210v254q0 127 47.5 186t148.5 59h96q101 0 148 -59t47 -186v-254q0 -125 -47 -178t-148 -53h-96q-101 0 -148.5 53t-47.5 178zM926 210q0 -116 38.5 -160.5t128.5 -44.5h96q90 0 128.5 44.5t38.5 160.5v254 q0 118 -39 168.5t-128 50.5h-96q-90 0 -128.5 -50t-38.5 -169v-254z" />
<glyph unicode="&#x26;" horiz-adv-x="1402" d="M102 298v206q0 159 94 247t288 89l-66 70q-53 58 -53 156v150q0 113 65.5 175.5t200.5 62.5h87q134 0 199 -62.5t65 -175.5v-150h-28v150q0 211 -236 211h-87q-237 0 -237 -211v-150q0 -89 45 -137l693 -747q18 51 18 116v304h29v-304q0 -78 -25 -140l147 -158h-39 l-121 131q-83 -151 -345 -151h-309q-193 0 -289 81.5t-96 236.5zM131 298q0 -292 356 -292h309q253 0 325 147l-613 660h-21q-182 0 -269 -80.5t-87 -228.5v-206z" />
<glyph unicode="'" horiz-adv-x="233" d="M102 937v497h29v-497h-29z" />
<glyph unicode="(" horiz-adv-x="378" d="M102 175v807q0 158 78 292l113 195l25 -14l-113 -195q-74 -126 -74 -278v-807q0 -152 74 -277l113 -197l-25 -12l-113 194q-78 135 -78 292z" />
<glyph unicode=")" horiz-adv-x="378" d="M61 -299l113 197q74 125 74 277v807q0 152 -74 278l-113 195l25 14l113 -195q78 -134 78 -292v-807q0 -157 -78 -292l-113 -194z" />
<glyph unicode="*" horiz-adv-x="837" d="M102 1194l9 27l297 -101l-4 314h29l-4 -314l297 101l9 -27l-300 -94l188 -251l-24 -17l-181 256l-181 -256l-23 17l188 251z" />
<glyph unicode="+" horiz-adv-x="1132" d="M102 546v26h451v451h27v-451h450v-26h-450v-451h-27v451h-451z" />
<glyph unicode="," horiz-adv-x="280" d="M61 -182l85 182v139h33v-139l-93 -182h-25z" />
<glyph unicode="-" horiz-adv-x="708" d="M102 572v27h504v-27h-504z" />
<glyph unicode="." horiz-adv-x="237" d="M102 0v139h33v-139h-33z" />
<glyph unicode="/" horiz-adv-x="616" d="M61 -41l464 1516h30l-464 -1516h-30z" />
<glyph unicode="0" horiz-adv-x="1273" d="M164 428v508q0 251 90 364t288 113h191q197 0 287 -113t90 -364v-508q0 -246 -89.5 -347t-287.5 -101h-191q-198 0 -288 101t-90 347zM193 428q0 -235 81.5 -328.5t267.5 -93.5h191q186 0 267 93.5t81 328.5v508q0 241 -82 345.5t-266 104.5h-191q-185 0 -267 -104.5 t-82 -345.5v-508z" />
<glyph unicode="1" horiz-adv-x="600" d="M102 1269l265 124h29v-1393h-29v1363l-253 -118z" />
<glyph unicode="2" d="M123 0v329q0 38 5.5 70t13.5 57.5t26 48.5t32.5 39t44.5 33.5t50.5 28.5t61.5 26.5t67.5 25t78.5 27t84 28.5q40 14 110 38q46 16 67.5 23.5t57 20.5t50.5 20.5t40.5 19.5t35.5 21.5t25.5 23t21.5 27t13.5 31t10 36.5t3.5 43v84q0 73 -16 122t-60 88t-127 57.5t-210 18.5 q-130 0 -214 -18t-128.5 -56.5t-61 -87.5t-16.5 -124h-29q0 63 11 108.5t40 85.5t79 65t129.5 39t189.5 14q108 0 186.5 -14.5t127.5 -39.5t78 -65.5t39.5 -86t10.5 -106.5v-84q-1 -30 -6.5 -55t-12 -45t-22 -38t-28.5 -31.5t-40 -28t-47 -24t-59.5 -24t-67.5 -24.5 t-80.5 -28t-90.5 -31q-33 -12 -92 -32q-46 -16 -68 -23.5t-59 -21.5t-54 -22.5t-44.5 -22.5t-40 -26t-30.5 -29.5t-26 -35t-16.5 -40.5t-11.5 -49t-3 -57v-302h899v-27h-928z" />
<glyph unicode="3" horiz-adv-x="1228" d="M123 265h29q0 -259 356 -259h174q353 0 353 259v184q0 275 -353 275h-195v27h186q319 0 319 227v168q0 240 -319 240h-157q-321 0 -321 -240h-28q-2 127 83.5 197t265.5 70h157q176 0 261.5 -70t85.5 -197v-168q0 -194 -203 -240q247 -51 247 -289v-184q0 -285 -382 -285 h-174q-193 0 -289 73t-96 212z" />
<glyph unicode="4" horiz-adv-x="1247" d="M82 414v35l747 944h85v-953h231v-26h-231v-414h-28v414h-804zM112 440h774v926h-42z" />
<glyph unicode="5" horiz-adv-x="1228" d="M123 292h29q0 -286 356 -286h184q354 0 354 286v201q0 144 -86.5 223.5t-267.5 80.5h-208q-116 0 -286 -85l-29 2l60 679h790v-27h-764l-55 -623q168 81 284 80h208q193 0 287.5 -87t94.5 -243v-201q0 -312 -382 -312h-184q-193 0 -289 80t-96 232z" />
<glyph unicode="6" horiz-adv-x="1263" d="M164 428v508q0 251 90 364t288 113h159q158 0 256.5 -67t98.5 -200h-28q0 119 -89.5 179.5t-237.5 60.5h-159q-185 0 -267 -104.5t-82 -345.5v-264l51 27q187 95 314 94h179q203 0 293 -91t90 -274q0 -246 -89 -347t-287 -101h-202q-198 0 -288 101t-90 347zM193 428 q0 -235 81.5 -328.5t267.5 -93.5h202q124 0 198 38.5t111.5 131t37.5 252.5q0 172 -82 255t-272 84h-179q-119 0 -301 -92l-64 -33v-214z" />
<glyph unicode="7" horiz-adv-x="1085" d="M82 1366v27h942v-27l-738 -1366h-33l738 1366h-909z" />
<glyph unicode="8" horiz-adv-x="1290" d="M164 265v184q0 238 249 289q-205 47 -205 240v168q0 127 86 197t263 70h177q176 0 262 -70t86 -197v-168q0 -193 -204 -240q247 -51 247 -289v-184q0 -285 -382 -285h-195q-384 0 -384 285zM193 265q0 -259 355 -259h195q354 0 354 259v184q0 131 -86.5 203t-267.5 72 h-195q-355 0 -355 -275v-184zM236 978q0 -227 321 -227h177q319 0 319 227v168q0 240 -319 240h-177q-321 0 -321 -240v-168z" />
<glyph unicode="9" horiz-adv-x="1263" d="M143 964q0 246 89 347.5t287 101.5h202q198 0 288 -101.5t90 -347.5v-507q0 -251 -90 -364t-288 -113h-159q-158 0 -256.5 67t-98.5 200h28q0 -120 89.5 -180.5t237.5 -60.5h159q185 0 267.5 105t82.5 346v263l-52 -26q-189 -96 -314 -95h-179q-203 0 -293 91t-90 274z M172 964q0 -172 82 -254.5t272 -83.5h179q119 0 301 92l65 32v214q0 235 -82 328.5t-268 93.5h-202q-124 0 -198 -38.5t-111.5 -131t-37.5 -252.5z" />
<glyph unicode=":" horiz-adv-x="237" d="M102 0v139h33v-139h-33zM102 979v139h33v-139h-33z" />
<glyph unicode=";" horiz-adv-x="280" d="M61 -182l85 182v139h33v-139l-93 -182h-25zM146 979v139h33v-139h-33z" />
<glyph unicode="&#x3c;" horiz-adv-x="1130" d="M102 645v33l926 464v-29l-900 -452l900 -451v-30z" />
<glyph unicode="=" horiz-adv-x="1132" d="M102 390v27h928v-27h-928zM102 770v27h928v-27h-928z" />
<glyph unicode="&#x3e;" horiz-adv-x="1130" d="M102 180v30l900 451l-900 452v29l926 -464v-33z" />
<glyph unicode="?" horiz-adv-x="1095" d="M102 1142q0 62 11 108t40.5 86.5t79.5 65.5t129.5 39t189.5 14q108 0 186.5 -14.5t127.5 -40t77.5 -66t39 -86t10.5 -106.5v-83q0 -27 -4.5 -50t-11 -41.5t-21 -35.5t-26 -29t-35.5 -25.5t-39.5 -22t-48 -21t-51.5 -19t-59.5 -20.5t-63.5 -22q-30 -11 -45.5 -17 t-45.5 -20.5t-48 -27.5t-41 -36t-36 -48.5t-22 -61.5t-9 -78v-111h-28v111q0 63 19.5 114t44 81t67.5 57t67.5 37t66.5 25q22 8 63 22t58.5 20t49.5 18.5t45.5 19.5t37 20t33 23.5t23 25.5t19 31.5t9.5 36.5t4 44v83q0 73 -16 122t-60 88t-127 57.5t-210 18.5 q-130 0 -214 -18t-129 -56.5t-61.5 -88t-16.5 -123.5h-29zM356 0v139h32v-139h-32z" />
<glyph unicode="@" horiz-adv-x="1376" d="M102 314v575q-2 298 109 431.5t360 133.5h237q244 0 355 -134t111 -431v-330q0 -149 -83.5 -221t-263.5 -86v72q-152 -85 -251 -85h-75q-124 0 -177.5 58.5t-55.5 190.5v279q2 132 55.5 190.5t177.5 58.5h75q57 0 120.5 -24.5t162.5 -78.5v-631q150 17 218 82.5t68 194.5 v330q0 287 -103 412.5t-334 125.5h-237q-236 0 -339 -125.5t-101 -412.5v-576q0 -189 48 -300t142 -157t250 -46h237q68 0 115 8l4 -27q-49 -8 -119 -8h-237q-122 0 -208 27t-145.5 89.5t-87.5 164.5t-28 250zM400 488q2 -122 46 -171.5t155 -49.5h75q94 0 251 90v540 q-157 90 -251 90h-75q-111 0 -155 -49.5t-46 -171.5v-278z" />
<glyph unicode="A" horiz-adv-x="1298" d="M102 0l433 1434h229l432 -1434h-30l-132 438h-770l-132 -438h-30zM272 465h754l-284 942h-186z" />
<glyph unicode="B" horiz-adv-x="1349" d="M225 0v1434h518q200 0 290 -70t90 -224v-99q0 -114 -49.5 -181.5t-155.5 -93.5q134 -22 196 -100t62 -223v-112q0 -172 -90 -251t-290 -80h-571zM254 28h542q188 0 269.5 71t81.5 232v112q0 162 -81.5 233.5t-269.5 71.5h-542v-720zM254 775h489q189 0 270 62.5t81 203.5 v99q0 142 -81 204.5t-270 62.5h-489v-632z" />
<glyph unicode="C" horiz-adv-x="1380" d="M184 477v479q0 262 103.5 380t330.5 118h183q197 0 300 -89.5t125 -284.5l-28 -3q-21 184 -116 267t-281 83h-183q-215 0 -310 -109.5t-95 -361.5v-479q0 -252 95 -361.5t310 -109.5h183q186 0 281 83t116 267l28 -3q-22 -195 -124.5 -284t-300.5 -89h-183 q-227 0 -330.5 117.5t-103.5 379.5z" />
<glyph unicode="D" horiz-adv-x="1398" d="M225 0v1434h557q226 0 329 -118t103 -380v-468q0 -257 -102.5 -362.5t-329.5 -105.5h-557zM254 26h528q144 0 230 40.5t129.5 137.5t43.5 264v468q0 251 -95 361t-308 110h-528v-1381z" />
<glyph unicode="E" horiz-adv-x="1196" d="M225 0v1434h825v-27h-796v-652h755v-27h-755v-701h809v-27h-838z" />
<glyph unicode="F" horiz-adv-x="1159" d="M225 0v1434h801v-27h-772v-669h719v-26h-719v-712h-29z" />
<glyph unicode="G" horiz-adv-x="1449" d="M184 448v508q0 262 103.5 380t330.5 118h195q201 0 304.5 -93t122.5 -296l-28 -2q-19 192 -114 278t-285 86h-195q-215 0 -310 -109.5t-95 -361.5v-508q0 -166 44 -263.5t130.5 -138t230.5 -40.5h195q144 0 230 40.5t129.5 137.5t43.5 264v199h-426v27h455v-226 q0 -257 -102.5 -363t-329.5 -106h-195q-227 0 -330.5 106t-103.5 363z" />
<glyph unicode="H" horiz-adv-x="1462" d="M225 0v1434h29v-704h954v704h29v-1434h-29v703h-954v-703h-29z" />
<glyph unicode="I" horiz-adv-x="397" d="M184 0v1434h29v-1434h-29z" />
<glyph unicode="J" horiz-adv-x="663" d="M0 -123h68q182 0 262 98t80 344v1115h28v-1115q0 -174 -40.5 -277.5t-120 -147.5t-209.5 -44h-68v27z" />
<glyph unicode="K" horiz-adv-x="1222" d="M225 0v1434h29v-709h277l526 709h35l-536 -722l565 -712h-36l-552 696h-279v-696h-29z" />
<glyph unicode="L" horiz-adv-x="1103" d="M225 0v1434h29v-1407h747v-27h-776z" />
<glyph unicode="M" horiz-adv-x="1730" d="M215 0v1434h201l444 -1408l444 1408h201v-1434h-28v1407h-151l-444 -1407h-43l-444 1407h-151v-1407h-29z" />
<glyph unicode="N" horiz-adv-x="1400" d="M215 0v1434h166l658 -1407h119v1407h28v-1434h-165l-659 1407h-118v-1407h-29z" />
<glyph unicode="O" horiz-adv-x="1454" d="M184 448v508q0 262 103.5 380t330.5 118h220q226 0 329 -118t103 -380v-508q0 -257 -102.5 -363t-329.5 -106h-220q-227 0 -330.5 106t-103.5 363zM213 448q0 -167 44 -264t130.5 -137.5t230.5 -40.5h220q144 0 230 40.5t129.5 137.5t43.5 264v508q0 251 -95 361 t-308 110h-220q-215 0 -310 -109.5t-95 -361.5v-508z" />
<glyph unicode="P" horiz-adv-x="1329" d="M225 0v1434h571q200 0 290 -79t90 -253v-112q0 -172 -90 -251t-290 -79h-542v-660h-29zM254 687h542q188 0 269.5 71t81.5 232v112q0 162 -81.5 233.5t-269.5 71.5h-542v-720z" />
<glyph unicode="Q" horiz-adv-x="1454" d="M184 448v508q0 262 103.5 380t330.5 118h220q226 0 329 -118t103 -380v-508q0 -178 -48.5 -281t-150.5 -148l138 -228l-24 -14l-141 231q-83 -29 -206 -29h-220q-227 0 -330.5 106t-103.5 363zM213 448q0 -167 44 -264t130.5 -137.5t230.5 -40.5h220q144 0 230 40.5 t129.5 137.5t43.5 264v508q0 251 -95 361.5t-308 110.5h-220q-215 0 -310 -110t-95 -362v-508z" />
<glyph unicode="R" horiz-adv-x="1368" d="M225 0v1434h571q200 0 290 -75.5t90 -240.5v-117q0 -161 -86.5 -236.5t-279.5 -77.5l375 -687h-33l-374 687h-524v-687h-29zM254 714h542q188 0 269.5 67.5t81.5 219.5v117q0 154 -81.5 221.5t-269.5 67.5h-542v-693z" />
<glyph unicode="S" horiz-adv-x="1273" d="M133 302h29q0 -100 43 -162t147.5 -94.5t279.5 -32.5q106 0 186.5 12.5t134 34.5t87 56t48 74.5t14.5 92.5v127q0 52 -9 92.5t-25.5 71.5t-46.5 54t-64 38.5t-86.5 27.5t-106.5 19.5t-130 14.5q-109 10 -180 21.5t-131 31t-93 49t-51.5 71.5t-20.5 103v137q0 61 11 106.5 t41.5 86t81.5 66t133.5 40t196.5 14.5q143 0 238 -20.5t145 -63.5t69 -96.5t19 -132.5h-28q0 59 -10.5 101t-39 79t-77.5 59t-127.5 34.5t-188.5 12.5q-108 0 -185.5 -13t-126 -35.5t-76.5 -59.5t-38 -78.5t-10 -99.5v-136q5 -130 98.5 -178t352.5 -72q109 -10 180.5 -22.5 t136 -36.5t100.5 -60t56.5 -92t20.5 -134v-127q0 -297 -499 -297q-180 0 -291.5 37t-159.5 105t-48 174z" />
<glyph unicode="T" d="M102 1407v27h1000v-27h-486v-1407h-28v1407h-486z" />
<glyph unicode="U" horiz-adv-x="1363" d="M184 448v986h29v-986q0 -166 40.5 -263.5t120.5 -138t212 -40.5h204q198 0 284.5 98t86.5 344v986h28v-986q0 -257 -94.5 -362.5t-304.5 -105.5h-204q-140 0 -226.5 43.5t-131 147t-44.5 277.5z" />
<glyph unicode="V" horiz-adv-x="1327" d="M102 1434h30l446 -1407h171l446 1407h30l-455 -1434h-213z" />
<glyph unicode="W" horiz-adv-x="1853" d="M102 1434h30l321 -1407h154l291 1407h56l292 -1407h153l321 1407h30l-327 -1434h-201l-293 1413h-6l-293 -1413h-200z" />
<glyph unicode="X" horiz-adv-x="1288" d="M102 0l523 744l-489 690h34l476 -672l472 672h34l-489 -696l522 -738h-33l-510 720l-506 -720h-34z" />
<glyph unicode="Y" horiz-adv-x="1267" d="M102 1434h33l498 -842l498 841h33l-516 -872v-561h-29v561z" />
<glyph unicode="Z" horiz-adv-x="1249" d="M133 0v27l935 1380h-905v27h939v-27l-935 -1380h950v-27h-984z" />
<glyph unicode="[" horiz-adv-x="518" d="M102 -266v1726h355v-26h-326v-1674h326v-26h-355z" />
<glyph unicode="\" horiz-adv-x="616" d="M61 1475h30l464 -1516h-30z" />
<glyph unicode="]" horiz-adv-x="518" d="M61 -240h326v1674h-326v26h355v-1726h-355v26z" />
<glyph unicode="^" horiz-adv-x="948" d="M102 822l353 612h38l353 -612h-33l-339 587l-339 -587h-33z" />
<glyph unicode="_" horiz-adv-x="1187" d="M102 -264h984v-27h-984v27z" />
<glyph unicode="`" horiz-adv-x="348" d="M102 1466h37l107 -260h-23z" />
<glyph unicode="a" d="M154 315q4 195 80.5 280t259.5 85h254q176 0 245 -48v148q0 98 -15 159t-53.5 98t-96 51t-150.5 14h-122q-170 0 -239 -56t-77 -212l-27 2q9 167 85.5 228.5t257.5 61.5h122q98 0 160.5 -15.5t104.5 -55.5t59.5 -106t17.5 -169v-780h-27v116q-242 -136 -390 -136h-142 q-145 0 -226 77.5t-81 257.5zM180 315q0 -168 73.5 -239.5t207.5 -71.5h142q141 0 390 141v452q-55 58 -245 58h-254q-170 0 -240 -77.5t-74 -262.5z" />
<glyph unicode="b" horiz-adv-x="1214" d="M205 0v1536h26v-545q238 135 388 135h112q183 0 259.5 -84.5t80.5 -279.5v-418q-4 -195 -80.5 -279.5t-259.5 -84.5h-112q-150 0 -388 135v-115h-26zM231 143q243 -139 388 -139h112q170 0 239.5 77.5t73.5 262.5v417q-4 185 -73.5 263t-239.5 78h-112q-143 0 -388 -140 v-819z" />
<glyph unicode="c" horiz-adv-x="1155" d="M143 367v372q0 203 87 295t278 92h158q166 0 252 -69.5t105 -221.5l-27 -3q-17 142 -96 206t-234 64h-158q-179 0 -258.5 -84.5t-79.5 -278.5v-372q0 -194 79.5 -278.5t258.5 -84.5h158q155 0 234 64t96 206l27 -3q-19 -152 -105 -221.5t-252 -69.5h-158q-191 0 -278 92 t-87 295z" />
<glyph unicode="d" horiz-adv-x="1214" d="M143 344v418q4 195 80.5 279.5t259.5 84.5h112q150 0 388 -135v545h27v-1536h-27v115q-238 -135 -388 -135h-112q-183 0 -259.5 84.5t-80.5 279.5zM170 344q4 -185 73.5 -262.5t239.5 -77.5h112q145 0 388 139v819q-245 140 -388 140h-112q-170 0 -239.5 -78t-73.5 -263 v-417z" />
<glyph unicode="e" horiz-adv-x="1169" d="M143 367v395q0 199 87 281.5t278 82.5h166q190 0 276 -82t86 -282v-215h-866v-180q0 -194 79.5 -278.5t258.5 -84.5h166q155 0 234 63.5t96 205.5l27 -3q-19 -151 -105 -220.5t-252 -69.5h-166q-191 0 -278 92t-87 295zM170 571h840v191q0 189 -78 264.5t-258 75.5h-166 q-180 0 -259 -75.5t-79 -264.5v-191z" />
<glyph unicode="f" horiz-adv-x="651" d="M82 1081v25h164v96q0 133 25 205t87 105q68 36 211 36v-24q-139 0 -200 -35q-54 -31 -75.5 -97.5t-21.5 -189.5v-96h297v-25h-297v-1081h-26v1081h-164z" />
<glyph unicode="g" horiz-adv-x="1224" d="M154 365v397q4 195 80.5 279.5t259.5 84.5h112q149 0 387 -135v135h27v-1151q0 -103 -17.5 -169t-59.5 -106t-104.5 -55.5t-160.5 -15.5h-122q-181 0 -257.5 62.5t-85.5 228.5l27 2q8 -156 77 -212t239 -56h122q93 0 150.5 14t96 51t53.5 97.5t15 158.5v160 q-238 -135 -387 -135h-112q-183 0 -259.5 85t-80.5 280zM180 365q4 -185 74 -262.5t240 -77.5h112q144 0 387 139v798q-245 140 -387 140h-112q-170 0 -240 -77.5t-74 -262.5v-397z" />
<glyph unicode="h" horiz-adv-x="1265" d="M215 0v1536h27v-545q238 135 387 135h112q183 0 259.5 -84.5t80.5 -279.5v-762h-26v761q-4 185 -74 263t-240 78h-112q-142 0 -387 -140v-962h-27z" />
<glyph unicode="i" horiz-adv-x="452" d="M215 1294v140h33v-140h-33zM218 0v1106h27v-1106h-27z" />
<glyph unicode="j" horiz-adv-x="481" d="M-31 -344q88 0 141 14.5t84 50.5q53 62 53 256v1129h27v-1129q0 -205 -63 -276q-63 -70 -242 -70v25zM244 1294v140h33v-140h-33z" />
<glyph unicode="k" horiz-adv-x="1081" d="M215 0v1536h27v-919h296l393 489h34l-400 -496l454 -610h-32l-441 593h-304v-593h-27z" />
<glyph unicode="l" horiz-adv-x="425" d="M215 0v1536h27v-1536h-27z" />
<glyph unicode="m" horiz-adv-x="1884" d="M205 0v1106h26v-112q206 132 337 132h99q101 0 163.5 -32t94.5 -101q232 133 377 133h99q161 0 228.5 -84.5t70.5 -279.5v-762h-27v761q-3 185 -64 263t-208 78h-99q-138 0 -367 -133q30 -80 31 -207v-762h-27v761q-3 185 -64 263t-208 78h-99q-126 0 -337 -138v-964h-26 z" />
<glyph unicode="n" horiz-adv-x="1255" d="M205 0v1106h26v-115q238 135 388 135h112q183 0 259.5 -84.5t80.5 -279.5v-762h-27v761q-4 185 -73.5 263t-239.5 78h-112q-143 0 -388 -140v-962h-26z" />
<glyph unicode="o" horiz-adv-x="1198" d="M143 344v395q0 203 87 295t278 92h184q190 0 276.5 -92t86.5 -295v-395q0 -200 -86 -282t-277 -82h-184q-191 0 -278 82.5t-87 281.5zM170 344q0 -189 79 -264.5t259 -75.5h184q180 0 258 75.5t78 264.5v395q0 193 -79 278t-257 85h-184q-179 0 -258.5 -84.5 t-79.5 -278.5v-395z" />
<glyph unicode="p" horiz-adv-x="1224" d="M215 -369v1475h27v-115q238 135 387 135h112q183 0 259.5 -84.5t80.5 -279.5v-418q-4 -195 -80.5 -279.5t-259.5 -84.5h-112q-149 0 -387 135v-484h-27zM242 143q243 -139 387 -139h112q170 0 240 77.5t74 262.5v418q-4 185 -74 262.5t-240 77.5h-112q-142 0 -387 -140 v-819z" />
<glyph unicode="q" horiz-adv-x="1214" d="M143 344v418q4 195 80.5 279.5t259.5 84.5h112q150 0 388 -135v115h27v-1475h-27v484q-238 -135 -388 -135h-112q-183 0 -259.5 84.5t-80.5 279.5zM170 345q4 -185 73.5 -263t239.5 -78h112q145 0 388 139v819q-245 140 -388 140h-112q-170 0 -239.5 -77.5t-73.5 -262.5 v-417z" />
<glyph unicode="r" horiz-adv-x="737" d="M205 0v1106h26v-143q237 163 387 163h58v-24h-58q-143 0 -387 -170v-932h-26z" />
<glyph unicode="s" horiz-adv-x="1058" d="M102 230h27q0 -117 89 -171t306 -54q147 0 236 26.5t124 71t35 112.5v99q0 48 -9.5 83t-31.5 60.5t-51 42.5t-77 29t-98.5 19t-125.5 14q-92 8 -151.5 17t-110 24t-78 37.5t-43 56t-17.5 80.5v106q0 61 15.5 102t57 75t119.5 50t197 16q97 0 167 -11t114.5 -30 t70.5 -50.5t35.5 -67t9.5 -84.5h-27q0 57 -14.5 94.5t-54 67.5t-113.5 43.5t-188 13.5q-112 0 -185 -14t-111.5 -44.5t-52.5 -67.5t-14 -93v-105q4 -98 82 -135.5t294 -56.5q92 -8 152 -17.5t115 -28.5t85.5 -47.5t48 -72.5t17.5 -106v-99q0 -233 -422 -233 q-224 0 -323 61.5t-99 186.5z" />
<glyph unicode="t" horiz-adv-x="700" d="M82 1081v25h140v231h26v-231h330v-25h-330v-755q0 -99 12 -157.5t47.5 -97t93.5 -52.5t156 -15h21v-24q-204 0 -277 62q-44 37 -61.5 104t-17.5 180v755h-140z" />
<glyph unicode="u" horiz-adv-x="1261" d="M184 344v762h27v-761q4 -185 76 -263t248 -78h115q150 0 400 139v963h26v-1106h-26v115q-245 -135 -400 -135h-115q-188 0 -267.5 84.5t-83.5 279.5z" />
<glyph unicode="v" horiz-adv-x="1064" d="M61 1106h29l403 -1081h80l403 1081h28l-412 -1106h-118z" />
<glyph unicode="w" horiz-adv-x="1542" d="M61 1106h28l291 -1081h88l282 1081h42l283 -1081h88l291 1081h27l-297 -1106h-130l-283 1081l-282 -1081h-130z" />
<glyph unicode="x" horiz-adv-x="1001" d="M61 0l421 578l-389 528h32l377 -513l374 513h31l-389 -535l421 -571h-32l-409 556l-405 -556h-32z" />
<glyph unicode="y" horiz-adv-x="1064" d="M61 1106h29l403 -1081h80l403 1081h28l-549 -1475h-28l137 369h-90z" />
<glyph unicode="z" horiz-adv-x="1003" d="M82 0v25l795 1056h-771v25h803v-25l-795 -1056h807v-25h-839z" />
<glyph unicode="{" horiz-adv-x="536" d="M102 570v21l156 56q41 14 38 59l-36 413q-9 115 62 198l131 154l22 -17l-131 -154q-65 -77 -56 -178l37 -413q2 -26 -14.5 -51.5t-42.5 -35.5l-117 -42l117 -42q26 -10 42.5 -35t14.5 -51l-37 -413q-9 -103 56 -178l131 -154l-22 -16l-131 153q-71 82 -62 197l36 413 q3 45 -38 59z" />
<glyph unicode="|" horiz-adv-x="233" d="M102 -266v1802h29v-1802h-29z" />
<glyph unicode="}" horiz-adv-x="536" d="M61 -293l131 154q65 76 56 178l-36 413q-2 26 14 51t42 35l117 42l-117 42q-26 10 -42 35t-14 51l36 414q9 101 -56 178l-131 154l22 17l131 -154q72 -84 63 -198l-37 -413q-3 -45 38 -59l156 -56v-22l-156 -56q-41 -14 -38 -59l37 -413q9 -114 -63 -197l-131 -153z" />
<glyph unicode="~" horiz-adv-x="1153" d="M102 506q67 115 132 167t137 52q38 0 85 -17t77.5 -34.5t83.5 -50.5q78 -49 124.5 -70.5t85.5 -21.5q49 0 95 37.5t105 124.5l24 -15q-60 -90 -113.5 -132t-109.5 -42q-45 0 -97 23.5t-130 72.5q-54 34 -81.5 50t-70.5 32t-77 16q-126 0 -245 -206z" />
<glyph unicode="&#xa1;" horiz-adv-x="239" d="M103 967v139h33v-139h-33zM109 -328v1061h22v-1061h-22z" />
<glyph unicode="&#xa2;" horiz-adv-x="1155" d="M143 367v372q0 203 87 295t278 92h62v144h26v-144h70q166 0 252 -69.5t105 -221.5l-27 -3q-17 142 -96 206t-234 64h-158q-179 0 -258.5 -84.5t-79.5 -278.5v-372q0 -194 79.5 -278.5t258.5 -84.5h158q155 0 234 64t96 206l27 -3q-19 -152 -105 -221.5t-252 -69.5h-70 v-144h-26v144h-62q-191 0 -278 92t-87 295z" />
<glyph unicode="&#xa3;" horiz-adv-x="1318" d="M143 0v27h174v701h-174v27h174v201q0 262 94 380t300 118h109q165 0 256.5 -75.5t120.5 -237.5l-28 -5q-28 153 -111.5 222t-237.5 69h-109q-193 0 -279 -110t-86 -361v-201h569v-27h-569v-701h834v-27h-1037z" />
<glyph unicode="&#xa4;" horiz-adv-x="1433" />
<glyph unicode="&#xa5;" horiz-adv-x="1267" d="M102 1434h33l498 -842l498 841h33l-370 -624h289v-27h-304l-131 -221v-121h435v-26h-435v-414h-29v414h-435v26h435v121l-131 221h-304v27h288z" />
<glyph unicode="&#xa6;" horiz-adv-x="233" d="M102 -266v717h29v-717h-29zM102 819v717h29v-717h-29z" />
<glyph unicode="&#xa7;" horiz-adv-x="1101" d="M102 -84h29q0 -89 38.5 -144t132 -84.5t249.5 -29.5q230 0 324.5 61t94.5 181v113q0 65 -16 110.5t-45 75.5t-83.5 49t-115 29.5t-157.5 19.5q-98 9 -160.5 19t-117 27.5t-83.5 43.5t-46 64t-19 92v122q0 152 92 214q-88 53 -92 174v122q0 69 17 117t60.5 86.5t127 57 t209.5 18.5q128 0 212.5 -18t129.5 -56.5t62 -86.5t17 -118h-29q0 52 -9 89t-34 69.5t-68.5 52t-113.5 30.5t-167 11q-119 0 -196.5 -16t-118 -50.5t-55.5 -77.5t-15 -108v-121q2 -48 16.5 -81t41 -56.5t76 -39t110.5 -25.5t155 -19q98 -9 161.5 -20t122 -32.5t91 -54 t51 -83t18.5 -120.5v-114q0 -116 -83 -181q83 -68 83 -215v-113q0 -269 -448 -269q-238 0 -343.5 71t-105.5 214zM156 544q2 -48 16.5 -81t41 -56.5t76 -39t110.5 -25.5t155 -19q126 -11 206.5 -29t132.5 -51q76 58 76 166v114q0 65 -16 110.5t-45 75.5t-83.5 49t-115 29.5 t-157.5 19.5q-221 21 -306 58q-51 -31 -71 -79t-20 -120v-122z" />
<glyph unicode="&#xa8;" horiz-adv-x="534" d="M102 1317v37h37v-37h-37zM395 1317v37h37v-37h-37z" />
<glyph unicode="&#xa9;" horiz-adv-x="1679" d="M102 717q0 150 58.5 286.5t157 235t235 157t286.5 58.5t286.5 -58.5t235 -157t157 -235t58.5 -286.5t-58.5 -286.5t-157 -235t-235 -157t-286.5 -58.5t-286.5 58.5t-235 157t-157 235t-58.5 286.5zM131 717q0 -144 56 -275.5t151 -226.5t226 -151.5t275 -56.5t275 56.5 t226 151.5t151.5 226.5t56.5 275.5t-56.5 275.5t-151.5 226.5t-226 151.5t-275 56.5t-275 -56.5t-226 -151.5t-151 -226.5t-56 -275.5zM519 580v274q0 151 61 220t193 69h104q116 0 177 -53.5t73 -169.5l-28 -3q-11 107 -63.5 154t-158.5 47h-104q-121 0 -173 -60.5 t-52 -203.5v-274q0 -143 52 -203.5t173 -60.5h104q106 0 158.5 47t63.5 154l28 -4q-12 -116 -73 -169.5t-177 -53.5h-104q-132 0 -193 69.5t-61 220.5z" />
<glyph unicode="&#xaa;" horiz-adv-x="790" d="M102 911q2 131 54.5 188.5t176.5 57.5h170q112 0 159 -28v92q0 126 -43 168.5t-163 42.5h-81q-113 0 -157.5 -37t-49.5 -142l-26 1q6 114 58 157t175 43h81q130 0 181 -49t51 -184v-524h-26v75q-158 -88 -256 -88h-95q-209 0 -209 227zM128 911q0 -112 47.5 -158.5 t135.5 -46.5h95q96 0 256 92v300q-36 36 -159 36h-170q-112 0 -157.5 -50t-47.5 -173z" />
<glyph unicode="&#xab;" horiz-adv-x="880" d="M102 565l351 418l16 -16l-330 -402l330 -403l-16 -16zM411 565l351 418l16 -16l-330 -402l330 -403l-16 -16z" />
<glyph unicode="&#xac;" horiz-adv-x="1433" />
<glyph unicode="&#xad;" horiz-adv-x="708" d="M102 572v27h504v-27h-504z" />
<glyph unicode="&#xae;" horiz-adv-x="1679" d="M102 717q0 150 58.5 286.5t157 235t235 157t286.5 58.5t286.5 -58.5t235 -157t157 -235t58.5 -286.5t-58.5 -286.5t-157 -235t-235 -157t-286.5 -58.5t-286.5 58.5t-235 157t-157 235t-58.5 286.5zM131 717q0 -144 56 -275.5t151 -226.5t226 -151.5t275 -56.5t275 56.5 t226 151.5t151.5 226.5t56.5 275.5t-56.5 275.5t-151.5 226.5t-226 151.5t-275 56.5t-275 -56.5t-226 -151.5t-151 -226.5t-56 -275.5zM573 302v830h332q116 0 169.5 -45t53.5 -141v-67q0 -92 -49.5 -136.5t-156.5 -47.5l215 -393h-32l-214 393h-290v-393h-28zM601 720h304 q106 0 150.5 37t44.5 122v67q0 86 -44.5 123t-150.5 37h-304v-386z" />
<glyph unicode="&#xaf;" horiz-adv-x="704" d="M102 1321v29h501v-29h-501z" />
<glyph unicode="&#xb0;" horiz-adv-x="806" d="M102 1182v113q0 116 53.5 170t162.5 53h158q228 0 228 -223v-113q0 -223 -228 -223h-158q-216 0 -216 223zM129 1182q0 -103 46.5 -150.5t142.5 -47.5h158q201 0 201 198v113q0 199 -201 199h-158q-97 1 -143 -46.5t-46 -152.5v-113z" />
<glyph unicode="&#xb1;" horiz-adv-x="1132" d="M102 0v27h928v-27h-928zM102 716v27h451v450h27v-450h450v-27h-450v-451h-27v451h-451z" />
<glyph unicode="&#xb2;" horiz-adv-x="684" d="M102 735v171q0 24 5 44.5t10.5 34.5t21.5 28t25.5 21.5t36 19t39 16t48 16.5t51.5 18q19 7 49.5 17.5t43.5 15t33.5 12.5t28.5 12.5t21 12.5t17 14.5t10 16t7.5 20.5t2.5 25v42q0 73 -39.5 104.5t-159.5 31.5q-65 0 -106 -8.5t-62 -27.5t-28 -43t-7 -63h-29 q-2 85 46.5 126.5t185.5 41.5q132 0 180 -40.5t48 -121.5v-42q-1 -18 -3.5 -32t-9.5 -26t-13 -20.5t-20 -17.5t-24 -15t-32 -14.5t-36 -13t-44 -15l-50 -17.5q-17 -6 -51.5 -18t-46.5 -16.5t-36 -14t-32 -16.5t-21.5 -18.5t-18 -23.5t-8.5 -28.5t-4 -37.5v-145h450v-26h-479 z" />
<glyph unicode="&#xb3;" horiz-adv-x="690" d="M103 880h28q-2 -65 39 -97t132 -32h87q89 0 129.5 30.5t40.5 92.5v92q0 131 -170 131h-105v26h100q80 0 116.5 26.5t36.5 80.5v84q0 114 -153 114h-78q-82 0 -118.5 -30.5t-34.5 -89.5h-29q-3 68 42.5 107t139.5 39h78q90 0 135.5 -37.5t45.5 -102.5v-84q0 -89 -85 -119 q107 -32 107 -145v-92q0 -72 -49.5 -110.5t-148.5 -38.5h-87q-101 0 -151 40t-48 115z" />
<glyph unicode="&#xb4;" horiz-adv-x="348" d="M102 1206l107 260h37l-120 -260h-24z" />
<glyph unicode="&#xb6;" horiz-adv-x="1062" d="M102 990v112q0 174 90 253t290 79h479v-27h-73v-1673h-29v1673h-187v-1673h-29v926h-161q-200 0 -290 79t-90 251z" />
<glyph unicode="&#xb7;" horiz-adv-x="237" d="M102 551v139h33v-139h-33z" />
<glyph unicode="&#xb8;" horiz-adv-x="542" d="M102 -369h152q40 0 61.5 1.5t43 8t31 20t15.5 36.5t6 59t-6 58.5t-15 36t-31.5 19.5t-43 7.5t-61.5 1.5h-54l36 121h30l-28 -94h16q41 0 65 -2t50 -10t39.5 -24t22 -44t8.5 -70q0 -35 -5 -60.5t-17 -42t-25.5 -26.5t-37.5 -14.5t-45 -6t-55 -1.5h-152v26z" />
<glyph unicode="&#xb9;" horiz-adv-x="366" d="M102 1368l140 66h23v-709h-28v677l-124 -57z" />
<glyph unicode="&#xba;" horiz-adv-x="821" d="M102 929v264q0 137 59.5 199t188.5 62h122q128 0 187 -62t59 -199v-264q0 -134 -59 -190t-187 -56h-122q-129 0 -188.5 56t-59.5 190zM128 929q0 -125 51.5 -174t170.5 -49h122q118 0 169 49t51 174v264q0 128 -51.5 183.5t-168.5 55.5h-122q-118 0 -170 -55.5 t-52 -183.5v-264z" />
<glyph unicode="&#xbb;" horiz-adv-x="880" d="M102 162l330 403l-330 402l16 16l351 -418l-351 -419zM411 162l330 403l-330 402l16 16l351 -418l-351 -419z" />
<glyph unicode="&#xbc;" horiz-adv-x="1349" d="M102 -35l1052 1503h35l-1051 -1503h-36zM180 1368l140 66h23v-709h-29v677l-123 -57zM701 207v25l377 477h53v-477h116v-25h-116v-207h-28v207h-402zM736 232h367v451h-10z" />
<glyph unicode="&#xbd;" horiz-adv-x="1388" d="M102 -35l1052 1503h35l-1051 -1503h-36zM179 1368l140 66h23v-709h-29v677l-123 -57zM808 0v171q0 22 3 40t10.5 32.5t14.5 25.5t22.5 21.5t26.5 17t33.5 15.5t36.5 14t43.5 15t46.5 16q18 6 45 15.5t39.5 14t32.5 12t28 11.5t21 11t18 12.5t12 13t9.5 16t5 18.5t2.5 23 v42q0 73 -39.5 104.5t-159.5 31.5q-86 0 -131 -17t-59 -45.5t-13 -80.5l-29 1q-2 85 46.5 126.5t185.5 41.5q132 0 180 -40.5t48 -121.5v-42q-1 -18 -3.5 -32t-9.5 -26t-13 -20.5t-20 -17.5t-24 -15t-32 -14.5t-36 -13t-44 -15l-50 -17.5q-17 -6 -51.5 -18t-46.5 -16.5 t-36 -14t-32 -16.5t-21.5 -18.5t-18 -23.5t-8.5 -28.5t-4 -37.5v-145h450v-26h-479z" />
<glyph unicode="&#xbe;" horiz-adv-x="1503" d="M102 880h29q-2 -65 39 -97t132 -32h87q89 0 129.5 30.5t40.5 92.5v92q0 131 -170 131h-105v26h100q80 0 116.5 26.5t36.5 80.5v84q0 114 -153 114h-78q-82 0 -118.5 -30.5t-34.5 -89.5h-29q-3 68 42.5 107t139.5 39h78q90 0 135.5 -37.5t45.5 -102.5v-84q0 -89 -85 -119 q107 -32 107 -145v-92q0 -72 -49.5 -110.5t-148.5 -38.5h-87q-101 0 -151.5 40.5t-48.5 114.5zM257 -35l1051 1503h35l-1051 -1503h-35zM856 207v25l377 477h53v-477h116v-25h-116v-207h-28v207h-402zM891 232h367v451h-10z" />
<glyph unicode="&#xbf;" horiz-adv-x="1095" d="M102 -37v84q0 27 4.5 50t11 41.5t21 35.5t26 29t35.5 25.5t40 22t48.5 21t51.5 19t59.5 20.5t63.5 22q30 11 45.5 17t45.5 20.5t48 27.5t41 36t36 48.5t22 61.5t9 78v111h28v-111q0 -46 -10.5 -85t-24.5 -67t-39.5 -53t-45 -39.5t-51.5 -30.5t-48.5 -22t-46.5 -17 q-21 -7 -61 -21q-44 -15 -65 -22.5t-55 -21t-49.5 -22.5t-38.5 -23.5t-32.5 -28.5t-20.5 -32.5t-15 -40.5t-4 -49v-84q0 -73 16 -121.5t59.5 -87.5t127 -57.5t210.5 -18.5q130 0 214 18t129 56.5t61.5 87.5t16.5 123h28q0 -63 -11 -108.5t-40 -85.5t-79 -64.5t-129.5 -38.5 t-189.5 -14q-108 0 -186.5 14.5t-127.5 39t-78 65t-39.5 85.5t-10.5 107zM707 967v139h33v-139h-33z" />
<glyph unicode="&#xc0;" horiz-adv-x="1298" d="M102 0l433 1434h229l432 -1434h-30l-132 438h-770l-132 -438h-30zM272 465h754l-284 942h-186zM577 1794h37l107 -261h-23z" />
<glyph unicode="&#xc1;" horiz-adv-x="1298" d="M102 0l433 1434h229l432 -1434h-30l-132 438h-770l-132 -438h-30zM272 465h754l-284 942h-186zM577 1533l107 261h37l-120 -261h-24z" />
<glyph unicode="&#xc2;" horiz-adv-x="1298" d="M102 0l433 1434h229l432 -1434h-30l-132 438h-770l-132 -438h-30zM272 465h754l-284 942h-186zM467 1533l164 261h37l163 -261h-23l-159 234l-158 -234h-24z" />
<glyph unicode="&#xc3;" horiz-adv-x="1298" d="M102 0l433 1434h229l432 -1434h-30l-132 438h-770l-132 -438h-30zM272 465h754l-284 942h-186zM373 1648q72 125 154 125q49 0 141 -58q86 -53 120 -53q28 0 55 21.5t60 71.5l22 -14q-70 -103 -136 -103q-46 0 -135 56q-87 55 -127 55q-34 0 -64 -25.5t-67 -88.5z" />
<glyph unicode="&#xc4;" horiz-adv-x="1298" d="M102 0l433 1434h229l432 -1434h-30l-132 438h-770l-132 -438h-30zM272 465h754l-284 942h-186zM484 1645v36h37v-36h-37zM777 1645v36h37v-36h-37z" />
<glyph unicode="&#xc5;" horiz-adv-x="1298" d="M102 0l433 1434h229l432 -1434h-30l-132 438h-770l-132 -438h-30zM272 465h754l-284 942h-186zM457 1732v72q0 74 34.5 109t103.5 34h101q146 0 146 -143v-72q0 -143 -146 -143h-101q-138 0 -138 143zM483 1732q0 -62 27 -90t85 -28h101q119 0 119 118v72q0 118 -119 118 h-102q-58 1 -84.5 -26.5t-26.5 -91.5v-72z" />
<glyph unicode="&#xc6;" horiz-adv-x="1609" d="M102 0l433 1434h929v-27h-796v-652h755v-27h-755v-701h808v-27h-837v438h-375l-132 -438h-30zM272 465h367v942h-83z" />
<glyph unicode="&#xc7;" horiz-adv-x="1380" d="M184 477v479q0 262 103.5 380t330.5 118h183q197 0 300 -89.5t125 -284.5l-28 -3q-21 184 -116 267t-281 83h-183q-215 0 -310 -109.5t-95 -361.5v-479q0 -252 95 -361.5t310 -109.5h183q186 0 281 83t116 267l28 -3q-22 -195 -124.5 -284t-300.5 -89h-122l-22 -74h16 q34 0 55 -1.5t45 -6t37.5 -14.5t26 -26.5t17.5 -41.5t5 -60q0 -42 -9 -70.5t-22 -44.5t-39.5 -24t-50.5 -10t-65 -2h-151v26h151q40 0 61.5 1.5t43 8t31 20t15.5 36.5t6 59t-6 58.5t-15 36t-31.5 19.5t-43 7.5t-61.5 1.5h-53l29 101h-31q-227 0 -330.5 117.5t-103.5 379.5z " />
<glyph unicode="&#xc8;" horiz-adv-x="1196" d="M225 0v1434h825v-27h-796v-652h755v-27h-755v-701h809v-27h-838zM526 1794h37l107 -261h-24z" />
<glyph unicode="&#xc9;" horiz-adv-x="1196" d="M225 0v1434h825v-27h-796v-652h755v-27h-755v-701h809v-27h-838zM526 1533l107 261h37l-120 -261h-24z" />
<glyph unicode="&#xca;" horiz-adv-x="1196" d="M225 0v1434h825v-27h-796v-652h755v-27h-755v-701h809v-27h-838zM416 1533l164 261h36l164 -261h-24l-158 234l-158 -234h-24z" />
<glyph unicode="&#xcb;" horiz-adv-x="1196" d="M225 0v1434h825v-27h-796v-652h755v-27h-755v-701h809v-27h-838zM433 1645v36h37v-36h-37zM726 1645v36h37v-36h-37z" />
<glyph unicode="&#xcc;" horiz-adv-x="397" d="M127 1794h37l107 -261h-24zM184 0v1434h29v-1434h-29z" />
<glyph unicode="&#xcd;" horiz-adv-x="397" d="M127 1533l107 261h37l-121 -261h-23zM184 0v1434h29v-1434h-29z" />
<glyph unicode="&#xce;" horiz-adv-x="397" d="M17 1533l163 261h37l164 -261h-24l-158 234l-159 -234h-23zM184 0v1434h29v-1434h-29z" />
<glyph unicode="&#xcf;" horiz-adv-x="397" d="M34 1645v36h37v-36h-37zM184 0v1434h29v-1434h-29zM327 1645v36h37v-36h-37z" />
<glyph unicode="&#xd0;" horiz-adv-x="1398" d="M102 703v27h123v704h557q226 0 329 -118t103 -380v-468q0 -257 -102.5 -362.5t-329.5 -105.5h-557v703h-123zM254 26h528q144 0 230 40.5t129.5 137.5t43.5 264v468q0 251 -95 361t-308 110h-528v-677h352v-27h-352v-677z" />
<glyph unicode="&#xd1;" horiz-adv-x="1400" d="M215 0v1434h166l658 -1407h119v1407h28v-1434h-165l-659 1407h-118v-1407h-29zM424 1648q72 125 155 125q48 0 140 -58q86 -53 121 -53q28 0 54.5 21.5t59.5 71.5l22 -14q-70 -103 -136 -103q-46 0 -135 56q-87 55 -127 55q-34 0 -63.5 -25.5t-66.5 -88.5z" />
<glyph unicode="&#xd2;" horiz-adv-x="1454" d="M184 448v508q0 262 103.5 380t330.5 118h220q226 0 329 -118t103 -380v-508q0 -257 -102.5 -363t-329.5 -106h-220q-227 0 -330.5 106t-103.5 363zM213 448q0 -167 44 -264t130.5 -137.5t230.5 -40.5h220q144 0 230 40.5t129.5 137.5t43.5 264v508q0 251 -95 361 t-308 110h-220q-215 0 -310 -109.5t-95 -361.5v-508zM655 1794h37l107 -261h-24z" />
<glyph unicode="&#xd3;" horiz-adv-x="1454" d="M184 448v508q0 262 103.5 380t330.5 118h220q226 0 329 -118t103 -380v-508q0 -257 -102.5 -363t-329.5 -106h-220q-227 0 -330.5 106t-103.5 363zM213 448q0 -167 44 -264t130.5 -137.5t230.5 -40.5h220q144 0 230 40.5t129.5 137.5t43.5 264v508q0 251 -95 361 t-308 110h-220q-215 0 -310 -109.5t-95 -361.5v-508zM655 1533l107 261h37l-120 -261h-24z" />
<glyph unicode="&#xd4;" horiz-adv-x="1454" d="M184 448v508q0 262 103.5 380t330.5 118h220q226 0 329 -118t103 -380v-508q0 -257 -102.5 -363t-329.5 -106h-220q-227 0 -330.5 106t-103.5 363zM213 448q0 -167 44 -264t130.5 -137.5t230.5 -40.5h220q144 0 230 40.5t129.5 137.5t43.5 264v508q0 251 -95 361 t-308 110h-220q-215 0 -310 -109.5t-95 -361.5v-508zM545 1533l164 261h36l164 -261h-24l-158 234l-158 -234h-24z" />
<glyph unicode="&#xd5;" horiz-adv-x="1454" d="M184 448v508q0 262 103.5 380t330.5 118h220q226 0 329 -118t103 -380v-508q0 -257 -102.5 -362.5t-329.5 -105.5h-220q-113 0 -192.5 24t-134.5 78.5t-81 144.5t-26 221zM213 448q0 -167 44 -264t130.5 -137.5t230.5 -40.5h220q144 0 230 40.5t129.5 137.5t43.5 264v508 q0 251 -95 361t-308 110h-220q-215 0 -310 -109.5t-95 -361.5v-508zM451 1648q72 125 154 125q49 0 141 -58q86 -53 120 -53q28 0 55 21.5t60 71.5l22 -14q-70 -103 -136 -103q-47 0 -136 56q-87 55 -126 55q-34 0 -64 -25.5t-67 -88.5z" />
<glyph unicode="&#xd6;" horiz-adv-x="1454" d="M184 448v508q0 262 103.5 380t330.5 118h220q226 0 329 -118t103 -380v-508q0 -257 -102.5 -363t-329.5 -106h-220q-227 0 -330.5 106t-103.5 363zM213 448q0 -167 44 -264t130.5 -137.5t230.5 -40.5h220q144 0 230 40.5t129.5 137.5t43.5 264v508q0 251 -95 361 t-308 110h-220q-215 0 -310 -109.5t-95 -361.5v-508zM562 1645v36h37v-36h-37zM855 1645v36h37v-36h-37z" />
<glyph unicode="&#xd7;" horiz-adv-x="880" d="M102 240l319 319l-319 319l19 18l319 -318l318 318l19 -18l-318 -319l318 -319l-19 -18l-318 318l-319 -318z" />
<glyph unicode="&#xd8;" horiz-adv-x="1454" d="M184 448v508q0 262 103.5 380t330.5 118h220q53 0 98 -6l27 88h30l-28 -93q158 -29 231.5 -147t73.5 -340v-508q0 -257 -102.5 -362.5t-329.5 -105.5h-220q-61 0 -100 5l-27 -87h-30l28 91q-158 26 -231.5 134t-73.5 325zM213 448q0 -208 68 -309t216 -125l431 1408 q-35 5 -90 5h-220q-215 0 -310 -109.5t-95 -361.5v-508zM526 10q39 -4 92 -4h220q144 0 230 40.5t129.5 137.5t43.5 264v508q0 214 -68 324.5t-216 137.5z" />
<glyph unicode="&#xd9;" horiz-adv-x="1363" d="M184 448v986h29v-986q0 -166 40.5 -263.5t120.5 -138t212 -40.5h204q198 0 284.5 98t86.5 344v986h28v-986q0 -257 -94.5 -362.5t-304.5 -105.5h-204q-140 0 -226.5 43.5t-131 147t-44.5 277.5zM610 1794h37l107 -261h-24z" />
<glyph unicode="&#xda;" horiz-adv-x="1363" d="M184 448v986h29v-986q0 -166 40.5 -263.5t120.5 -138t212 -40.5h204q198 0 284.5 98t86.5 344v986h28v-986q0 -257 -94.5 -362.5t-304.5 -105.5h-204q-140 0 -226.5 43.5t-131 147t-44.5 277.5zM610 1533l107 261h37l-120 -261h-24z" />
<glyph unicode="&#xdb;" horiz-adv-x="1363" d="M184 448v986h29v-986q0 -166 40.5 -263.5t120.5 -138t212 -40.5h204q198 0 284.5 98t86.5 344v986h28v-986q0 -257 -94.5 -362.5t-304.5 -105.5h-204q-140 0 -226.5 43.5t-131 147t-44.5 277.5zM500 1533l164 261h36l164 -261h-24l-158 234l-158 -234h-24z" />
<glyph unicode="&#xdc;" horiz-adv-x="1363" d="M184 448v986h29v-986q0 -166 40.5 -263.5t120.5 -138t212 -40.5h204q198 0 284.5 98t86.5 344v986h28v-986q0 -257 -94.5 -362.5t-304.5 -105.5h-204q-140 0 -226.5 43.5t-131 147t-44.5 277.5zM517 1645v36h37v-36h-37zM810 1645v36h37v-36h-37z" />
<glyph unicode="&#xdd;" horiz-adv-x="1267" d="M102 1434h33l498 -842l498 841h33l-516 -872v-561h-29v561zM561 1533l107 261h37l-121 -261h-23z" />
<glyph unicode="&#xde;" horiz-adv-x="1329" d="M225 0v1434h29v-242h542q200 0 290 -78.5t90 -252.5v-113q0 -172 -90 -250.5t-290 -78.5h-542v-419h-29zM254 445h542q188 0 269.5 71t81.5 232v113q0 162 -81.5 233t-269.5 71h-542v-720z" />
<glyph unicode="&#xdf;" horiz-adv-x="1294" d="M225 0v1209q0 133 79.5 207.5t243.5 74.5h163q162 0 242 -74.5t80 -207.5v-177q0 -195 -172 -248q258 -42 258 -309v-194q0 -301 -353 -301h-180q-144 0 -227 49l9 26q80 -49 218 -49h180q325 0 325 275v194q0 289 -325 289h-131v27h76q293 0 293 241v177q0 255 -293 255 h-163q-294 0 -294 -255v-1209h-29z" />
<glyph unicode="&#xe0;" d="M154 315q4 195 80.5 280t259.5 85h254q176 0 245 -48v148q0 98 -15 159t-53.5 98t-96 51t-150.5 14h-122q-170 0 -239 -56t-77 -212l-27 2q9 167 85.5 228.5t257.5 61.5h122q98 0 160.5 -15.5t104.5 -55.5t59.5 -106t17.5 -169v-780h-27v116q-242 -136 -390 -136h-142 q-145 0 -226 77.5t-81 257.5zM180 315q0 -168 73.5 -239.5t207.5 -71.5h142q141 0 390 141v452q-55 58 -245 58h-254q-170 0 -240 -77.5t-74 -262.5zM547 1466h36l107 -260h-23z" />
<glyph unicode="&#xe1;" d="M154 315q4 195 80.5 280t259.5 85h254q176 0 245 -48v148q0 98 -15 159t-53.5 98t-96 51t-150.5 14h-122q-170 0 -239 -56t-77 -212l-27 2q9 167 85.5 228.5t257.5 61.5h122q98 0 160.5 -15.5t104.5 -55.5t59.5 -106t17.5 -169v-780h-27v116q-242 -136 -390 -136h-142 q-145 0 -226 77.5t-81 257.5zM180 315q0 -168 73.5 -239.5t207.5 -71.5h142q141 0 390 141v452q-55 58 -245 58h-254q-170 0 -240 -77.5t-74 -262.5zM547 1206l107 260h36l-120 -260h-23z" />
<glyph unicode="&#xe2;" d="M154 315q4 195 80.5 280t259.5 85h254q176 0 245 -48v148q0 98 -15 159t-53.5 98t-96 51t-150.5 14h-122q-170 0 -239 -56t-77 -212l-27 2q9 167 85.5 228.5t257.5 61.5h122q98 0 160.5 -15.5t104.5 -55.5t59.5 -106t17.5 -169v-780h-27v116q-242 -136 -390 -136h-142 q-145 0 -226 77.5t-81 257.5zM180 315q0 -168 73.5 -239.5t207.5 -71.5h142q141 0 390 141v452q-55 58 -245 58h-254q-170 0 -240 -77.5t-74 -262.5zM437 1206l163 260h37l163 -260h-23l-159 233l-158 -233h-23z" />
<glyph unicode="&#xe3;" d="M154 315q4 195 80.5 280t259.5 85h254q176 0 245 -48v148q0 98 -15 159t-53.5 98t-96 51t-150.5 14h-122q-170 0 -239 -56t-77 -212l-27 2q9 167 85.5 228.5t257.5 61.5h122q98 0 160.5 -15.5t104.5 -55.5t59.5 -106t17.5 -169v-780h-27v116q-242 -136 -390 -136h-142 q-145 0 -226 77.5t-81 257.5zM180 315q0 -168 73.5 -239.5t207.5 -71.5h142q141 0 390 141v452q-55 58 -245 58h-254q-170 0 -240 -77.5t-74 -262.5zM343 1320q73 126 154 126q22 0 48.5 -10t43.5 -19.5t48 -29.5q86 -53 121 -53q28 0 54.5 21.5t59.5 71.5l22 -13 q-70 -104 -136 -104q-46 0 -135 56q-87 55 -127 55q-34 0 -63.5 -25t-66.5 -88z" />
<glyph unicode="&#xe4;" d="M154 315q4 195 80.5 280t259.5 85h254q176 0 245 -48v148q0 98 -15 159t-53.5 98t-96 51t-150.5 14h-122q-170 0 -239 -56t-77 -212l-27 2q9 167 85.5 228.5t257.5 61.5h122q98 0 160.5 -15.5t104.5 -55.5t59.5 -106t17.5 -169v-780h-27v116q-242 -136 -390 -136h-142 q-145 0 -226 77.5t-81 257.5zM180 315q0 -168 73.5 -239.5t207.5 -71.5h142q141 0 390 141v452q-55 58 -245 58h-254q-170 0 -240 -77.5t-74 -262.5zM454 1317v37h36v-37h-36zM746 1317v37h37v-37h-37z" />
<glyph unicode="&#xe5;" d="M154 315q4 195 80.5 280t259.5 85h254q176 0 245 -48v148q0 98 -15 159t-53.5 98t-96 51t-150.5 14h-122q-170 0 -239 -56t-77 -212l-27 2q9 167 85.5 228.5t257.5 61.5h122q98 0 160.5 -15.5t104.5 -55.5t59.5 -106t17.5 -169v-780h-27v116q-242 -136 -390 -136h-142 q-145 0 -226 77.5t-81 257.5zM180 315q0 -168 73.5 -239.5t207.5 -71.5h142q141 0 390 141v452q-55 58 -245 58h-254q-170 0 -240 -77.5t-74 -262.5zM426 1404v72q0 74 34.5 109t103.5 34h101q146 0 146 -143v-72q0 -142 -146 -142h-101q-138 0 -138 142zM453 1404 q0 -62 27 -90t84 -28h101q119 0 119 118v72q0 119 -119 119h-101q-58 1 -84.5 -27t-26.5 -92v-72z" />
<glyph unicode="&#xe6;" horiz-adv-x="2019" d="M154 315q4 195 80.5 280t259.5 85h254q176 0 245 -48v148q0 98 -15 159t-53.5 98t-96 51t-150.5 14h-122q-170 0 -239 -56t-77 -212l-27 2q9 167 85.5 228.5t257.5 61.5h122q158 0 234 -46t98 -166q29 114 113.5 163t234.5 49h166q190 0 276 -82t86 -282v-215h-866v-180 q0 -194 79.5 -278.5t258.5 -84.5h166q155 0 234 63.5t96 205.5l27 -3q-19 -151 -105 -220.5t-252 -69.5h-166q-138 0 -221 47t-117 147v-174h-27v116q-242 -136 -390 -136h-142q-145 0 -226 77.5t-81 257.5zM180 315q0 -168 73.5 -239.5t207.5 -71.5h142q141 0 390 141v452 q-55 58 -245 58h-254q-170 0 -240 -77.5t-74 -262.5zM1020 571h840v191q0 189 -78 264.5t-258 75.5h-166q-180 0 -259 -75.5t-79 -264.5v-191z" />
<glyph unicode="&#xe7;" horiz-adv-x="1155" d="M143 367v372q0 203 87 295t278 92h158q166 0 252 -69.5t105 -221.5l-27 -3q-17 142 -96 206t-234 64h-158q-179 0 -258.5 -84.5t-79.5 -278.5v-372q0 -194 79.5 -278.5t258.5 -84.5h158q155 0 234 64t96 206l27 -3q-19 -152 -105 -221.5t-252 -69.5h-100l-21 -74h16 q41 0 65 -2t50 -10t39.5 -24t22 -44t8.5 -70q0 -35 -5 -60.5t-17 -42t-25.5 -26.5t-37.5 -14.5t-45 -6t-55 -1.5h-152v26h152q50 0 74.5 3t46 15t28.5 37t7 70q0 36 -6 58.5t-15 36t-31 19.5t-42.5 7.5t-61.5 1.5h-54l30 101h-29q-191 0 -278 92t-87 295z" />
<glyph unicode="&#xe8;" horiz-adv-x="1169" d="M143 367v395q0 199 87 281.5t278 82.5h166q190 0 276 -82t86 -282v-215h-866v-180q0 -194 79.5 -278.5t258.5 -84.5h166q155 0 234 63.5t96 205.5l27 -3q-19 -151 -105 -220.5t-252 -69.5h-166q-191 0 -278 92t-87 295zM170 571h840v191q0 189 -78 264.5t-258 75.5h-166 q-180 0 -259 -75.5t-79 -264.5v-191zM514 1466h37l107 -260h-24z" />
<glyph unicode="&#xe9;" horiz-adv-x="1169" d="M143 367v395q0 199 87 281.5t278 82.5h166q190 0 276 -82t86 -282v-215h-866v-180q0 -194 79.5 -278.5t258.5 -84.5h166q155 0 234 63.5t96 205.5l27 -3q-19 -151 -105 -220.5t-252 -69.5h-166q-191 0 -278 92t-87 295zM170 571h840v191q0 189 -78 264.5t-258 75.5h-166 q-180 0 -259 -75.5t-79 -264.5v-191zM514 1206l107 260h37l-121 -260h-23z" />
<glyph unicode="&#xea;" horiz-adv-x="1169" d="M143 367v395q0 199 87 281.5t278 82.5h166q190 0 276 -82t86 -282v-215h-866v-180q0 -194 79.5 -278.5t258.5 -84.5h166q155 0 234 63.5t96 205.5l27 -3q-19 -151 -105 -220.5t-252 -69.5h-166q-191 0 -278 92t-87 295zM170 571h840v191q0 189 -78 264.5t-258 75.5h-166 q-180 0 -259 -75.5t-79 -264.5v-191zM404 1206l163 260h37l164 -260h-24l-158 233l-159 -233h-23z" />
<glyph unicode="&#xeb;" horiz-adv-x="1169" d="M143 367v395q0 199 87 281.5t278 82.5h166q190 0 276 -82t86 -282v-215h-866v-180q0 -194 79.5 -278.5t258.5 -84.5h166q155 0 234 63.5t96 205.5l27 -3q-19 -151 -105 -220.5t-252 -69.5h-166q-191 0 -278 92t-87 295zM170 571h840v191q0 189 -78 264.5t-258 75.5h-166 q-180 0 -259 -75.5t-79 -264.5v-191zM421 1317v37h37v-37h-37zM714 1317v37h37v-37h-37z" />
<glyph unicode="&#xec;" horiz-adv-x="446" d="M157 1466h37l107 -260h-24zM215 0v1106h27v-1106h-27z" />
<glyph unicode="&#xed;" horiz-adv-x="446" d="M157 1206l107 260h37l-120 -260h-24zM215 0v1106h27v-1106h-27z" />
<glyph unicode="&#xee;" horiz-adv-x="446" d="M47 1206l163 260h37l164 -260h-24l-158 233l-159 -233h-23zM215 0v1106h27v-1106h-27z" />
<glyph unicode="&#xef;" horiz-adv-x="446" d="M64 1317v37h37v-37h-37zM215 0v1106h27v-1106h-27zM357 1317v37h37v-37h-37z" />
<glyph unicode="&#xf0;" horiz-adv-x="1243" d="M133 549q0 231 90 347t293 117h179q127 0 313 -120l52 -34v44q0 149 -84 268l-85 122l-178 -124l-15 22l177 124q-149 194 -397 194h-197v27h197q127 0 235 -53t185 -152l174 121l15 -21l-173 -122l86 -123q89 -126 89 -283v-475q0 -246 -90 -347t-288 -101h-202 q-132 0 -212.5 53t-122 179t-41.5 337zM162 549q0 -205 38 -324.5t112 -169t197 -49.5h202q186 0 267.5 93.5t81.5 328.5v399l-67 43q-183 117 -298 116h-179q-189 0 -271.5 -107.5t-82.5 -329.5z" />
<glyph unicode="&#xf1;" horiz-adv-x="1255" d="M205 0v1106h26v-115q238 135 388 135h112q183 0 259.5 -84.5t80.5 -279.5v-762h-27v761q-4 185 -73.5 263t-239.5 78h-112q-143 0 -388 -140v-962h-26zM353 1320q73 126 154 126q22 0 48.5 -10t43.5 -19.5t48 -29.5q86 -53 121 -53q28 0 55 21.5t60 71.5l22 -13 q-70 -104 -137 -104q-46 0 -135 56q-87 55 -126 55q-34 0 -64.5 -25t-66.5 -88z" />
<glyph unicode="&#xf2;" horiz-adv-x="1198" d="M143 344v395q0 203 87 295t278 92h184q190 0 276.5 -92t86.5 -295v-395q0 -200 -86 -282t-277 -82h-184q-191 0 -278 82.5t-87 281.5zM170 344q0 -189 79 -264.5t259 -75.5h184q180 0 258 75.5t78 264.5v395q0 193 -79 278t-257 85h-184q-179 0 -258.5 -84.5 t-79.5 -278.5v-395zM528 1466h37l107 -260h-24z" />
<glyph unicode="&#xf3;" horiz-adv-x="1198" d="M143 344v395q0 203 87 295t278 92h184q190 0 276.5 -92t86.5 -295v-395q0 -200 -86 -282t-277 -82h-184q-191 0 -278 82.5t-87 281.5zM170 344q0 -189 79 -264.5t259 -75.5h184q180 0 258 75.5t78 264.5v395q0 193 -79 278t-257 85h-184q-179 0 -258.5 -84.5 t-79.5 -278.5v-395zM528 1206l107 260h37l-120 -260h-24z" />
<glyph unicode="&#xf4;" horiz-adv-x="1198" d="M143 344v395q0 203 87 295t278 92h184q190 0 276.5 -92t86.5 -295v-395q0 -200 -86 -282t-277 -82h-184q-191 0 -278 82.5t-87 281.5zM170 344q0 -189 79 -264.5t259 -75.5h184q180 0 258 75.5t78 264.5v395q0 193 -79 278t-257 85h-184q-179 0 -258.5 -84.5 t-79.5 -278.5v-395zM418 1206l164 260h36l164 -260h-24l-158 233l-158 -233h-24z" />
<glyph unicode="&#xf5;" horiz-adv-x="1198" d="M143 344v395q0 203 87 295t278 92h184q190 0 276.5 -92t86.5 -295v-395q0 -200 -86 -282t-277 -82h-184q-191 0 -278 82.5t-87 281.5zM170 344q0 -189 79 -264.5t259 -75.5h184q180 0 258 75.5t78 264.5v395q0 193 -79 278t-257 85h-184q-179 0 -258.5 -84.5 t-79.5 -278.5v-395zM324 1320q73 126 154 126q22 0 48.5 -10t44.5 -20t48 -29q86 -53 120 -53q28 0 55 21.5t60 71.5l22 -13q-70 -104 -136 -104q-47 0 -136 56q-87 55 -126 55q-34 0 -64.5 -25t-66.5 -88z" />
<glyph unicode="&#xf6;" horiz-adv-x="1198" d="M143 344v395q0 203 87 295t278 92h184q190 0 276.5 -92t86.5 -295v-395q0 -200 -86 -282t-277 -82h-184q-191 0 -278 82.5t-87 281.5zM170 344q0 -189 79 -264.5t259 -75.5h184q180 0 258 75.5t78 264.5v395q0 193 -79 278t-257 85h-184q-179 0 -258.5 -84.5 t-79.5 -278.5v-395zM435 1317v37h37v-37h-37zM728 1317v37h37v-37h-37z" />
<glyph unicode="&#xf7;" horiz-adv-x="1132" d="M102 546v26h928v-26h-928zM550 0v139h33v-139h-33zM550 979v139h33v-139h-33z" />
<glyph unicode="&#xf8;" horiz-adv-x="1198" d="M143 344v395q0 203 87 295t278 92h184q36 0 67 -3l25 85h30l-27 -88q139 -21 203.5 -113t64.5 -268v-395q0 -200 -86 -282t-277 -82h-184q-46 0 -68 2l-26 -84h-30l26 87q-138 18 -202.5 102t-64.5 257zM170 344q0 -164 59 -241.5t189 -93.5l333 1090q-29 3 -59 3h-184 q-179 0 -258.5 -84.5t-79.5 -278.5v-395zM447 6q38 -2 61 -2h184q180 0 258 75.5t78 264.5v395q0 168 -59 253t-189 104z" />
<glyph unicode="&#xf9;" horiz-adv-x="1261" d="M184 344v762h27v-761q4 -185 76 -263t248 -78h115q150 0 400 139v963h26v-1106h-26v115q-247 -135 -400 -135h-115q-188 0 -267.5 84.5t-83.5 279.5zM559 1466h37l107 -260h-24z" />
<glyph unicode="&#xfa;" horiz-adv-x="1261" d="M184 344v762h27v-761q4 -185 76 -263t248 -78h115q150 0 400 139v963h26v-1106h-26v115q-247 -135 -400 -135h-115q-188 0 -267.5 84.5t-83.5 279.5zM559 1206l107 260h37l-121 -260h-23z" />
<glyph unicode="&#xfb;" horiz-adv-x="1261" d="M184 344v762h27v-761q4 -185 76 -263t248 -78h115q150 0 400 139v963h26v-1106h-26v115q-245 -135 -400 -135h-115q-188 0 -267.5 84.5t-83.5 279.5zM449 1206l163 260h37l164 -260h-24l-158 233l-159 -233h-23z" />
<glyph unicode="&#xfc;" horiz-adv-x="1261" d="M184 344v762h27v-761q4 -185 76 -263t248 -78h115q150 0 400 139v963h26v-1106h-26v115q-245 -135 -400 -135h-115q-188 0 -267.5 84.5t-83.5 279.5zM466 1317v37h37v-37h-37zM759 1317v37h37v-37h-37z" />
<glyph unicode="&#xfd;" horiz-adv-x="1064" d="M61 1106h29l403 -1081h80l403 1081h28l-549 -1475h-28l137 369h-90zM461 1206l107 260h36l-120 -260h-23z" />
<glyph unicode="&#xfe;" horiz-adv-x="1224" d="M215 -369v1803h27v-443q238 135 387 135h112q183 0 259.5 -84.5t80.5 -279.5v-418q-4 -195 -80.5 -279.5t-259.5 -84.5h-112q-149 0 -387 135v-484h-27zM242 143q243 -139 387 -139h112q170 0 240 77.5t74 262.5v418q-4 185 -74 262.5t-240 77.5h-112q-142 0 -387 -140 v-819z" />
<glyph unicode="&#xff;" horiz-adv-x="1064" d="M61 1106h29l403 -1081h80l403 1081h28l-549 -1475h-28l137 369h-90zM368 1317v37h36v-37h-36zM660 1317v37h37v-37h-37z" />
<glyph unicode="&#x152;" horiz-adv-x="2211" d="M184 448v508q0 262 103.5 380t330.5 118h220q166 0 265 -62.5t138 -197.5v240h825v-27h-796v-652h755v-27h-755v-701h808v-27h-837v218q-40 -127 -137.5 -182.5t-265.5 -55.5h-220q-113 0 -192.5 24t-134.5 78.5t-81 144.5t-26 221zM213 448q0 -167 44 -264t130.5 -137.5 t230.5 -40.5h220q144 0 230 40.5t129.5 137.5t43.5 264v508q0 251 -95 361t-308 110h-220q-215 0 -310 -109.5t-95 -361.5v-508z" />
<glyph unicode="&#x153;" horiz-adv-x="2054" d="M143 344v395q0 203 87 295t278 92h184q151 0 235.5 -56t112.5 -178q26 126 111 180t242 54h166q190 0 276 -82t86 -282v-215h-866v-180q0 -194 79.5 -278.5t258.5 -84.5h166q155 0 234 63.5t96 205.5l27 -3q-19 -151 -105 -220.5t-252 -69.5h-166q-151 0 -236.5 56.5 t-113.5 177.5q-25 -126 -110 -180t-241 -54h-184q-191 0 -278 82.5t-87 281.5zM170 344q0 -189 79 -264.5t259 -75.5h184q180 0 258 75.5t78 264.5v395q0 193 -79 278t-257 85h-184q-179 0 -258.5 -84.5t-79.5 -278.5v-395zM1055 571h839v191q0 189 -78 264.5t-257 75.5 h-166q-180 0 -259 -75.5t-79 -264.5v-191z" />
<glyph unicode="&#x178;" horiz-adv-x="1267" d="M102 1434h33l498 -842l498 841h33l-516 -872v-561h-29v561zM468 1645v36h37v-36h-37zM761 1645v36h37v-36h-37z" />
<glyph unicode="&#x2c6;" horiz-adv-x="569" d="M102 1206l164 260h37l163 -260h-23l-159 233l-158 -233h-24z" />
<glyph unicode="&#x2dc;" horiz-adv-x="755" d="M102 1320q73 126 154 126q22 0 48.5 -10t44.5 -20t48 -29q86 -53 121 -53q28 0 54.5 21.5t59.5 71.5l22 -13q-70 -104 -136 -104q-46 0 -135 56q-87 55 -127 55q-34 0 -64.5 -25t-66.5 -88z" />
<glyph unicode="&#x2000;" horiz-adv-x="973" />
<glyph unicode="&#x2001;" horiz-adv-x="1947" />
<glyph unicode="&#x2002;" horiz-adv-x="973" />
<glyph unicode="&#x2003;" horiz-adv-x="1947" />
<glyph unicode="&#x2004;" horiz-adv-x="649" />
<glyph unicode="&#x2005;" horiz-adv-x="486" />
<glyph unicode="&#x2006;" horiz-adv-x="324" />
<glyph unicode="&#x2007;" horiz-adv-x="324" />
<glyph unicode="&#x2008;" horiz-adv-x="243" />
<glyph unicode="&#x2009;" horiz-adv-x="389" />
<glyph unicode="&#x200a;" horiz-adv-x="108" />
<glyph unicode="&#x2010;" horiz-adv-x="708" d="M102 572v27h504v-27h-504z" />
<glyph unicode="&#x2011;" horiz-adv-x="708" d="M102 572v27h504v-27h-504z" />
<glyph unicode="&#x2012;" horiz-adv-x="708" d="M102 572v27h504v-27h-504z" />
<glyph unicode="&#x2013;" horiz-adv-x="1015" d="M102 528v27h812v-27h-812z" />
<glyph unicode="&#x2014;" horiz-adv-x="1392" d="M102 528v27h1189v-27h-1189z" />
<glyph unicode="&#x2018;" horiz-adv-x="280" d="M102 1147v139l93 182h25l-85 -182v-139h-33z" />
<glyph unicode="&#x2019;" horiz-adv-x="280" d="M61 1147l85 182v139h33v-139l-93 -182h-25z" />
<glyph unicode="&#x201a;" horiz-adv-x="280" d="M61 -182l85 182v139h33v-139l-93 -182h-25z" />
<glyph unicode="&#x201c;" horiz-adv-x="475" d="M102 1147v139l93 182h25l-85 -182v-139h-33zM297 1147v139l93 182h24l-85 -182v-139h-32z" />
<glyph unicode="&#x201d;" horiz-adv-x="475" d="M61 1147l85 182v139h33v-139l-93 -182h-25zM256 1147l84 182v139h33v-139l-93 -182h-24z" />
<glyph unicode="&#x201e;" horiz-adv-x="475" d="M61 -182l85 182v139h33v-139l-93 -182h-25zM256 -182l84 182v139h33v-139l-93 -182h-24z" />
<glyph unicode="&#x2022;" horiz-adv-x="542" d="M102 540v87q0 55 35.5 90t90.5 35h87q55 0 90 -35t35 -90v-87q0 -55 -35 -90.5t-90 -35.5h-87q-55 0 -90.5 35.5t-35.5 90.5z" />
<glyph unicode="&#x2026;" horiz-adv-x="911" d="M102 0v139h33v-139h-33zM439 0v139h33v-139h-33zM775 0v139h33v-139h-33z" />
<glyph unicode="&#x202f;" horiz-adv-x="389" />
<glyph unicode="&#x2039;" horiz-adv-x="571" d="M102 565l351 418l16 -16l-330 -402l330 -403l-16 -16z" />
<glyph unicode="&#x203a;" horiz-adv-x="571" d="M102 162l330 403l-330 402l16 16l351 -418l-351 -419z" />
<glyph unicode="&#x205f;" horiz-adv-x="486" />
<glyph unicode="&#x20ac;" horiz-adv-x="1470" d="M143 532v27h142v318h-142v26h142v53q0 262 103.5 380t330.5 118h182q198 0 301 -89.5t125 -284.5l-29 -3q-21 184 -116 267t-281 83h-182q-215 0 -310.5 -109.5t-95.5 -361.5v-53h725v-26h-725v-318h634v-27h-634v-55q0 -252 95.5 -361.5t310.5 -109.5h182q186 0 281 83 t116 267l29 -3q-22 -195 -125 -284t-301 -89h-182q-227 0 -330.5 117.5t-103.5 379.5v55h-142z" />
<glyph unicode="&#x2122;" horiz-adv-x="1480" d="M61 1410v24h512v-24h-242v-703h-27v703h-243zM720 707v727h111l218 -689l217 689h111v-727h-26v703h-65l-222 -703h-31l-222 703h-65v-703h-26z" />
<glyph unicode="&#x25fc;" horiz-adv-x="1105" d="M0 0v1106h1106v-1106h-1106z" />
<glyph unicode="&#xfb03;" horiz-adv-x="1755" d="M82 1081v25h164v96q0 133 25 205t87 105q68 36 211 36v-24q-139 0 -200 -35q-54 -31 -75.5 -97.5t-21.5 -189.5v-96h625v96q0 133 25 205t87 105q68 36 212 36v-24q-140 0 -201 -35q-54 -31 -75 -97t-21 -190v-96h623v-1106h-26v1081h-597v-1081h-27v1081h-625v-1081h-26 v1081h-164z" />
<glyph unicode="&#xfb04;" horiz-adv-x="1728" d="M82 1081v25h164v84q0 133 25 205t87 105q68 36 211 36v-25q-141 0 -200 -34q-54 -31 -75.5 -97.5t-21.5 -189.5v-84h625v84q0 133 25 205t87 105q68 36 212 36h323v-1536h-26v1511h-297q-142 0 -201 -34q-54 -31 -75 -97t-21 -190v-84h297v-25h-297v-1081h-27v1081h-625 v-1081h-26v1081h-164z" />
</font>
</defs>
</svg>
