<?xml version="1.0" standalone="no"?>
<!DOCTYPE svg PUBLIC "-//W3C//DTD SVG 1.1//EN" "http://www.w3.org/Graphics/SVG/1.1/DTD/svg11.dtd" >
<svg xmlns="http://www.w3.org/2000/svg">
<metadata></metadata>
<defs>
<font id="gunarlight" horiz-adv-x="1204" >
<font-face units-per-em="2048" ascent="1536" descent="-512" />
<missing-glyph horiz-adv-x="614" />
<glyph unicode="&#xfb01;" horiz-adv-x="1153" d="M79 1047v59h160v90q0 132 27 205.5t93 107.5q78 41 246 36v-57q-135 1 -197 -31q-52 -28 -72.5 -88.5t-20.5 -173.5v-89h647v-1106h-76v1047h-571v-1047h-76v1047h-160z" />
<glyph unicode="&#xfb02;" horiz-adv-x="1128" d="M79 1047v59h160v79q0 132 27 205.5t93 107.5q73 38 223 38h377v-1536h-76v1477h-280q-137 2 -195 -30q-52 -28 -72.5 -88.5t-20.5 -173.5v-79h287v-59h-287v-1047h-76v1047h-160z" />
<glyph horiz-adv-x="2048" />
<glyph horiz-adv-x="2048" />
<glyph unicode="&#xd;" horiz-adv-x="2048" />
<glyph unicode=" "  horiz-adv-x="614" />
<glyph unicode="&#x09;" horiz-adv-x="614" />
<glyph unicode="&#xa0;" horiz-adv-x="614" />
<glyph unicode="!" horiz-adv-x="282" d="M97 395v1039h89v-1039h-89zM100 0v170h84v-170h-84z" />
<glyph unicode="&#x22;" horiz-adv-x="544" d="M97 1434h75l-5 -519h-64zM372 1434h75l-5 -519h-64z" />
<glyph unicode="#" horiz-adv-x="1325" d="M97 470l11 60h243l73 417h-243l11 60h243l68 386h71l-68 -386h387l68 386h72l-68 -386h263l-10 -60h-264l-73 -417h263l-10 -60h-264l-83 -470h-71l83 470h-388l-83 -470h-71l83 470h-243zM422 530h387l74 417h-388z" />
<glyph unicode="$" horiz-adv-x="1282" d="M123 313l78 3q0 -137 97 -200t336 -63q238 0 337 62t99 183v117q0 56 -10 96.5t-35 70.5t-57 49.5t-85.5 33.5t-109.5 22t-141 16q-109 10 -180.5 22t-133 32.5t-96 50.5t-54 75t-21.5 108v141q0 77 18.5 131t66 98t137.5 66.5t225 24.5v173h75v-173q107 -2 185 -18 t127 -41.5t78 -66t40 -86t11 -107.5l-79 -3q0 67 -16 111t-59 79t-124.5 51t-206.5 16q-123 0 -203 -16.5t-122 -52t-57.5 -79t-15.5 -109.5v-124q2 -49 17 -83t42.5 -58t80 -40t116 -26.5t163.5 -19.5q109 -10 180 -22t138 -36.5t104.5 -61.5t59.5 -95t22 -139v-132 q0 -145 -113 -224t-368 -83v-179h-75v179q-252 4 -361.5 83.5t-109.5 243.5z" />
<glyph unicode="%" horiz-adv-x="1540" d="M97 951v251q0 129 51 190.5t159 61.5h95q108 0 158.5 -61.5t50.5 -190.5v-251q0 -127 -51 -182.5t-158 -55.5h-95q-107 0 -158.5 55.5t-51.5 182.5zM158 953q0 -108 35 -149t117 -41h89q82 0 117 41t35 149v249q0 110 -35.5 156t-116.5 46h-89q-82 0 -117 -46t-35 -156 v-249zM207 -35l1046 1509h74l-1047 -1509h-73zM930 218v250q0 130 51 191.5t159 61.5h94q108 0 158.5 -62t50.5 -191v-250q0 -127 -51 -182.5t-158 -55.5h-94q-107 0 -158.5 55.5t-51.5 182.5zM990 219q0 -107 35 -148t118 -41h88q83 0 117.5 40.5t34.5 148.5v249 q0 110 -35.5 156t-116.5 46h-88q-82 0 -117.5 -46t-35.5 -156v-249z" />
<glyph unicode="&#x26;" horiz-adv-x="1429" d="M97 308v192q0 156 93 246t281 96l-59 64q-50 56 -50 152v146q0 116 71 183t214 67h85q143 0 213.5 -67t70.5 -183v-141h-70v137q0 191 -213 191h-79q-214 0 -214 -191v-142q0 -81 40 -124l633 -686q15 48 15 109v272h74v-305q0 -87 -28 -149l157 -175h-92l-110 119 q-88 -140 -339 -140h-291q-200 0 -301 85.5t-101 243.5zM177 315q0 -270 330 -270h274q233 0 299 132l-560 607h-20q-323 -3 -323 -285v-184z" />
<glyph unicode="'" horiz-adv-x="270" d="M97 1434h75l-5 -519h-64z" />
<glyph unicode="(" horiz-adv-x="415" d="M97 197v768q0 170 90 318l115 192l53 -29l-109 -200q-71 -130 -71 -281v-769q0 -151 71 -280l109 -201l-53 -28l-115 192q-90 148 -90 318z" />
<glyph unicode=")" horiz-adv-x="415" d="M61 -285l109 201q72 131 72 280v769q0 151 -71 281l-109 200l53 29l115 -192q89 -146 89 -318v-768q0 -170 -90 -318l-115 -192z" />
<glyph unicode="*" horiz-adv-x="854" d="M97 1174l18 54l289 -100l-6 306h57l-6 -306l289 100l18 -54l-294 -88l186 -245l-46 -33l-175 251l-175 -251l-46 33l185 245z" />
<glyph unicode="+" horiz-adv-x="1153" d="M97 529v60h445v440h68v-440h445v-60h-445v-440h-68v440h-445z" />
<glyph unicode="," horiz-adv-x="331" d="M59 -213l92 213v170h84v-167l-107 -216h-69z" />
<glyph unicode="-" horiz-adv-x="737" d="M97 555v61h544v-61h-544z" />
<glyph unicode="." horiz-adv-x="278" d="M97 0v170h84v-170h-84z" />
<glyph unicode="/" horiz-adv-x="649" d="M59 -41l463 1516h69l-463 -1516h-69z" />
<glyph unicode="0" horiz-adv-x="1277" d="M151 435v495q0 252 94 367.5t301 115.5h187q205 0 299 -116t94 -367v-495q0 -247 -94 -351t-299 -104h-187q-205 0 -300 104t-95 351zM230 437q0 -148 35 -234t103.5 -121t183.5 -35h176q115 0 183 35t102.5 121t34.5 234v493q0 223 -75.5 319.5t-244.5 96.5h-176 q-171 0 -246.5 -96.5t-75.5 -319.5v-493z" />
<glyph unicode="1" horiz-adv-x="636" d="M94 1257l291 136h61v-1392h-79v1313l-250 -116z" />
<glyph unicode="2" horiz-adv-x="1214" d="M114 0v338q0 57 11 101t36 77.5t53.5 58t76.5 46.5t91 38t109 38q61 20 94 32q35 12 85.5 29.5t75 26t61 22t53.5 21.5t41.5 21t34.5 23.5t23.5 25.5t18.5 31.5t9 36.5t5 45v74q0 53 -9 91t-33 72t-66 54.5t-109 32t-161 11.5q-119 0 -196 -16t-118 -51.5t-56 -80.5 t-15 -113h-77q0 64 11 111t41 90t81 69.5t133.5 42t196.5 15.5q111 0 192.5 -15.5t132 -41.5t80.5 -68t41 -88t11 -108v-96q-2 -66 -18 -107t-70.5 -76t-97 -52t-159.5 -57q-70 -24 -109 -38q-31 -11 -81 -28t-73.5 -25t-62.5 -22.5t-56.5 -24t-45 -25t-39.5 -29t-28 -33 t-22 -40.5t-11 -47.5t-5 -58.5v-265h878v-68h-958z" />
<glyph unicode="3" horiz-adv-x="1234" d="M114 283h75q0 -238 327 -238h163q325 0 325 238v166q0 121 -79.5 187t-245.5 66h-204v63h195q292 0 292 208v155q0 220 -292 220h-146q-293 0 -293 -222h-74q-2 136 86.5 211.5t277.5 75.5h155q183 0 274.5 -74.5t91.5 -203.5v-163q0 -184 -192 -236q118 -27 176 -100.5 t58 -182.5v-177q0 -143 -100 -220t-299 -77h-173q-398 0 -398 304z" />
<glyph unicode="4" horiz-adv-x="1257" d="M76 390v81l726 922h140v-936h222v-67h-222v-390h-80v390h-786zM155 457h707v850h-38z" />
<glyph unicode="5" horiz-adv-x="1232" d="M115 310h76q0 -263 327 -263h170q325 0 325 263v184q0 279 -325 280h-192q-105 0 -263 -79l-76 6l59 692h820v-65h-749l-49 -563q157 73 264 72h192q199 0 299 -90.5t100 -248.5v-196q0 -155 -99.5 -239t-299.5 -84h-180q-202 0 -300.5 85.5t-98.5 245.5z" />
<glyph unicode="6" horiz-adv-x="1267" d="M151 435v495q0 252 94 367.5t301 115.5h155q164 0 266 -72t104 -214h-74q0 110 -82.5 166t-217.5 56h-145q-170 0 -245.5 -96.5t-75.5 -317.5v-237l47 24q173 87 292 86h167q210 0 304 -94.5t94 -278.5q0 -247 -93.5 -351t-298.5 -104h-197q-205 0 -300 104t-95 351z M231 434q0 -217 75.5 -303t245.5 -86h186q170 0 244 86t74 303q0 157 -75 234t-248 77h-167q-109 0 -276 -85l-59 -31v-195z" />
<glyph unicode="7" horiz-adv-x="1095" d="M76 1327v67h961v-67l-712 -1326h-89l712 1326h-872z" />
<glyph unicode="8" horiz-adv-x="1292" d="M151 276v176q0 229 239 284q-196 50 -196 237v162q0 130 91.5 204t275.5 74h173q183 0 274 -74.5t91 -203.5v-162q0 -187 -195 -237q120 -28 179 -101.5t59 -182.5v-176q0 -143 -100.5 -219.5t-299.5 -76.5h-189q-200 0 -301 77t-101 219zM231 283q0 -238 327 -238h179 q325 0 325 238v169q0 252 -325 252h-179q-327 0 -327 -252v-169zM274 975q0 -207 293 -207h161q291 0 291 207v154q0 219 -291 219h-161q-293 0 -293 -219v-154z" />
<glyph unicode="9" horiz-adv-x="1267" d="M132 958q0 247 93.5 351t298.5 104h197q205 0 300 -104t95 -351v-496q0 -252 -94 -367t-301 -115h-155q-164 0 -265.5 71.5t-103.5 213.5h73q0 -110 82.5 -165.5t217.5 -55.5h146q169 0 244.5 96.5t75.5 317.5v237l-47 -24q-173 -87 -292 -86h-167q-210 0 -304 94.5 t-94 278.5zM211 959q0 -157 75 -234t249 -77h166q109 0 276 85l59 30v196q0 217 -75 303t-245 86h-187q-170 0 -244 -86t-74 -303z" />
<glyph unicode=":" horiz-adv-x="278" d="M97 0v170h84v-170h-84zM97 951v170h84v-170h-84z" />
<glyph unicode=";" horiz-adv-x="331" d="M59 -213l92 213v170h84v-167l-107 -216h-69zM151 951v170h84v-170h-84z" />
<glyph unicode="&#x3c;" horiz-adv-x="1126" d="M97 634v74l932 456v-71l-863 -422l863 -422v-71z" />
<glyph unicode="=" horiz-adv-x="1153" d="M97 371v60h958v-60h-958zM97 757v60h958v-60h-958z" />
<glyph unicode="&#x3e;" horiz-adv-x="1126" d="M97 178v71l864 422l-864 422v71l932 -456v-74z" />
<glyph unicode="?" horiz-adv-x="1112" d="M96 1126q0 64 10.5 111t40.5 90t81 69.5t133.5 42t196.5 15.5q111 0 192.5 -15.5t132 -42t80.5 -68.5t41 -88t11 -108v-81q0 -60 -17.5 -101.5t-68 -73.5t-87 -47.5t-126.5 -46.5l-51 -18q-29 -10 -45.5 -16.5t-45.5 -20t-46.5 -26.5t-40 -34.5t-34.5 -45t-21 -56.5 t-9 -72v-98h-80v99q0 46 11 86t26.5 68.5t42.5 54t47 40t53.5 30.5t50 22t46.5 17q21 7 58.5 20t54.5 19t46 17t42 18t34 18.5t30 21t21.5 23.5t17 29t8.5 33.5t4 40.5v77q0 53 -9 91.5t-33 72t-66 54.5t-109.5 32.5t-161.5 11.5q-120 0 -197 -16.5t-118 -52t-56 -81 t-15 -115.5h-75zM341 0v170h84v-170h-84z" />
<glyph unicode="@" horiz-adv-x="1398" d="M97 327v548q-2 302 113.5 440t371.5 138l237 1q251 0 366.5 -138t115.5 -440v-303q0 -159 -91.5 -233.5t-289.5 -85.5v69q-150 -82 -243 -82h-74q-123 0 -175.5 58.5t-54.5 189.5v279q2 130 56.5 189t177.5 59h80q60 0 128 -26t167 -82v-597q136 18 197 79.5t61 182.5 v303q0 281 -99 402t-322 121h-237q-228 0 -326.5 -120.5t-96.5 -402.5v-548q0 -140 24.5 -234.5t78 -151.5t130.5 -81.5t190 -24.5h237q65 0 112 8l10 -53q-49 -8 -122 -8h-237q-168 0 -272 51t-158.5 171.5t-54.5 321.5zM436 494q2 -111 42.5 -156.5t142.5 -45.5h68 q83 0 230 83v508q-145 82 -230 82h-68q-102 0 -142.5 -45.5t-42.5 -156.5v-269z" />
<glyph unicode="A" horiz-adv-x="1339" d="M95 0l430 1434h290l431 -1434h-87l-125 420h-728l-124 -420h-87zM325 488h691l-262 878h-167z" />
<glyph unicode="B" horiz-adv-x="1353" d="M210 0v1434h535q207 0 302 -72t95 -229v-95q0 -112 -48 -179t-149 -95q129 -23 189 -101t60 -220v-109q0 -174 -95 -253t-302 -81h-587zM290 69h503q172 0 246.5 65t74.5 212v103q0 148 -74.5 213t-246.5 65h-503v-658zM290 785h449q173 0 248 57.5t75 187.5v90 q0 130 -75 188t-248 58h-449v-581z" />
<glyph unicode="C" horiz-adv-x="1384" d="M172 483v467q0 262 107.5 383t341.5 121h178q204 0 311.5 -92t129.5 -289l-80 -6q-20 168 -107.5 243.5t-258.5 75.5h-167q-199 0 -287 -101.5t-88 -334.5v-467q0 -233 88 -334.5t287 -101.5h167q170 0 258 75.5t108 243.5l80 -6q-22 -197 -129 -288.5t-312 -91.5h-178 q-234 0 -341.5 120.5t-107.5 382.5z" />
<glyph unicode="D" horiz-adv-x="1398" d="M210 0v1434h570q233 0 340 -120.5t107 -382.5v-457q0 -258 -107 -366t-340 -108h-570zM290 67h484q199 0 286 90.5t87 318.5v454q0 233 -88 334.5t-285 101.5h-484v-1299z" />
<glyph unicode="E" horiz-adv-x="1202" d="M210 0v1434h857v-68h-777v-592h737v-67h-737v-639h789v-68h-869z" />
<glyph unicode="F" horiz-adv-x="1165" d="M210 0v1434h833v-68h-753v-607h701v-68h-701v-691h-80z" />
<glyph unicode="G" horiz-adv-x="1449" d="M172 454v496q0 262 107.5 383t341.5 121h190q207 0 314.5 -95.5t127.5 -299.5l-80 -5q-18 176 -105.5 254t-262.5 78h-178q-199 0 -287 -101.5t-88 -334.5v-494q0 -116 21.5 -194.5t69 -126t116 -68t168.5 -20.5h184q199 0 286 90.5t87 318.5v177h-408v63h484v-242 q0 -258 -107 -366t-340 -108h-192q-233 0 -341 108.5t-108 365.5z" />
<glyph unicode="H" horiz-adv-x="1462" d="M210 0v1434h80v-683h883v683h80v-1434h-80v683h-883v-683h-80z" />
<glyph unicode="I" horiz-adv-x="428" d="M174 0v1434h80v-1434h-80z" />
<glyph unicode="J" horiz-adv-x="669" d="M-4 -94h71q166 0 239.5 90.5t73.5 314.5v1123h79v-1112q0 -258 -92.5 -367t-294.5 -109h-76v60z" />
<glyph unicode="K" horiz-adv-x="1257" d="M210 0v1434h80v-689h253l495 689h95l-517 -715l547 -719h-95l-517 676h-261v-676h-80z" />
<glyph unicode="L" horiz-adv-x="1114" d="M210 0v1434h80v-1366h729v-68h-809z" />
<glyph unicode="M" horiz-adv-x="1755" d="M200 0v1434h252l421 -1334l420 1334h253v-1434h-80v1366h-122l-428 -1366h-86l-429 1366h-121v-1366h-80z" />
<glyph unicode="N" horiz-adv-x="1411" d="M200 0v1434h216l625 -1366h90v1366h80v-1434h-217l-625 1366h-89v-1366h-80z" />
<glyph unicode="O" horiz-adv-x="1454" d="M172 454v496q0 262 107.5 383t341.5 121h215q232 0 339.5 -121t107.5 -383v-496q0 -258 -107 -366t-340 -108h-215q-233 0 -341 108.5t-108 365.5zM252 456q0 -116 21.5 -194.5t69 -126t116 -68t168.5 -20.5h203q199 0 286 90.5t87 318.5v494q0 233 -88 334.5t-285 101.5 h-203q-199 0 -287 -101.5t-88 -334.5v-494z" />
<glyph unicode="P" horiz-adv-x="1333" d="M210 0v1434h583q206 0 301.5 -82.5t95.5 -258.5v-120q0 -175 -95.5 -257t-301.5 -82h-503v-634h-80zM290 702h498q172 0 247 65t75 213v106q0 149 -74.5 214.5t-247.5 65.5h-498v-664z" />
<glyph unicode="Q" horiz-adv-x="1454" d="M172 454v496q0 262 107.5 383t341.5 121l215 -1q233 0 340 -120.5t107 -382.5v-497q0 -173 -47 -275t-145 -149l136 -225l-61 -34l-147 234q-77 -24 -183 -24h-215q-233 0 -341 108.5t-108 365.5zM252 455q0 -116 21.5 -194.5t69 -126t116 -68t168.5 -20.5h203 q199 0 286 90.5t87 318.5v494q0 233 -88 335t-285 102h-203q-199 0 -287 -102t-88 -335v-494z" />
<glyph unicode="R" horiz-adv-x="1372" d="M210 0v1434h583q206 0 301.5 -78.5t95.5 -246.5v-124q0 -156 -83 -232t-265 -84l363 -669h-88l-355 662h-472v-662h-80zM290 730h498q172 0 247 62t75 201v108q0 141 -74.5 203t-247.5 62h-498v-636z" />
<glyph unicode="S" horiz-adv-x="1282" d="M123 313l78 3q0 -137 97 -200t336 -63q238 0 337 62t99 183v117q0 56 -10 96.5t-35 70.5t-57 49.5t-85.5 33.5t-109.5 22t-141 16q-109 10 -180.5 22t-133 32.5t-96 50.5t-54 75t-21.5 108v141q0 63 11.5 110t43 88.5t84.5 67.5t138 41t201 15q118 0 204 -14.5t140 -40 t85.5 -67t43.5 -88.5t12 -111l-79 -3q0 67 -16 111t-59 79t-124.5 51t-206.5 16q-123 0 -203 -16.5t-122 -52t-57.5 -79t-15.5 -109.5v-124q2 -49 17 -83t42.5 -58t80 -40t116 -26.5t163.5 -19.5q109 -10 180 -22t138 -36.5t104.5 -61.5t59.5 -95t22 -139v-132 q0 -151 -121 -229t-396 -78q-273 0 -391.5 78.5t-118.5 248.5z" />
<glyph unicode="T" horiz-adv-x="1218" d="M96 1366v68h1027v-68h-473v-1366h-80v1366h-474z" />
<glyph unicode="U" horiz-adv-x="1370" d="M174 454v980h80v-980q0 -226 80.5 -316.5t263.5 -90.5h187q182 0 262 90t80 317v980h80v-980q0 -257 -99.5 -365.5t-316.5 -108.5h-199q-217 0 -317.5 108.5t-100.5 365.5z" />
<glyph unicode="V" horiz-adv-x="1351" d="M95 1434h84l422 -1362h150l422 1362h84l-443 -1434h-276z" />
<glyph unicode="W" horiz-adv-x="1900" d="M96 1434h84l306 -1366h131l277 1366h113l276 -1366h131l306 1366h85l-320 -1434h-264l-268 1310h-6l-267 -1310h-264z" />
<glyph unicode="X" horiz-adv-x="1325" d="M95 0l509 739l-477 695h97l441 -640l436 640h97l-476 -700l509 -734h-95l-475 684l-472 -684h-94z" />
<glyph unicode="Y" horiz-adv-x="1304" d="M95 1434h90l467 -797l468 796h90l-518 -883v-550h-79v549z" />
<glyph unicode="Z" horiz-adv-x="1259" d="M123 0v68l897 1298h-867v68h967v-68l-896 -1298h911v-68h-1012z" />
<glyph unicode="[" horiz-adv-x="555" d="M97 -270v1740h397v-61h-318v-1620h318v-59h-397z" />
<glyph unicode="\" horiz-adv-x="649" d="M59 1475h69l463 -1516h-69z" />
<glyph unicode="]" horiz-adv-x="555" d="M61 -211h318v1620h-318v61h397v-1740h-397v59z" />
<glyph unicode="^" horiz-adv-x="999" d="M97 803l356 631h93l356 -631h-87l-315 556l-316 -556h-87z" />
<glyph unicode="_" horiz-adv-x="1206" d="M97 -242h1012v-55h-1012v55z" />
<glyph unicode="`" horiz-adv-x="387" d="M97 1475h80l112 -273h-59z" />
<glyph unicode="a" d="M140 318q4 197 80.5 282.5t258.5 85.5h234q179 0 246 -48v137q0 89 -14 145t-49 90t-88 46.5t-137 12.5h-111q-154 0 -217 -50.5t-71 -190.5l-71 4q8 166 89 230t267 64h119q199 0 279 -75t80 -276v-775h-75v111q-234 -131 -379 -131h-135q-144 0 -225 78t-81 260z M215 323q0 -154 67 -220t190 -66h131q129 0 356 129v416q-51 52 -223 52h-234q-156 0 -220 -71t-67 -240z" />
<glyph unicode="b" horiz-adv-x="1214" d="M188 0v1536h76v-538q229 128 372 128h111q181 0 256.5 -84.5t79.5 -279.5v-418q-4 -195 -79.5 -279.5t-256.5 -84.5h-110q-143 0 -375 130v-110h-74zM264 168q222 -127 354 -127h103q156 0 219.5 71t66.5 240v403q-3 169 -66.5 240t-219.5 71h-103q-132 0 -354 -127v-771 z" />
<glyph unicode="c" horiz-adv-x="1155" d="M132 371v364q0 203 91 297t289 94h152q172 0 261.5 -72.5t107.5 -226.5l-69 -5q-16 130 -88.5 188t-215.5 58h-142q-165 0 -238 -77.5t-73 -255.5v-364q0 -178 73 -255.5t238 -77.5h142q143 0 215.5 58t88.5 188l69 -5q-18 -154 -107.5 -226.5t-261.5 -72.5h-152 q-198 0 -289 94t-91 297z" />
<glyph unicode="d" horiz-adv-x="1214" d="M132 344v418q4 195 79.5 279.5t256.5 84.5h111q143 0 372 -128v538h75v-1536h-74v110q-232 -130 -374 -130h-110q-181 0 -256.5 84.5t-79.5 279.5zM208 352q3 -169 66.5 -240t219.5 -71h103q132 0 354 127v771q-222 127 -354 127h-103q-156 0 -219.5 -71t-66.5 -240v-403 z" />
<glyph unicode="e" horiz-adv-x="1167" d="M132 369v386q0 200 91.5 285.5t289.5 85.5h156q198 0 288 -85.5t90 -285.5v-224h-840v-162q0 -177 73.5 -254.5t237.5 -77.5h149q142 0 214.5 57.5t88.5 185.5l71 -6q-19 -153 -110 -223.5t-262 -70.5h-156q-197 0 -289 93t-92 296zM207 580h769v176q0 174 -72 244 t-237 70h-149q-165 0 -238 -70.5t-73 -243.5v-176z" />
<glyph unicode="f" horiz-adv-x="684" d="M79 1047v59h160v90q0 132 27 205.5t93 107.5q70 37 211 37q17 0 35 -1v-57h-8q-129 0 -189 -31q-52 -28 -72.5 -88.5t-20.5 -173.5v-89h287v-59h-287v-1047h-76v1047h-160z" />
<glyph unicode="g" horiz-adv-x="1224" d="M142 365v397q4 195 79.5 279.5t256.5 84.5h111q145 0 373 -128v126h74v-1149q0 -199 -80 -274.5t-279 -75.5h-119q-185 0 -266.5 64.5t-89.5 230.5l71 4q8 -140 71 -190.5t217 -50.5h111q84 0 137 12.5t88 46t49 89t14 144.5v154q-228 -129 -372 -129h-110 q-180 0 -256 85t-80 280zM218 373q3 -169 67 -240.5t220 -71.5h102q131 0 353 127v752q-221 126 -353 126h-102q-156 0 -220 -70.5t-67 -239.5v-383z" />
<glyph unicode="h" horiz-adv-x="1261" d="M199 0v1536h75v-539q230 129 375 129h106q181 0 257 -84.5t80 -279.5v-762h-76v755q-3 169 -67 240t-219 71h-102q-132 0 -354 -127v-939h-75z" />
<glyph unicode="i" horiz-adv-x="468" d="M199 1282v152h81v-152h-81zM202 0v1106h75v-1106h-75z" />
<glyph unicode="j" horiz-adv-x="495" d="M-31 -326q157 3 208 66q50 61 50 240v1126h76v-1126q0 -108 -16 -176.5t-55 -108.5q-69 -72 -263 -72v51zM224 1282v152h82v-152h-82z" />
<glyph unicode="k" horiz-adv-x="1103" d="M199 0v1536h75v-902h265l371 472h88l-391 -497l440 -609h-84l-417 575h-272v-575h-75z" />
<glyph unicode="l" horiz-adv-x="444" d="M199 0v1536h75v-1536h-75z" />
<glyph unicode="m" horiz-adv-x="1871" d="M188 0v1106h75v-106q200 126 327 126h94q100 0 162 -31.5t95 -98.5q225 130 368 130h94q161 0 228.5 -84.5t70.5 -279.5v-762h-76v755q-3 170 -58.5 240.5t-190.5 70.5h-90q-125 0 -331 -119q25 -71 27 -188v-759h-76v755q-3 170 -58.5 240.5t-190.5 70.5h-90 q-114 0 -304 -124v-942h-76z" />
<glyph unicode="n" horiz-adv-x="1251" d="M188 0v1106h75v-110q232 130 375 130h107q181 0 257 -84.5t80 -279.5v-762h-76v755q-3 169 -67 240t-219 71h-103q-131 0 -353 -127v-939h-76z" />
<glyph unicode="o" d="M132 349v386q0 203 91 297t290 94h180q197 0 287.5 -94t90.5 -297v-386q0 -200 -90.5 -284.5t-287.5 -84.5h-180q-197 0 -289 84.5t-92 284.5zM207 351q0 -173 73 -243t238 -70h169q165 0 237 69.5t72 243.5v384q0 178 -73 255.5t-236 77.5h-169q-165 0 -238 -77.5 t-73 -255.5v-384z" />
<glyph unicode="p" horiz-adv-x="1224" d="M199 -369v1475h74v-110q232 130 374 130h110q181 0 256.5 -84.5t79.5 -279.5v-418q-4 -195 -79.5 -279.5t-256.5 -84.5h-111q-143 0 -372 128v-477h-75zM274 167q222 -127 354 -127h103q156 0 219.5 71t66.5 240v403q-3 169 -66.5 240t-219.5 71h-103q-132 0 -354 -127 v-771z" />
<glyph unicode="q" horiz-adv-x="1214" d="M132 344v418q4 195 79.5 279.5t256.5 84.5h110q143 0 375 -130v110h73v-1475h-75v477q-229 -128 -372 -128h-111q-181 0 -256.5 84.5t-79.5 279.5zM208 351q3 -169 66.5 -240t219.5 -71h103q132 0 354 127v771q-222 127 -354 127h-103q-156 0 -219.5 -71t-66.5 -240v-403 z" />
<glyph unicode="r" horiz-adv-x="753" d="M188 0v1106h75v-137q231 157 377 157h58v-64h-58q-138 0 -376 -158v-904h-76z" />
<glyph unicode="s" horiz-adv-x="1069" d="M95 239l76 3q0 -106 80.5 -155t277.5 -49q134 0 215.5 24t113 64.5t31.5 101.5v90q0 51 -14 87t-38.5 59.5t-71.5 38.5t-99 23t-135 15q-77 7 -130.5 14t-102.5 18.5t-79.5 27t-54.5 38.5t-34.5 54t-12.5 72v110q0 49 10 85.5t36.5 69t71 53t116 32t169.5 11.5 q124 0 206 -16t125.5 -50t60.5 -77t17 -106l-71 -3q0 51 -13 84.5t-48.5 60t-102.5 39t-171 12.5q-102 0 -168 -12.5t-101 -39.5t-48 -60.5t-13 -83.5v-95q4 -89 74.5 -122.5t271.5 -50.5q92 -8 152 -17.5t117 -29t88.5 -48.5t50 -74.5t18.5 -109.5v-104q0 -118 -103 -179.5 t-335 -61.5q-231 0 -331.5 61.5t-100.5 195.5z" />
<glyph unicode="t" horiz-adv-x="729" d="M77 1047v59h140v232h76v-232h321v-59h-321v-716q0 -175 57 -233t233 -60h31v-58h-20q-210 0 -289 60q-49 37 -68.5 104t-19.5 178v725h-140z" />
<glyph unicode="u" horiz-adv-x="1253" d="M169 344v762h76v-755q3 -169 69 -240t226 -71h105q136 0 364 127v939h76v-1106h-74v110q-239 -130 -386 -130h-110q-186 0 -264 84.5t-82 279.5z" />
<glyph unicode="v" horiz-adv-x="1095" d="M56 1106h79l377 -1048h71l377 1048h79l-398 -1106h-187z" />
<glyph unicode="w" horiz-adv-x="1568" d="M58 1106h78l271 -1048h73l262 1048h84l263 -1048h73l270 1048h79l-287 -1106h-184l-256 988l-256 -988h-184z" />
<glyph unicode="x" horiz-adv-x="1034" d="M56 0l408 575l-377 531h86l347 -486l342 486h87l-378 -537l407 -569h-87l-376 522l-372 -522h-87z" />
<glyph unicode="y" horiz-adv-x="1095" d="M56 1106h79l377 -1048h72l376 1048h79l-530 -1475h-73l131 369h-113z" />
<glyph unicode="z" horiz-adv-x="1013" d="M77 0v58l758 989h-731v59h821v-59l-756 -989h769v-58h-861z" />
<glyph unicode="{" horiz-adv-x="563" d="M97 560v46l147 54q45 16 40 63l-34 389q-10 124 70 218l138 161l45 -35l-123 -154q-56 -72 -56 -160q0 -19 1 -28l34 -387q3 -32 -16 -60.5t-54 -41.5l-114 -41l114 -42q35 -13 54 -41.5t16 -60.5l-34 -387q-9 -106 55 -188l122 -154l-44 -35l-138 160q-71 83 -71 189 q0 19 1 29l34 389q5 48 -40 64z" />
<glyph unicode="|" horiz-adv-x="270" d="M97 -266v1802h76v-1802h-76z" />
<glyph unicode="}" horiz-adv-x="563" d="M61 -289l123 154q56 71 56 160q0 19 -1 28l-34 387q-3 32 16 60.5t54 41.5l114 41l-114 42q-35 13 -54 41t-16 60l34 387q9 105 -55 188l-123 154l45 36l138 -162q71 -83 71 -189q0 -19 -1 -29l-34 -389q-5 -47 40 -63l147 -54v-46l-147 -53q-45 -16 -40 -64l34 -389 q11 -123 -70 -217l-138 -160z" />
<glyph unicode="~" horiz-adv-x="1157" d="M97 508q127 225 280 225q91 0 246 -97q132 -84 195 -84q47 0 90 35t102 120l50 -29q-61 -95 -118 -140.5t-120 -45.5q-83 0 -229 92q-47 29 -75 44.5t-67 30t-70 14.5q-58 0 -113.5 -45t-117.5 -148z" />
<glyph unicode="&#xa1;" horiz-adv-x="282" d="M100 936v170h84v-170h-84zM109 -328v1039h66v-1039h-66z" />
<glyph unicode="&#xa2;" horiz-adv-x="1155" d="M132 371v364q0 199 86 292t274 98h56v151h70v-151h63q164 -4 249 -75.5t103 -222.5l-69 -5q-16 130 -88.5 188t-215.5 58h-142q-165 0 -238 -77.5t-73 -255.5v-364q0 -178 73 -255.5t238 -77.5h142q143 0 215.5 58t88.5 188l69 -5q-18 -150 -103 -222t-249 -77h-63v-150 h-70v152h-56q-188 4 -274 97t-86 292z" />
<glyph unicode="&#xa3;" horiz-adv-x="1329" d="M133 0v68h170v640h-170v60h170v183q0 262 98 382.5t312 120.5h106q171 0 268 -79t126 -244l-75 -12q-25 140 -102 203.5t-218 63.5h-100q-177 0 -256 -100.5t-79 -331.5v-186h556v-60h-556v-640h815v-68h-1065z" />
<glyph unicode="&#xa4;" horiz-adv-x="1447" />
<glyph unicode="&#xa5;" horiz-adv-x="1304" d="M95 1434h90l467 -797l468 796h90l-359 -611h271v-60h-305l-117 -198l-4 -114h426v-60h-430v-390h-79v390h-430v60h426l-4 114l-117 198h-305v60h271z" />
<glyph unicode="&#xa6;" horiz-adv-x="270" d="M97 -266v727h77v-727h-77zM97 809v727h77v-727h-77z" />
<glyph unicode="&#xa7;" horiz-adv-x="1110" d="M96 -72l71 4q0 -123 86.5 -179t299.5 -56q212 0 300.5 55.5t88.5 163.5v105q0 50 -9 86t-31.5 63t-50.5 44t-76.5 29.5t-98 20t-125.5 14.5q-97 9 -160.5 19.5t-118.5 28.5t-85 45t-47.5 67t-19.5 96v125q0 147 86 210q-82 52 -86 173v125q0 56 10.5 97.5t38.5 79 t75 60.5t122.5 36.5t178.5 13.5q105 0 181.5 -13t124.5 -35.5t76.5 -59t39 -78.5t10.5 -99l-73 -3q0 47 -8.5 80t-31 62t-62.5 46.5t-103.5 27.5t-152.5 10q-109 0 -180 -14.5t-108 -45.5t-51 -69.5t-14 -96.5v-110q4 -103 80 -142t291 -59q97 -9 160.5 -20t123.5 -32.5 t93.5 -54.5t53.5 -85t20 -125v-118q0 -115 -78 -180q77 -67 77 -210v-118q0 -135 -108.5 -206t-353.5 -71q-244 0 -350 70.5t-106 222.5zM193 547q2 -44 15 -74t38 -51.5t70.5 -36t101.5 -23.5t143 -17q230 -21 312 -73q69 51 69 151v104q0 60 -15 101.5t-41.5 68.5 t-77 44.5t-106 27t-144.5 17.5q-203 19 -281 53q-47 -28 -65.5 -72.5t-18.5 -109.5v-110z" />
<glyph unicode="&#xa8;" horiz-adv-x="589" d="M97 1300v76h77v-76h-77zM415 1300v76h76v-76h-76z" />
<glyph unicode="&#xa9;" horiz-adv-x="1669" d="M97 717q0 150 58.5 286.5t157 235t235 157t286.5 58.5t286.5 -58.5t235 -157t157 -235t58.5 -286.5t-58.5 -286.5t-157 -235t-235 -157t-286.5 -58.5t-286.5 58.5t-235 157t-157 235t-58.5 286.5zM154 717q0 -140 54 -266.5t145.5 -218t217 -145.5t263.5 -54t263.5 54 t217 145.5t145.5 218t54 266.5q0 186 -91.5 343.5t-248 249t-340.5 91.5t-340.5 -91.5t-248 -249t-91.5 -343.5zM512 585v264q0 149 62.5 219t197.5 70h100q119 0 181.5 -55.5t74.5 -170.5l-57 -4q-10 98 -57 140t-144 42h-95q-109 0 -157.5 -55.5t-48.5 -185.5v-264 q0 -130 48.5 -185.5t157.5 -55.5h95q97 0 144 42t57 140l57 -5q-12 -115 -74.5 -170t-181.5 -55h-100q-135 0 -197.5 70t-62.5 219z" />
<glyph unicode="&#xaa;" horiz-adv-x="798" d="M97 913q2 132 54.5 190t175.5 58h156q115 0 161 -29v86q0 114 -40 153t-149 39h-74q-103 0 -143.5 -33t-45.5 -127l-54 3q5 113 60.5 157t180.5 44h79q134 0 188.5 -51t54.5 -185v-520h-57v72q-152 -85 -249 -85h-90q-208 0 -208 228zM155 916q0 -102 43.5 -144.5 t124.5 -42.5h87q86 0 233 84v275q-32 33 -145 33h-155q-102 0 -144 -46.5t-44 -158.5z" />
<glyph unicode="&#xab;" horiz-adv-x="940" d="M97 571l366 429l37 -37l-318 -392l318 -393l-37 -37zM439 571l366 429l37 -37l-319 -392l319 -393l-37 -37z" />
<glyph unicode="&#xac;" horiz-adv-x="1447" />
<glyph unicode="&#xad;" horiz-adv-x="737" d="M97 555v61h544v-61h-544z" />
<glyph unicode="&#xae;" horiz-adv-x="1669" d="M97 717q0 150 58.5 286.5t157 235t235 157t286.5 58.5t286.5 -58.5t235 -157t157 -235t58.5 -286.5t-58.5 -286.5t-157 -235t-235 -157t-286.5 -58.5t-286.5 58.5t-235 157t-157 235t-58.5 286.5zM154 717q0 -140 54 -266.5t145.5 -218t217 -145.5t263.5 -54t263.5 54 t217 145.5t145.5 218t54 266.5q0 186 -91.5 343.5t-248 249t-340.5 91.5t-340.5 -91.5t-248 -249t-91.5 -343.5zM564 312v811h331q117 0 172 -45.5t55 -140.5v-68q0 -87 -47 -131t-146 -50l204 -376h-60l-199 371h-256v-371h-54zM618 729h274q96 0 135.5 32.5t39.5 110.5v61 q0 78 -40 111t-135 33h-274v-348z" />
<glyph unicode="&#xaf;" horiz-adv-x="733" d="M97 1304v60h539v-60h-539z" />
<glyph unicode="&#xb0;" horiz-adv-x="806" d="M97 1183v110q0 116 56 172t168 55h155q113 0 173.5 -56t60.5 -171v-110q0 -114 -60.5 -169.5t-173.5 -55.5h-155q-224 0 -224 225zM150 1186q0 -95 43 -139.5t132 -44.5h147q186 0 186 184v105q0 184 -186 184h-147q-90 1 -132.5 -42.5t-42.5 -141.5v-105z" />
<glyph unicode="&#xb1;" horiz-adv-x="1153" d="M97 0v60h958v-60h-958zM97 710v60h445v427h68v-427h445v-60h-445v-427h-68v427h-445z" />
<glyph unicode="&#xb2;" horiz-adv-x="692" d="M97 731v177q0 25 5.5 46t11.5 36t22.5 29.5t27 22.5t37 19t39.5 16t48.5 17t50.5 17t43 15q97 34 124.5 53t29.5 66v38q0 65 -35.5 93.5t-143.5 28.5q-112 0 -148 -29.5t-35 -99.5h-57q0 43 9 72.5t34 55t74 38t123 12.5q136 0 187.5 -43.5t51.5 -125.5v-48 q-1 -20 -5.5 -36t-9.5 -28t-19 -23t-23.5 -17.5t-33.5 -16.5t-38.5 -15t-49 -17t-55.5 -19q-14 -5 -46.5 -16t-43 -15t-33 -13.5t-29.5 -15t-20.5 -16.5t-17.5 -21.5t-8.5 -25.5t-5.5 -33v-128h438v-50h-499z" />
<glyph unicode="&#xb3;" horiz-adv-x="700" d="M97 886h57q-2 -59 34.5 -87.5t119.5 -28.5h82q80 0 116.5 27.5t36.5 83.5v83q0 118 -153 118h-112v48h107q71 0 103.5 24t32.5 72v78q0 102 -136 102h-73q-74 0 -106 -27.5t-30 -81.5h-57q-3 73 44 115t147 42h78q95 0 144 -40t49 -107v-81q0 -85 -81 -118 q102 -35 102 -142v-89q0 -74 -53 -115t-156 -41h-87q-106 0 -158.5 43t-50.5 122z" />
<glyph unicode="&#xb4;" horiz-adv-x="387" d="M97 1202l112 273h80l-133 -273h-59z" />
<glyph unicode="&#xb6;" horiz-adv-x="1130" d="M97 983v110q0 176 95.5 258.5t301.5 82.5h539v-61h-75v-1639h-76v1639h-177v-1639h-76v911h-144q-200 0 -294 82.5t-94 255.5z" />
<glyph unicode="&#xb7;" horiz-adv-x="278" d="M97 534v171h84v-171h-84z" />
<glyph unicode="&#xb8;" horiz-adv-x="563" d="M97 -362h165q46 0 68 2.5t42.5 13.5t27 34t6.5 64q0 33 -5.5 54t-14 33t-29 17.5t-39.5 7t-56 1.5h-69l42 142h48l-28 -95h16q51 0 82 -4.5t59.5 -20t41.5 -48.5t13 -87q0 -44 -10.5 -75t-26 -48t-44 -26t-54 -11t-67.5 -2h-168v48z" />
<glyph unicode="&#xb9;" horiz-adv-x="393" d="M97 1361l155 73h44v-712h-60v651l-120 -56z" />
<glyph unicode="&#xba;" horiz-adv-x="827" d="M97 933v258q0 136 62.5 199.5t195.5 63.5h120q133 0 194.5 -63.5t61.5 -199.5v-258q0 -134 -61.5 -191t-194.5 -57h-120q-133 0 -195.5 57t-62.5 191zM155 934q0 -115 47 -160t156 -45h113q109 0 155.5 45t46.5 160v256q0 118 -47 169t-155 51h-113q-108 0 -155.5 -50.5 t-47.5 -168.5v-257z" />
<glyph unicode="&#xbb;" horiz-adv-x="940" d="M97 178l319 393l-319 392l37 37l366 -429l-366 -430zM439 178l319 393l-319 392l37 37l366 -429l-366 -430z" />
<glyph unicode="&#xbc;" horiz-adv-x="1378" d="M102 -35l1042 1503h73l-1041 -1503h-74zM165 1361l156 73h43v-712h-60v651l-120 -56zM717 195v51l367 466h86v-468h111v-49h-111v-195h-58v195h-395zM784 244h328v407h-9z" />
<glyph unicode="&#xbd;" horiz-adv-x="1415" d="M102 -35l1042 1503h73l-1041 -1503h-74zM164 1361l156 73h43v-712h-60v651l-120 -56zM820 0v177q0 25 5.5 46t11.5 36t22.5 29.5t27 22.5t37 19t39.5 16t48.5 17t50.5 17l42.5 15t37 13t29.5 10.5t25.5 10.5t19.5 10t16.5 11t11 12t9 14.5t4.5 16.5t2 20v39 q0 65 -35.5 93t-143.5 28q-112 0 -148 -29t-35 -99h-58q0 42 9 72t34 55.5t74.5 38t123.5 12.5q71 0 119 -12t73.5 -36t35.5 -52.5t10 -68.5v-48q-1 -20 -5.5 -36t-9.5 -27.5t-19 -23t-23 -18t-33.5 -16.5t-38 -15t-49 -17t-55.5 -19q-14 -5 -46.5 -16t-43 -15t-33 -13.5 t-29.5 -15t-20.5 -16.5t-17.5 -21.5t-8.5 -25.5t-5.5 -33v-128h437v-50h-498z" />
<glyph unicode="&#xbe;" horiz-adv-x="1527" d="M97 885h57q-2 -59 34.5 -87.5t119.5 -28.5h82q80 0 116.5 27.5t36.5 83.5v83q0 118 -153 118h-112v48h107q71 0 103.5 24t32.5 72v78q0 102 -136 102h-73q-74 0 -106 -27.5t-30 -81.5h-57q-3 73 44 115t147 42h78q95 0 144 -40t49 -107v-81q0 -85 -81 -118 q102 -35 102 -142v-89q0 -74 -53 -115t-156 -41h-87q-106 0 -158.5 43t-50.5 122zM253 -35l1041 1503h73l-1041 -1503h-73zM868 195v51l367 466h85v-467h111v-50h-111v-195h-58v195h-394zM935 245h327v406h-9z" />
<glyph unicode="&#xbf;" horiz-adv-x="1112" d="M97 -27v82q0 35 7.5 64t19 50.5t34.5 41.5t43.5 33t57 28.5t63.5 25.5t74 26q34 12 52 18q29 10 45.5 16.5t45.5 20t46.5 26.5t40 34.5t34.5 45t21 56.5t9 72v98h80v-100q0 -46 -11.5 -86t-26.5 -68t-42 -53.5t-47 -40.5t-53.5 -30.5t-50 -21.5t-46.5 -17 q-21 -7 -58.5 -20t-54.5 -19t-46 -17t-42 -18t-34 -18.5t-30 -21t-21.5 -23.5t-17 -29t-8.5 -33.5t-4 -40.5v-79q0 -53 9 -90.5t33 -71.5t66 -54.5t109.5 -32t161.5 -11.5q96 0 164.5 11.5t111.5 32t67.5 54.5t33.5 73t9 94h75q0 -81 -18.5 -136.5t-67 -101t-142.5 -68 t-235 -22.5q-111 0 -192.5 15.5t-132 41.5t-80.5 68t-41 88t-11 108zM688 936v170h84v-170h-84z" />
<glyph unicode="&#xc0;" horiz-adv-x="1339" d="M95 0l430 1434h290l431 -1434h-87l-125 420h-728l-124 -420h-87zM325 488h691l-262 878h-167zM574 1802h80l112 -272h-59z" />
<glyph unicode="&#xc1;" horiz-adv-x="1339" d="M95 0l430 1434h290l431 -1434h-87l-125 420h-728l-124 -420h-87zM325 488h691l-262 878h-167zM574 1530l112 272h80l-133 -272h-59z" />
<glyph unicode="&#xc2;" horiz-adv-x="1339" d="M95 0l430 1434h290l431 -1434h-87l-125 420h-728l-124 -420h-87zM325 488h691l-262 878h-167zM459 1530l166 272h89l167 -272h-59l-152 228l-152 -228h-59z" />
<glyph unicode="&#xc3;" horiz-adv-x="1339" d="M95 0l430 1434h290l431 -1434h-87l-125 420h-728l-124 -420h-87zM325 488h691l-262 878h-167zM375 1643q76 138 171 138q55 0 148 -58q77 -48 113 -48q28 0 53.5 20.5t61.5 71.5l43 -26q-74 -120 -155 -120q-55 0 -142 56q-81 51 -119 51q-33 0 -62.5 -24t-66.5 -86z" />
<glyph unicode="&#xc4;" horiz-adv-x="1339" d="M95 0l430 1434h290l431 -1434h-87l-125 420h-727l-125 -420h-87zM325 488h691l-262 878h-167zM473 1627v77h76v-77h-76zM790 1627v77h77v-77h-77z" />
<glyph unicode="&#xc5;" horiz-adv-x="1339" d="M95 0l430 1434h290l431 -1434h-87l-125 420h-727l-125 -420h-87zM325 488h691l-262 878h-167zM462 1730v71q0 77 38 114.5t113 36.5h107q75 0 116.5 -37.5t41.5 -113.5v-71q0 -75 -41.5 -112.5t-116.5 -37.5h-107q-151 0 -151 150zM516 1733q0 -56 24.5 -81.5t76.5 -25.5 h99q108 0 108 107v66q0 107 -108 107h-100q-52 1 -76 -24t-24 -83v-66z" />
<glyph unicode="&#xc6;" horiz-adv-x="1654" d="M95 0l430 1434h995v-68h-777v-592h737v-67h-737v-639h789v-68h-869v420h-357l-124 -420h-87zM325 488h338v878h-76z" />
<glyph unicode="&#xc7;" horiz-adv-x="1384" d="M172 483v467q0 262 107.5 383t341.5 121h178q204 0 311.5 -92t129.5 -289l-80 -6q-20 168 -107.5 243.5t-258.5 75.5h-167q-199 0 -287 -101.5t-88 -334.5v-467q0 -233 88 -334.5t287 -101.5h167q170 0 258 75.5t108 243.5l80 -6q-22 -197 -129 -288.5t-312 -91.5h-115 l-20 -68h15q51 0 82 -4.5t59.5 -20t41.5 -48.5t13 -87q0 -44 -10.5 -75t-26 -48t-44 -26t-54 -11t-67.5 -2h-167v47h165q87 0 115 19t28 96q0 33 -5.5 53.5t-13.5 33t-28.5 18t-39.5 7t-56 1.5h-70l34 115h-14q-234 0 -341.5 120.5t-107.5 382.5z" />
<glyph unicode="&#xc8;" horiz-adv-x="1202" d="M210 0v1434h857v-68h-777v-592h737v-67h-737v-639h789v-68h-869zM508 1802h80l112 -272h-59z" />
<glyph unicode="&#xc9;" horiz-adv-x="1202" d="M210 0v1434h857v-68h-777v-592h737v-67h-737v-639h789v-68h-869zM508 1530l112 272h80l-133 -272h-59z" />
<glyph unicode="&#xca;" horiz-adv-x="1202" d="M210 0v1434h857v-68h-777v-592h737v-67h-737v-639h789v-68h-869zM393 1530l167 272h89l166 -272h-59l-152 228l-152 -228h-59z" />
<glyph unicode="&#xcb;" horiz-adv-x="1202" d="M210 0v1434h857v-68h-777v-592h737v-67h-737v-639h789v-68h-869zM407 1627v77h77v-77h-77zM724 1627v77h77v-77h-77z" />
<glyph unicode="&#xcc;" horiz-adv-x="428" d="M118 1802h80l112 -272h-59zM174 0v1434h80v-1434h-80z" />
<glyph unicode="&#xcd;" horiz-adv-x="428" d="M118 1530l112 272h80l-133 -272h-59zM174 0v1434h80v-1434h-80z" />
<glyph unicode="&#xce;" horiz-adv-x="428" d="M3 1530l167 272h89l166 -272h-59l-152 228l-152 -228h-59zM174 0v1434h80v-1434h-80z" />
<glyph unicode="&#xcf;" horiz-adv-x="428" d="M17 1627v77h77v-77h-77zM174 0v1434h80v-1434h-80zM334 1627v77h77v-77h-77z" />
<glyph unicode="&#xd0;" horiz-adv-x="1411" d="M96 686v61h126v687h570q233 0 340 -120.5t107 -382.5v-457q0 -258 -107 -366t-340 -108h-570v686h-126zM302 67h485q199 0 286 90.5t87 318.5v454q0 233 -88 334.5t-285 101.5h-485v-619h338v-61h-338v-619z" />
<glyph unicode="&#xd1;" horiz-adv-x="1411" d="M200 0v1434h216l625 -1366h90v1366h80v-1434h-217l-625 1366h-89v-1366h-80zM408 1643q76 138 171 138q55 0 148 -58q77 -48 114 -48q28 0 53 20.5t61 71.5l44 -26q-74 -120 -155 -120q-56 0 -143 56q-81 51 -118 51q-33 0 -62.5 -24t-66.5 -86z" />
<glyph unicode="&#xd2;" horiz-adv-x="1454" d="M172 454v496q0 262 107.5 383t341.5 121h215q232 0 339.5 -121t107.5 -383v-496q0 -258 -107 -366t-340 -108h-215q-233 0 -341 108.5t-108 365.5zM252 456q0 -116 21.5 -194.5t69 -126t116 -68t168.5 -20.5h203q199 0 286 90.5t87 318.5v494q0 233 -88 334.5t-285 101.5 h-203q-199 0 -287 -101.5t-88 -334.5v-494zM632 1802h79l112 -272h-59z" />
<glyph unicode="&#xd3;" horiz-adv-x="1454" d="M172 454v496q0 262 107.5 383t341.5 121h215q232 0 339.5 -121t107.5 -383v-496q0 -258 -107 -366t-340 -108h-215q-233 0 -341 108.5t-108 365.5zM252 456q0 -116 21.5 -194.5t69 -126t116 -68t168.5 -20.5h203q199 0 286 90.5t87 318.5v494q0 233 -88 334.5t-285 101.5 h-203q-199 0 -287 -101.5t-88 -334.5v-494zM632 1530l111 272h80l-132 -272h-59z" />
<glyph unicode="&#xd4;" horiz-adv-x="1454" d="M172 454v496q0 262 107.5 383t341.5 121h215q232 0 339.5 -121t107.5 -383v-496q0 -258 -107 -366t-340 -108h-215q-233 0 -341 108.5t-108 365.5zM252 456q0 -116 21.5 -194.5t69 -126t116 -68t168.5 -20.5h203q199 0 286 90.5t87 318.5v494q0 233 -88 334.5t-285 101.5 h-203q-199 0 -287 -101.5t-88 -334.5v-494zM516 1530l167 272h89l166 -272h-59l-152 228l-152 -228h-59z" />
<glyph unicode="&#xd5;" horiz-adv-x="1454" d="M172 454v496q0 262 107.5 383t341.5 121h215q232 0 339.5 -121t107.5 -383v-496q0 -258 -107 -366.5t-340 -108.5h-215q-233 0 -341 108.5t-108 366.5zM252 456q0 -116 21.5 -194.5t69 -126t116 -68t168.5 -20.5h203q199 0 286 90.5t87 318.5v494q0 233 -88 334.5 t-285 101.5h-203q-199 0 -287 -101.5t-88 -334.5v-494zM432 1643q76 138 171 138q55 0 148 -58q77 -48 114 -48q28 0 53 20.5t61 71.5l44 -26q-74 -120 -155 -120q-56 0 -143 56q-81 51 -119 51q-33 0 -62 -24t-66 -86z" />
<glyph unicode="&#xd6;" horiz-adv-x="1454" d="M172 454v496q0 262 107.5 383t341.5 121h215q232 0 339.5 -121t107.5 -383v-496q0 -258 -107 -366t-340 -108h-215q-233 0 -341 108.5t-108 365.5zM252 456q0 -116 21.5 -194.5t69 -126t116 -68t168.5 -20.5h203q199 0 286 90.5t87 318.5v494q0 233 -88 334.5t-285 101.5 h-203q-199 0 -287 -101.5t-88 -334.5v-494zM530 1627v77h77v-77h-77zM848 1627v77h76v-77h-76z" />
<glyph unicode="&#xd7;" horiz-adv-x="913" d="M97 242l315 314l-311 311l48 48l311 -311l314 315l43 -43l-315 -314l311 -311l-47 -48l-311 311l-315 -315z" />
<glyph unicode="&#xd8;" horiz-adv-x="1454" d="M172 454v496q0 262 107.5 383t341.5 121h215q46 0 81 -4l27 86h69l-30 -97q155 -34 227.5 -153t72.5 -336v-496q0 -258 -107 -366t-340 -108h-215q-43 0 -84 3l-26 -85h-69l29 95q-154 30 -226.5 139.5t-72.5 321.5zM252 456q0 -185 57 -277.5t182 -119.5l406 1324 q-32 3 -67 3h-203q-199 0 -287 -101.5t-88 -334.5v-494zM557 49q22 -2 70 -2h203q199 0 286 90.5t87 318.5v494q0 190 -57.5 291.5t-182.5 131.5z" />
<glyph unicode="&#xd9;" horiz-adv-x="1370" d="M174 454v980h80v-980q0 -226 80.5 -316.5t263.5 -90.5h187q182 0 262 90t80 317v980h80v-980q0 -257 -99.5 -365.5t-316.5 -108.5h-199q-217 0 -317.5 108.5t-100.5 365.5zM590 1802h80l112 -272h-60z" />
<glyph unicode="&#xda;" horiz-adv-x="1370" d="M174 454v980h80v-980q0 -226 80.5 -316.5t263.5 -90.5h187q182 0 262 90t80 317v980h80v-980q0 -257 -99.5 -365.5t-316.5 -108.5h-199q-217 0 -317.5 108.5t-100.5 365.5zM590 1530l112 272h80l-133 -272h-59z" />
<glyph unicode="&#xdb;" horiz-adv-x="1370" d="M174 454v980h80v-980q0 -226 80.5 -316.5t263.5 -90.5h187q182 0 262 90t80 317v980h80v-980q0 -257 -99.5 -365.5t-316.5 -108.5h-199q-217 0 -317.5 108.5t-100.5 365.5zM475 1530l166 272h89l167 -272h-59l-152 228l-152 -228h-59z" />
<glyph unicode="&#xdc;" horiz-adv-x="1370" d="M174 454v980h80v-980q0 -226 80.5 -316.5t263.5 -90.5h187q182 0 262 90t80 317v980h80v-980q0 -257 -99.5 -365.5t-316.5 -108.5h-199q-217 0 -317.5 108.5t-100.5 365.5zM489 1627v77h76v-77h-76zM806 1627v77h77v-77h-77z" />
<glyph unicode="&#xdd;" horiz-adv-x="1304" d="M95 1434h90l467 -797l468 796h90l-518 -883v-550h-79v549zM556 1530l112 272h80l-133 -272h-59z" />
<glyph unicode="&#xde;" horiz-adv-x="1333" d="M210 0v1434h80v-234h503q206 0 301.5 -82.5t95.5 -258.5v-120q0 -175 -95.5 -257t-301.5 -82h-503v-400h-80zM290 468h498q172 0 247 65t75 213v106q0 149 -74.5 214.5t-247.5 65.5h-498v-664z" />
<glyph unicode="&#xdf;" horiz-adv-x="1296" d="M210 0v1198q0 136 84.5 214t256.5 78h163q170 0 254.5 -78t84.5 -214v-172q0 -186 -161 -242q124 -24 185 -103t61 -202v-187q0 -150 -92.5 -231t-278.5 -81h-164q-129 0 -217 44l16 69q72 -43 196 -43h161q299 0 299 253v179q0 267 -299 267h-125v58h74q266 0 266 218 v166q0 231 -266 231h-151q-267 0 -267 -231v-1191h-80z" />
<glyph unicode="&#xe0;" d="M140 318q4 197 80.5 282.5t258.5 85.5h234q179 0 246 -48v137q0 89 -14 145t-49 90t-88 46.5t-137 12.5h-111q-154 0 -217 -50.5t-71 -190.5l-71 4q8 166 89 230t267 64h119q199 0 279 -75t80 -276v-775h-75v111q-234 -131 -379 -131h-135q-144 0 -225 78t-81 260z M215 323q0 -154 67 -220t190 -66h131q129 0 356 129v416q-51 52 -223 52h-234q-156 0 -220 -71t-67 -240zM524 1475h79l112 -273h-59z" />
<glyph unicode="&#xe1;" d="M140 318q4 197 80.5 282.5t258.5 85.5h234q179 0 246 -48v137q0 89 -14 145t-49 90t-88 46.5t-137 12.5h-111q-154 0 -217 -50.5t-71 -190.5l-71 4q8 166 89 230t267 64h119q199 0 279 -75t80 -276v-775h-75v111q-234 -131 -379 -131h-135q-144 0 -225 78t-81 260z M215 323q0 -154 67 -220t190 -66h131q129 0 356 129v416q-51 52 -223 52h-234q-156 0 -220 -71t-67 -240zM524 1202l112 273h79l-132 -273h-59z" />
<glyph unicode="&#xe2;" d="M140 318q4 197 80.5 282.5t258.5 85.5h234q179 0 246 -48v137q0 89 -14 145t-49 90t-88 46.5t-137 12.5h-111q-154 0 -217 -50.5t-71 -190.5l-71 4q8 166 89 230t267 64h119q199 0 279 -75t80 -276v-775h-75v111q-234 -131 -379 -131h-135q-144 0 -225 78t-81 260z M215 323q0 -154 67 -220t190 -66h131q129 0 356 129v416q-51 52 -223 52h-234q-156 0 -220 -71t-67 -240zM409 1202l166 273h89l167 -273h-60l-151 228l-152 -228h-59z" />
<glyph unicode="&#xe3;" d="M140 318q4 197 80.5 282.5t258.5 85.5h234q179 0 246 -48v137q0 89 -14 145t-49 90t-88 46.5t-137 12.5h-111q-154 0 -217 -50.5t-71 -190.5l-71 4q8 166 89 230t267 64h119q199 0 279 -75t80 -276v-775h-75v111q-234 -131 -379 -131h-135q-144 0 -225 78t-81 260z M215 323q0 -154 67 -220t190 -66h131q129 0 356 129v416q-51 52 -223 52h-234q-156 0 -220 -71t-67 -240zM324 1315q77 139 171 139q55 0 148 -58q78 -49 114 -49q28 0 53 20.5t61 71.5l44 -26q-74 -119 -155 -119q-56 0 -143 56q-81 51 -118 51q-33 0 -62.5 -24.5 t-66.5 -86.5z" />
<glyph unicode="&#xe4;" d="M140 318q4 197 80.5 282.5t258.5 85.5h234q179 0 246 -48v137q0 89 -14 145t-49 90t-88 46.5t-137 12.5h-111q-154 0 -217 -50.5t-71 -190.5l-71 4q8 166 89 230t267 64h119q199 0 279 -75t80 -276v-775h-75v111q-234 -131 -379 -131h-135q-144 0 -225 78t-81 260z M215 323q0 -154 67 -220t190 -66h131q129 0 356 129v416q-51 52 -223 52h-234q-156 0 -220 -71t-67 -240zM423 1300v76h76v-76h-76zM740 1300v76h77v-76h-77z" />
<glyph unicode="&#xe5;" d="M140 318q4 197 80.5 282.5t258.5 85.5h234q179 0 246 -48v137q0 89 -14 145t-49 90t-88 46.5t-137 12.5h-111q-154 0 -217 -50.5t-71 -190.5l-71 4q8 166 89 230t267 64h119q199 0 279 -75t80 -276v-775h-75v111q-234 -131 -379 -131h-135q-144 0 -225 78t-81 260z M215 323q0 -154 67 -220t190 -66h131q129 0 356 129v416q-51 52 -223 52h-234q-156 0 -220 -71t-67 -240zM412 1403v70q0 77 38 114.5t113 36.5h106q75 0 116.5 -37.5t41.5 -113.5v-70q0 -75 -41.5 -112.5t-116.5 -37.5h-106q-151 0 -151 150zM465 1405q0 -56 24.5 -81.5 t76.5 -25.5h100q108 0 108 107v66q0 107 -108 107h-100q-52 1 -76.5 -24t-24.5 -83v-66z" />
<glyph unicode="&#xe6;" horiz-adv-x="2023" d="M140 318q4 197 80.5 282.5t258.5 85.5h234q179 0 246 -48v137q0 89 -14 145t-49 90t-88 46.5t-137 12.5h-111q-154 0 -217 -50.5t-71 -190.5l-71 4q8 166 89 230t267 64h119q156 0 234.5 -44.5t104.5 -156.5q33 107 118.5 154t233.5 47h157q197 0 287 -85.5t90 -285.5 v-224h-839v-162q0 -177 73.5 -254.5t237.5 -77.5h149q142 0 214.5 57.5t88.5 185.5l70 -6q-19 -153 -109.5 -223.5t-261.5 -70.5h-157q-132 0 -213.5 43t-118.5 135v-158h-75v111q-234 -131 -379 -131h-135q-144 0 -225 78t-81 260zM215 323q0 -154 67 -220t190 -66h131 q129 0 356 129v416q-51 52 -223 52h-234q-156 0 -220 -71t-67 -240zM1062 580h768v176q0 174 -71.5 244t-236.5 70h-149q-165 0 -238 -70.5t-73 -243.5v-176z" />
<glyph unicode="&#xe7;" horiz-adv-x="1155" d="M132 371v364q0 203 91 297t289 94h152q172 0 261.5 -72.5t107.5 -226.5l-69 -5q-16 130 -88.5 188t-215.5 58h-142q-165 0 -238 -77.5t-73 -255.5v-364q0 -178 73 -255.5t238 -77.5h142q143 0 215.5 58t88.5 188l69 -5q-18 -154 -107.5 -226.5t-261.5 -72.5h-96l-20 -68 h15q51 0 82 -4.5t60 -20t42 -49t13 -86.5q0 -44 -10.5 -75t-26 -48t-44 -26t-54 -11t-67.5 -2h-168v48h165q46 0 68 2.5t42 13.5t26.5 34t6.5 64q0 33 -5.5 53.5t-13.5 33t-28.5 18t-39.5 7t-56 1.5h-70l34 115h-7q-198 0 -289 94t-91 297z" />
<glyph unicode="&#xe8;" horiz-adv-x="1167" d="M132 369v386q0 200 91.5 285.5t289.5 85.5h156q198 0 288 -85.5t90 -285.5v-224h-840v-162q0 -177 73.5 -254.5t237.5 -77.5h149q142 0 214.5 57.5t88.5 185.5l71 -6q-19 -153 -110 -223.5t-262 -70.5h-156q-197 0 -289 93t-92 296zM207 580h769v176q0 174 -72 244 t-237 70h-149q-165 0 -238 -70.5t-73 -243.5v-176zM491 1475h79l112 -273h-59z" />
<glyph unicode="&#xe9;" horiz-adv-x="1167" d="M132 369v386q0 200 91.5 285.5t289.5 85.5h156q198 0 288 -85.5t90 -285.5v-224h-840v-162q0 -177 73.5 -254.5t237.5 -77.5h149q142 0 214.5 57.5t88.5 185.5l71 -6q-19 -153 -110 -223.5t-262 -70.5h-156q-197 0 -289 93t-92 296zM207 580h769v176q0 174 -72 244 t-237 70h-149q-165 0 -238 -70.5t-73 -243.5v-176zM491 1202l112 273h79l-132 -273h-59z" />
<glyph unicode="&#xea;" horiz-adv-x="1167" d="M132 369v386q0 200 91.5 285.5t289.5 85.5h156q198 0 288 -85.5t90 -285.5v-224h-840v-162q0 -177 73.5 -254.5t237.5 -77.5h149q142 0 214.5 57.5t88.5 185.5l71 -6q-19 -153 -110 -223.5t-262 -70.5h-156q-197 0 -289 93t-92 296zM207 580h769v176q0 174 -72 244 t-237 70h-149q-165 0 -238 -70.5t-73 -243.5v-176zM376 1202l166 273h89l167 -273h-60l-151 228l-152 -228h-59z" />
<glyph unicode="&#xeb;" horiz-adv-x="1167" d="M132 369v386q0 200 91.5 285.5t289.5 85.5h156q198 0 288 -85.5t90 -285.5v-224h-840v-162q0 -177 73.5 -254.5t237.5 -77.5h149q142 0 214.5 57.5t88.5 185.5l71 -6q-19 -153 -110 -223.5t-262 -70.5h-156q-197 0 -289 93t-92 296zM207 580h769v176q0 174 -72 244 t-237 70h-149q-165 0 -238 -70.5t-73 -243.5v-176zM390 1300v76h76v-76h-76zM707 1300v76h77v-76h-77z" />
<glyph unicode="&#xec;" horiz-adv-x="462" d="M141 1475h79l112 -273h-59zM199 0v1106h75v-1106h-75z" />
<glyph unicode="&#xed;" horiz-adv-x="462" d="M141 1202l112 273h79l-132 -273h-59zM199 0v1106h75v-1106h-75z" />
<glyph unicode="&#xee;" horiz-adv-x="462" d="M25 1202l167 273h89l166 -273h-59l-152 228l-151 -228h-60zM199 0v1106h75v-1106h-75z" />
<glyph unicode="&#xef;" horiz-adv-x="462" d="M39 1300v76h77v-76h-77zM199 0v1106h75v-1106h-75zM357 1300v76h76v-76h-76z" />
<glyph unicode="&#xf0;" horiz-adv-x="1243" d="M119 555q0 231 92.5 347t301.5 117h169q118 0 294 -113l48 -31v41q0 138 -79 251l-75 106l-180 -115l-24 48l172 111q-139 174 -359 174h-218v60h218q126 0 235 -51t186 -144l178 114l25 -48l-171 -109l78 -111q94 -134 94 -290v-475q0 -247 -95 -351t-300 -104h-197 q-207 0 -300 130.5t-93 442.5zM198 553q0 -193 35 -305.5t103 -159t182 -46.5h185q171 0 246 88t75 309v370l-62 40q-167 110 -273 109h-166q-173 0 -249 -100t-76 -305z" />
<glyph unicode="&#xf1;" horiz-adv-x="1251" d="M188 0v1106h75v-110q232 130 375 130h107q181 0 257 -84.5t80 -279.5v-762h-76v755q-3 169 -67 240t-219 71h-103q-131 0 -353 -127v-939h-76zM335 1315q77 139 171 139q55 0 148 -58q78 -49 114 -49q28 0 53 20.5t61 71.5l43 -26q-74 -119 -154 -119q-56 0 -143 56 q-81 51 -119 51q-33 0 -62.5 -24.5t-66.5 -86.5z" />
<glyph unicode="&#xf2;" d="M132 349v386q0 203 91 297t290 94h180q197 0 287.5 -94t90.5 -297v-386q0 -200 -90.5 -284.5t-287.5 -84.5h-180q-197 0 -289 84.5t-92 284.5zM207 351q0 -173 73 -243t238 -70h169q165 0 237 69.5t72 243.5v384q0 178 -73 255.5t-236 77.5h-169q-165 0 -238 -77.5 t-73 -255.5v-384zM507 1475h80l111 -273h-59z" />
<glyph unicode="&#xf3;" d="M132 349v386q0 203 91 297t290 94h180q197 0 287.5 -94t90.5 -297v-386q0 -200 -90.5 -284.5t-287.5 -84.5h-180q-197 0 -289 84.5t-92 284.5zM207 351q0 -173 73 -243t238 -70h169q165 0 237 69.5t72 243.5v384q0 178 -73 255.5t-236 77.5h-169q-165 0 -238 -77.5 t-73 -255.5v-384zM507 1202l112 273h79l-132 -273h-59z" />
<glyph unicode="&#xf4;" d="M132 349v386q0 203 91 297t290 94h180q197 0 287.5 -94t90.5 -297v-386q0 -200 -90.5 -284.5t-287.5 -84.5h-180q-197 0 -289 84.5t-92 284.5zM207 351q0 -173 73 -243t238 -70h169q165 0 237 69.5t72 243.5v384q0 178 -73 255.5t-236 77.5h-169q-165 0 -238 -77.5 t-73 -255.5v-384zM392 1202l166 273h89l167 -273h-59l-152 228l-152 -228h-59z" />
<glyph unicode="&#xf5;" d="M132 349v386q0 203 91 297t290 94h180q197 0 287.5 -94t90.5 -297v-386q0 -200 -90.5 -284.5t-287.5 -84.5h-180q-197 0 -289 84.5t-92 284.5zM207 351q0 -173 73 -243t238 -70h169q165 0 237 69.5t72 243.5v384q0 178 -73 255.5t-236 77.5h-169q-165 0 -238 -77.5 t-73 -255.5v-384zM307 1315q77 139 171 139q55 0 148 -58q78 -49 114 -49q28 0 53.5 20.5t61.5 71.5l43 -26q-74 -119 -155 -119q-56 0 -143 56q-81 51 -118 51q-33 0 -62.5 -24.5t-66.5 -86.5z" />
<glyph unicode="&#xf6;" d="M132 349v386q0 203 91 297t290 94h180q197 0 287.5 -94t90.5 -297v-386q0 -200 -90.5 -284.5t-287.5 -84.5h-180q-197 0 -289 84.5t-92 284.5zM207 351q0 -173 73 -243t238 -70h169q165 0 237 69.5t72 243.5v384q0 178 -73 255.5t-236 77.5h-169q-165 0 -238 -77.5 t-73 -255.5v-384zM406 1300v76h76v-76h-76zM723 1300v76h77v-76h-77z" />
<glyph unicode="&#xf7;" horiz-adv-x="1153" d="M97 537v60h958v-60h-958zM534 0v170h84v-170h-84zM534 963v171h84v-171h-84z" />
<glyph unicode="&#xf8;" d="M132 349v386q0 203 91 297t290 94h180q19 0 53 -2l25 84h62l-28 -91q138 -24 202 -117t64 -265v-386q0 -200 -90.5 -284.5t-287.5 -84.5h-180l-56 1l-25 -83h-61l27 90q-136 21 -201 106.5t-65 254.5zM207 351q0 -144 50 -215.5t159 -89.5l312 1021l-41 1h-169 q-165 0 -238 -77.5t-73 -255.5v-384zM475 39l43 -1h169q165 0 237 69.5t72 243.5v384q0 148 -50 225.5t-159 98.5z" />
<glyph unicode="&#xf9;" horiz-adv-x="1253" d="M169 344v762h76v-755q3 -169 69 -240t226 -71h105q136 0 364 127v939h76v-1106h-74v110q-239 -130 -386 -130h-110q-186 0 -264 84.5t-82 279.5zM532 1475h80l112 -273h-59z" />
<glyph unicode="&#xfa;" horiz-adv-x="1253" d="M169 344v762h76v-755q3 -169 69 -240t226 -71h105q136 0 364 127v939h76v-1106h-74v110q-239 -130 -386 -130h-110q-186 0 -264 84.5t-82 279.5zM532 1202l112 273h80l-133 -273h-59z" />
<glyph unicode="&#xfb;" horiz-adv-x="1253" d="M169 344v762h76v-755q3 -169 69 -240t226 -71h105q136 0 364 127v939h76v-1106h-74v110q-239 -130 -386 -130h-110q-186 0 -264 84.5t-82 279.5zM417 1202l166 273h90l166 -273h-59l-152 228l-152 -228h-59z" />
<glyph unicode="&#xfc;" horiz-adv-x="1253" d="M169 344v762h76v-755q3 -169 69 -240t226 -71h105q136 0 364 127v939h76v-1106h-74v110q-239 -130 -386 -130h-110q-186 0 -264 84.5t-82 279.5zM431 1300v76h76v-76h-76zM748 1300v76h77v-76h-77z" />
<glyph unicode="&#xfd;" horiz-adv-x="1095" d="M56 1106h79l377 -1048h72l376 1048h79l-530 -1475h-73l131 369h-113zM458 1202l112 273h79l-132 -273h-59z" />
<glyph unicode="&#xfe;" horiz-adv-x="1224" d="M199 -369v1803h75v-437q228 129 373 129h110q181 0 256.5 -84.5t79.5 -279.5v-418q-4 -195 -79.5 -279.5t-256.5 -84.5h-111q-143 0 -372 128v-477h-75zM274 167q222 -127 354 -127h103q156 0 219.5 71t66.5 240v403q-3 169 -66.5 240t-219.5 71h-103q-132 0 -354 -127 v-771z" />
<glyph unicode="&#xff;" horiz-adv-x="1095" d="M56 1106h79l377 -1048h72l376 1048h79l-530 -1475h-73l131 369h-113zM357 1300v76h76v-76h-76zM674 1300v76h77v-76h-77z" />
<glyph unicode="&#x152;" horiz-adv-x="2211" d="M172 454v496q0 262 107.5 383t341.5 121h215q155 0 249 -56.5t135 -176.5v213h857v-68h-777v-592h737v-67h-737v-639h789v-68h-869v193q-41 -114 -134 -163.5t-250 -49.5h-215q-233 0 -341 108.5t-108 365.5zM252 456q0 -116 21.5 -194.5t69 -126t116 -68t168.5 -20.5 h203q199 0 286 90.5t87 318.5v494q0 233 -88 334.5t-285 101.5h-203q-199 0 -287 -101.5t-88 -334.5v-494z" />
<glyph unicode="&#x153;" horiz-adv-x="2033" d="M132 349v386q0 203 91 297t290 94h180q142 0 225 -51t114 -161q29 114 112.5 163t232.5 49h157q197 0 287 -85.5t90 -285.5v-224h-839v-162q0 -178 73 -255t237 -77h149q142 0 215 57.5t89 185.5l70 -6q-19 -153 -109.5 -223.5t-261.5 -70.5h-157q-143 0 -226 51 t-115 161q-29 -114 -112 -163t-231 -49h-180q-197 0 -289 84.5t-92 284.5zM207 351q0 -173 73 -243t238 -70h169q165 0 237 69.5t72 243.5v384q0 178 -73 255.5t-236 77.5h-169q-165 0 -238 -77.5t-73 -255.5v-384zM1072 580h768v176q0 174 -72 244t-237 70h-149 q-165 0 -237.5 -70t-72.5 -244v-176z" />
<glyph unicode="&#x178;" horiz-adv-x="1304" d="M95 1434h90l467 -797l468 796h90l-518 -883v-550h-79v549zM455 1627v77h77v-77h-77zM772 1627v77h77v-77h-77z" />
<glyph unicode="&#x2c6;" horiz-adv-x="616" d="M97 1202l167 273h89l166 -273h-59l-152 228l-152 -228h-59z" />
<glyph unicode="&#x2dc;" horiz-adv-x="784" d="M97 1315q77 139 171 139q55 0 148 -58q78 -49 114 -49q28 0 53 20.5t61 71.5l44 -26q-74 -119 -155 -119q-56 0 -143 56q-81 51 -118 51q-33 0 -62.5 -24.5t-66.5 -86.5z" />
<glyph unicode="&#x2000;" horiz-adv-x="976" />
<glyph unicode="&#x2001;" horiz-adv-x="1952" />
<glyph unicode="&#x2002;" horiz-adv-x="976" />
<glyph unicode="&#x2003;" horiz-adv-x="1952" />
<glyph unicode="&#x2004;" horiz-adv-x="650" />
<glyph unicode="&#x2005;" horiz-adv-x="488" />
<glyph unicode="&#x2006;" horiz-adv-x="325" />
<glyph unicode="&#x2007;" horiz-adv-x="325" />
<glyph unicode="&#x2008;" horiz-adv-x="244" />
<glyph unicode="&#x2009;" horiz-adv-x="390" />
<glyph unicode="&#x200a;" horiz-adv-x="108" />
<glyph unicode="&#x2010;" horiz-adv-x="737" d="M97 555v61h544v-61h-544z" />
<glyph unicode="&#x2011;" horiz-adv-x="737" d="M97 555v61h544v-61h-544z" />
<glyph unicode="&#x2012;" horiz-adv-x="737" d="M97 555v61h544v-61h-544z" />
<glyph unicode="&#x2013;" horiz-adv-x="1038" d="M97 512v60h844v-60h-844z" />
<glyph unicode="&#x2014;" horiz-adv-x="1406" d="M97 512v60h1213v-60h-1213z" />
<glyph unicode="&#x2018;" horiz-adv-x="331" d="M97 1132v168l107 215h69l-92 -212v-171h-84z" />
<glyph unicode="&#x2019;" horiz-adv-x="331" d="M59 1132l92 212v171h84v-167l-107 -216h-69z" />
<glyph unicode="&#x201a;" horiz-adv-x="331" d="M59 -213l92 213v170h84v-167l-107 -216h-69z" />
<glyph unicode="&#x201c;" horiz-adv-x="571" d="M97 1132v168l107 215h69l-92 -212v-171h-84zM337 1132v168l106 215h70l-92 -212v-171h-84z" />
<glyph unicode="&#x201d;" horiz-adv-x="571" d="M59 1132l92 212v171h84v-167l-107 -216h-69zM299 1132l91 212v171h84v-167l-106 -216h-69z" />
<glyph unicode="&#x201e;" horiz-adv-x="571" d="M59 -213l92 213v170h84v-167l-107 -216h-69zM299 -213l91 213v170h84v-167l-106 -216h-69z" />
<glyph unicode="&#x2022;" horiz-adv-x="571" d="M97 542v85q0 63 42 104.5t105 41.5h85q63 0 104.5 -41.5t41.5 -104.5v-85q0 -63 -41.5 -105t-104.5 -42h-85q-63 0 -105 42t-42 105z" />
<glyph unicode="&#x2026;" horiz-adv-x="1007" d="M97 0v170h84v-170h-84zM461 0v170h84v-170h-84zM826 0v170h83v-170h-83z" />
<glyph unicode="&#x202f;" horiz-adv-x="390" />
<glyph unicode="&#x2039;" horiz-adv-x="598" d="M97 571l366 429l37 -37l-318 -392l318 -393l-37 -37z" />
<glyph unicode="&#x203a;" horiz-adv-x="598" d="M97 178l319 393l-319 392l37 37l366 -429l-366 -430z" />
<glyph unicode="&#x205f;" horiz-adv-x="488" />
<glyph unicode="&#x20ac;" horiz-adv-x="1472" d="M133 526v49h137v284h-137v49h138v49q2 260 109 378.5t340 118.5h178q204 0 311.5 -92t129.5 -289l-80 -6q-20 168 -108 243.5t-258 75.5h-167q-197 0 -285.5 -100t-89.5 -329v-49h706v-49h-707v-284h614v-49h-613v-51q1 -228 89.5 -328t285.5 -100h167q170 0 258 75.5 t108 243.5l80 -6q-22 -197 -129 -288.5t-312 -91.5h-178q-232 0 -339.5 118.5t-109.5 376.5v51h-138z" />
<glyph unicode="&#x2122;" horiz-adv-x="1507" d="M59 1388v46h528v-46h-236v-683h-55v683h-237zM723 705v729h142l202 -649l202 649h142v-729h-55v683h-49l-213 -683h-54l-213 683h-49v-683h-55z" />
<glyph unicode="&#x25fc;" horiz-adv-x="1105" d="M0 0v1106h1106v-1106h-1106z" />
<glyph unicode="&#xfb03;" horiz-adv-x="1837" d="M79 1047v59h160v90q0 132 27 205.5t93 107.5q78 41 244 36v-57q-133 2 -195 -31q-52 -28 -72.5 -88.5t-20.5 -173.5v-89h609v90q0 132 27 205.5t93 107.5q78 41 245 36v-57q-135 1 -197 -31q-52 -28 -72.5 -88.5t-20.5 -173.5v-89h647v-1106h-76v1047h-571v-1047h-75 v1047h-609v-1047h-76v1047h-160z" />
<glyph unicode="&#xfb04;" horiz-adv-x="1812" d="M79 1047v59h160v79q0 132 27 205.5t93 107.5q78 41 246 36v-57q-139 2 -197 -30q-52 -28 -72.5 -88.5t-20.5 -173.5v-79h609v79q0 132 27 205.5t93 107.5q73 38 222 38h377v-1536h-76v1477h-280q-135 2 -195 -30q-52 -28 -72.5 -88.5t-20.5 -173.5v-79h288v-59h-288 v-1047h-75v1047h-609v-1047h-76v1047h-160z" />
</font>
</defs>
</svg>
